<?xml version="1.0" encoding="UTF-8" standalone="no"?>
<!-- Created with Inkscape (http://www.inkscape.org/) -->

<svg
   xmlns:dc="http://purl.org/dc/elements/1.1/"
   xmlns:cc="http://creativecommons.org/ns#"
   xmlns:rdf="http://www.w3.org/1999/02/22-rdf-syntax-ns#"
   xmlns:svg="http://www.w3.org/2000/svg"
   xmlns="http://www.w3.org/2000/svg"
   xmlns:sodipodi="http://sodipodi.sourceforge.net/DTD/sodipodi-0.dtd"
   xmlns:inkscape="http://www.inkscape.org/namespaces/inkscape"
   id="svg2"
   version="1.1"
   inkscape:version="0.91 r"
   xml:space="preserve"
   width="163"
   height="222"
   viewBox="0 0 163 222"
   sodipodi:docname="alien.svg"><metadata
     id="metadata8"><rdf:RDF><cc:Work
         rdf:about=""><dc:format>image/svg+xml</dc:format><dc:type
           rdf:resource="http://purl.org/dc/dcmitype/StillImage" /><dc:title></dc:title></cc:Work></rdf:RDF></metadata><defs
     id="defs6" /><sodipodi:namedview
     pagecolor="#ffffff"
     bordercolor="#666666"
     borderopacity="1"
     objecttolerance="10"
     gridtolerance="10"
     guidetolerance="10"
     inkscape:pageopacity="0"
     inkscape:pageshadow="2"
     inkscape:window-width="1920"
     inkscape:window-height="1056"
     id="namedview4"
     showgrid="false"
     inkscape:zoom="1.0547486"
     inkscape:cx="-356.34621"
     inkscape:cy="102.18289"
     inkscape:window-x="0"
     inkscape:window-y="24"
     inkscape:window-maximized="1"
     inkscape:current-layer="g10" /><g
     id="g10"
     inkscape:groupmode="layer"
     inkscape:label="ink_ext_XXXXXX"
     transform="matrix(1.25,0,0,-1.25,0,222)"><path
       style="fill:#ffffff;fill-opacity:1"
       d="m 59.215164,39.916513 c -0.180127,0.115074 -0.35471,0.697657 -0.615227,1.795964 -0.274498,1.157258 -0.639998,2.796144 -1.190653,4.777204 -0.550653,1.981061 -1.286425,4.304577 -2.305024,6.834655 -1.018599,2.530068 -2.319806,5.265517 -3.99814,8.069808 -0.839167,1.402141 -1.772401,2.821298 -2.812462,4.240474 -1.040062,1.419175 -2.187632,2.838623 -3.452562,4.240474 -1.26493,1.40185 -2.646882,2.78708 -4.160653,4.137264 -1.513771,1.350183 -3.158437,2.664942 -4.945024,3.9291 -1.786587,1.264167 -3.715669,2.477389 -5.799044,3.621179 -2.083376,1.143799 -4.32189,2.219241 -6.726029,3.208314 -2.404139,0.989072 -4.973787,1.892225 -7.722663,2.692229 -2.748874,0.800004 -5.6763308,1.49634 -8.7939175,2.072934 0.3894385,-3.180868 0.9326147,-6.158188 1.608542,-8.945427 0.6759282,-2.787239 1.4847928,-5.383595 2.4061805,-7.803169 0.921388,-2.419566 1.955286,-4.662165 3.081105,-6.740032 1.12582,-2.077867 2.344096,-3.992191 3.633317,-5.754316 1.28922,-1.762125 2.649562,-3.371945 4.061154,-4.844293 1.411594,-1.472348 2.873346,-2.806589 4.366281,-4.015126 1.492936,-1.208537 3.017102,-2.292672 4.550351,-3.263362 1.53325,-0.970682 3.075857,-1.828492 4.608392,-2.587293 1.532533,-0.758801 3.054587,-1.417475 4.545376,-1.990353 1.490787,-0.572877 2.949975,-1.059632 4.357989,-1.472559 2.816027,-0.825838 5.425869,-1.357829 7.664621,-1.699625 2.018357,-0.30815 3.609736,-0.428817 4.905226,-0.504044 l 2.732864,0 z"
       id="path3390"
       inkscape:connector-curvature="0" /><path
       style="fill:#ffffff;fill-opacity:1"
       d="m 72.323004,38.977948 c 0.143817,0.160867 0.712654,0.276337 1.753115,0.429035 1.0947,0.160662 2.631461,0.365241 4.493835,0.719885 1.862375,0.354653 4.050695,0.859725 6.450145,1.616534 2.399442,0.756809 5.009048,1.766269 7.714963,3.133426 1.352957,0.683578 2.729463,1.456397 4.115808,2.331597 1.386336,0.8752 2.783189,1.852581 4.17408,2.945416 1.3909,1.092845 2.77596,2.301486 4.14258,3.637997 1.36662,1.33651 2.71407,2.801497 4.0276,4.407689 1.31353,1.606199 2.59438,3.352616 3.82598,5.25452 1.23161,1.901904 2.41373,3.958053 3.53458,6.181691 1.12086,2.223639 2.18,4.614605 3.16128,7.186002 0.98129,2.57139 1.8853,5.32386 2.6982,8.269038 -2.93025,-0.08441 -5.69074,-0.335302 -8.28989,-0.731132 -2.59917,-0.395837 -5.0365,-0.936574 -7.32434,-1.602069 -2.28783,-0.665495 -4.42552,-1.455863 -6.42179,-2.34927 C 98.382886,79.514909 96.527655,78.518333 94.8032,77.438784 93.078753,76.359236 91.485638,75.196667 90.013244,73.97273 88.540849,72.748786 87.189513,71.463663 85.94942,70.137092 84.709328,68.81052 83.579423,67.443042 82.551874,66.055597 81.524326,64.668152 80.598657,63.260155 79.7639,61.853589 78.929142,60.447025 78.185794,59.041932 77.524071,57.658008 76.862346,56.274084 76.282553,54.91211 75.774105,53.592582 74.757211,50.953523 74.026674,48.484482 73.504349,46.353556 72.982024,44.22263 72.667896,42.429555 72.482092,41.140821 72.298206,39.86539 72.24308,39.102978 72.234797,38.977948 l 0.08821,0 z"
       id="path3388"
       inkscape:connector-curvature="0" /><path
       inkscape:connector-curvature="0"
       style="fill:#1a1a1a;fill-opacity:1;fill-rule:nonzero;stroke:none"
       d="m 65.870285,177.6 c -14.512222,0 -34.773521,-4.99065 -47.79382,-21.29325 C 5.5641278,140.64538 0,114.1563 0,90.484171 0,69.328817 12.161303,50.270751 22.809557,34.499341 36.483013,14.246288 50.782039,0 66.782107,0 82.509484,0 98.347919,17.872964 110.86805,37.453482 120.99944,53.299214 130.4,71.637425 130.4,93.250749 c 0,22.233631 -1.31929,41.985971 -12.14261,57.421261 -5.88737,8.38988 -12.78864,15.15676 -21.619682,19.60829 C 86.417039,175.43407 74.115178,177.6 65.870285,177.6 Z M 9.5842387,85.055748 C 56.309326,76.673569 57.388546,40.310342 58.813364,39.884004 58.06775,39.860956 15.42098,38.813685 9.5842387,85.055748 Z M 121.61265,84.825982 C 108.78612,38.989153 72.883288,41.310318 72.122563,39.949651 c 0.05786,0.8753 3.254012,43.562576 49.490087,44.876331 z"
       id="path14" /></g></svg>