<?xml version="1.0" encoding="UTF-8" standalone="no"?>
<svg
   xmlns:ooo="http://xml.openoffice.org/svg/export"
   xmlns:dc="http://purl.org/dc/elements/1.1/"
   xmlns:cc="http://creativecommons.org/ns#"
   xmlns:rdf="http://www.w3.org/1999/02/22-rdf-syntax-ns#"
   xmlns:svg="http://www.w3.org/2000/svg"
   xmlns="http://www.w3.org/2000/svg"
   xmlns:sodipodi="http://sodipodi.sourceforge.net/DTD/sodipodi-0.dtd"
   xmlns:inkscape="http://www.inkscape.org/namespaces/inkscape"
   version="1.2"
   width="690"
   height="850"
   viewBox="0 0 19473.334 23988.889"
   preserveAspectRatio="xMidYMid"
   clip-path="url(#presentation_clip_path)"
   xml:space="preserve"
   id="svg3513"
   inkscape:version="0.91 r"
   sodipodi:docname="cat.svg"
   style="fill-rule:evenodd;stroke-width:28.22200012;stroke-linejoin:round"><metadata
     id="metadata3605"><rdf:RDF><cc:Work
         rdf:about=""><dc:format>image/svg+xml</dc:format><dc:type
           rdf:resource="http://purl.org/dc/dcmitype/StillImage" /><dc:title></dc:title></cc:Work></rdf:RDF></metadata><sodipodi:namedview
     pagecolor="#ffffff"
     bordercolor="#666666"
     borderopacity="1"
     objecttolerance="10"
     gridtolerance="10"
     guidetolerance="10"
     inkscape:pageopacity="0"
     inkscape:pageshadow="2"
     inkscape:window-width="809"
     inkscape:window-height="480"
     id="namedview3603"
     showgrid="false"
     units="px"
     inkscape:zoom="0.2651662"
     inkscape:cx="763.67199"
     inkscape:cy="445.00392"
     inkscape:window-x="339"
     inkscape:window-y="145"
     inkscape:window-maximized="0"
     inkscape:current-layer="svg3513" /><defs
     class="ClipPathGroup"
     id="defs3515"><clipPath
       id="presentation_clip_path"
       clipPathUnits="userSpaceOnUse"><rect
         x="0"
         y="0"
         width="25118"
         height="25118"
         id="rect3518" /></clipPath></defs><defs
     class="TextShapeIndex"
     id="defs3520"><g
       ooo:slide="id1"
       ooo:id-list="id3 id4 id5 id6 id7 id8"
       id="g3522" /></defs><defs
     class="EmbeddedBulletChars"
     id="defs3524"><g
       id="bullet-char-template(57356)"
       transform="scale(4.8828125e-4,-4.8828125e-4)"><path
         d="M 580,1141 1163,571 580,0 -4,571 580,1141 Z"
         id="path3527"
         inkscape:connector-curvature="0" /></g><g
       id="bullet-char-template(57354)"
       transform="scale(4.8828125e-4,-4.8828125e-4)"><path
         d="m 8,1128 1129,0 L 1137,0 8,0 8,1128 Z"
         id="path3530"
         inkscape:connector-curvature="0" /></g><g
       id="bullet-char-template(10146)"
       transform="scale(4.8828125e-4,-4.8828125e-4)"><path
         d="M 174,0 602,739 174,1481 1456,739 174,0 Z m 1184,739 -1049,607 350,-607 699,0 z"
         id="path3533"
         inkscape:connector-curvature="0" /></g><g
       id="bullet-char-template(10132)"
       transform="scale(4.8828125e-4,-4.8828125e-4)"><path
         d="M 2015,739 1276,0 717,0 l 543,543 -1086,0 0,393 1086,0 -543,545 557,0 741,-742 z"
         id="path3536"
         inkscape:connector-curvature="0" /></g><g
       id="bullet-char-template(10007)"
       transform="scale(4.8828125e-4,-4.8828125e-4)"><path
         d="m 0,-2 c -7,16 -16,29 -25,39 l 381,530 c -94,256 -141,385 -141,387 0,25 13,38 40,38 9,0 21,-2 34,-5 21,4 42,12 65,25 l 27,-13 111,-251 280,301 64,-25 24,25 c 21,-10 41,-24 62,-43 C 886,937 835,863 770,784 769,783 710,716 594,584 L 774,223 c 0,-27 -21,-55 -63,-84 l 16,-20 C 717,90 699,76 672,76 641,76 570,178 457,381 L 164,-76 c -22,-34 -53,-51 -92,-51 -42,0 -63,17 -64,51 -7,9 -10,24 -10,44 0,9 1,19 2,30 z"
         id="path3539"
         inkscape:connector-curvature="0" /></g><g
       id="bullet-char-template(10004)"
       transform="scale(4.8828125e-4,-4.8828125e-4)"><path
         d="M 285,-33 C 182,-33 111,30 74,156 52,228 41,333 41,471 c 0,78 14,145 41,201 34,71 87,106 158,106 53,0 88,-31 106,-94 l 23,-176 c 8,-64 28,-97 59,-98 l 735,706 c 11,11 33,17 66,17 42,0 63,-15 63,-46 l 0,-122 c 0,-36 -10,-64 -30,-84 L 442,47 C 390,-6 338,-33 285,-33 Z"
         id="path3542"
         inkscape:connector-curvature="0" /></g><g
       id="bullet-char-template(9679)"
       transform="scale(4.8828125e-4,-4.8828125e-4)"><path
         d="M 813,0 C 632,0 489,54 383,161 276,268 223,411 223,592 c 0,181 53,324 160,431 106,107 249,161 430,161 179,0 323,-54 432,-161 108,-107 162,-251 162,-431 0,-180 -54,-324 -162,-431 C 1136,54 992,0 813,0 Z"
         id="path3545"
         inkscape:connector-curvature="0" /></g><g
       id="bullet-char-template(8226)"
       transform="scale(4.8828125e-4,-4.8828125e-4)"><path
         d="m 346,457 c -73,0 -137,26 -191,78 -54,51 -81,114 -81,188 0,73 27,136 81,188 54,52 118,78 191,78 73,0 134,-26 185,-79 51,-51 77,-114 77,-187 0,-75 -25,-137 -76,-188 -50,-52 -112,-78 -186,-78 z"
         id="path3548"
         inkscape:connector-curvature="0" /></g><g
       id="bullet-char-template(8211)"
       transform="scale(4.8828125e-4,-4.8828125e-4)"><path
         d="m -4,459 1139,0 0,147 -1139,0 0,-147 z"
         id="path3551"
         inkscape:connector-curvature="0" /></g></defs><defs
     class="TextEmbeddedBitmaps"
     id="defs3553" /><g
     id="g3555"
     transform="matrix(1.0007365,0,0,0.99932859,0,-1112.2473)"><g
       id="id2"
       class="Master_Slide"><g
         id="bg-id2"
         class="Background" /><g
         id="bo-id2"
         class="BackgroundObjects" /></g></g><g
     class="SlideGroup"
     id="g3560"
     transform="matrix(1.0007365,0,0,0.99932859,-3151.3194,-622.58315)"><g
       id="g3562"><g
         id="id1"
         class="Slide"
         clip-path="url(#presentation_clip_path)"><g
           class="Page"
           id="g3565"><g
             class="com.sun.star.drawing.CustomShape"
             id="g3567"><g
               id="id3"><path
                 d="m 12650,12366 c 3884,0 6850,2648 6850,6116 0,3468 -2966,6117 -6850,6117 -3884,0 -6850,-2649 -6850,-6117 0,-3468 2966,-6116 6850,-6116 z m -6850,0 0,0 z m 13701,12234 0,0 z"
                 id="path3570"
                 inkscape:connector-curvature="0"
                 style="fill:#ffffff;stroke:none" /><path
                 d="m 12650,12366 c 3884,0 6850,2648 6850,6116 0,3468 -2966,6117 -6850,6117 -3884,0 -6850,-2649 -6850,-6117 0,-3468 2966,-6116 6850,-6116 z"
                 id="path3572"
                 inkscape:connector-curvature="0"
                 style="fill:none;stroke:#ffffff" /><path
                 d="m 5800,12366 0,0 z"
                 id="path3574"
                 inkscape:connector-curvature="0"
                 style="fill:none;stroke:#ffffff" /><path
                 d="m 19501,24600 0,0 z"
                 id="path3576"
                 inkscape:connector-curvature="0"
                 style="fill:none;stroke:#ffffff" /></g></g><g
             class="com.sun.star.drawing.ClosedBezierShape"
             id="g3578"><g
               id="id4"><path
                 d="m 5763,1147 c 93,-183 185,-369 321,-524 369,497 700,1021 1030,1545 854,1366 1666,2760 2403,4193 892,-396 1869,-556 2835,-624 267,-43 538,-15 807,-22 1047,72 2111,214 3079,646 685,-1335 1440,-2634 2226,-3912 389,-617 772,-1240 1207,-1826 222,268 355,595 500,908 559,1305 947,2677 1270,4058 409,1795 677,3623 802,5457 35,225 7,455 49,680 9,325 6,650 37,973 7,411 2,824 3,1235 -3,246 11,493 -19,739 -29,270 4,543 -34,812 -57,886 -210,1769 -473,2618 -314,1025 -807,1994 -1450,2851 234,6 469,-12 702,20 296,33 594,-3 889,35 101,8 203,-9 305,-4 -65,20 -129,52 -198,38 -166,-24 -330,21 -496,19 -312,0 -624,-7 -935,27 -126,13 -254,6 -380,8 -174,217 -359,424 -550,626 972,132 1941,291 2915,417 -162,41 -323,-21 -485,-19 -263,6 -522,-50 -786,-40 -193,-37 -390,-25 -584,-41 -211,-42 -428,-8 -639,-48 -212,-21 -427,-4 -638,-48 -165,149 -326,304 -497,446 2,7 8,22 11,29 942,233 1880,485 2824,714 -253,-1 -504,-73 -757,-99 -805,-124 -1610,-245 -2414,-372 -539,400 -1115,751 -1723,1036 -364,172 -736,334 -1122,448 -543,-111 -1061,-351 -1495,-697 -584,-463 -1011,-1111 -1244,-1816 682,-134 1364,-429 1819,-972 111,-139 238,-293 235,-481 -10,-188 -182,-309 -339,-378 -441,-190 -929,-211 -1401,-248 -667,-19 -1341,-14 -1998,120 -249,68 -539,133 -691,362 -104,179 4,383 117,529 449,602 1174,927 1895,1068 -217,656 -601,1261 -1124,1716 -360,315 -786,552 -1242,699 -71,19 -151,4 -218,34 -82,68 -194,63 -289,26 -335,-122 -668,-253 -989,-410 -608,-285 -1183,-636 -1722,-1036 -1030,163 -2061,314 -3090,477 -20,-3 -60,-7 -80,-10 955,-225 1902,-482 2854,-719 -177,-151 -346,-310 -518,-466 -199,40 -402,31 -603,44 -232,43 -470,11 -702,56 -200,4 -399,12 -597,39 -250,-13 -494,48 -743,38 -163,-3 -323,62 -484,15 973,-119 1941,-282 2913,-413 -191,-202 -377,-409 -550,-626 -154,0 -308,4 -461,-16 -390,-40 -784,4 -1173,-42 -126,-10 -256,30 -375,-32 102,-2 204,8 306,2 294,-38 592,-2 887,-35 233,-32 469,-14 703,-20 -883,-1169 -1463,-2552 -1734,-3989 -131,-697 -211,-1404 -213,-2114 -3,-177 -35,-352 -30,-528 3,-542 -3,-1082 3,-1623 32,-323 30,-648 38,-972 42,-225 13,-455 49,-681 128,-1884 406,-3763 835,-5605 224,-952 489,-1896 812,-2820 177,-501 369,-998 604,-1475 z"
                 id="path3581"
                 inkscape:connector-curvature="0"
                 style="fill:#020202;stroke:none" /></g></g><g
             class="com.sun.star.drawing.ClosedBezierShape"
             id="g3583"><g
               id="id5"><path
                 d="m 6976,17725 c -1276,-1282 -1355,-3528 -204,-4916 574,128 1176,257 1661,610 48,191 22,390 57,583 72,817 163,1634 304,2443 45,219 85,443 184,646 140,-184 195,-414 254,-633 131,-553 220,-1115 272,-1680 44,-189 8,-387 60,-575 396,414 804,837 1321,1100 227,109 476,178 728,184 142,-22 285,-42 422,-85 -46,599 -217,1194 -533,1708 -417,691 -1097,1238 -1892,1418 -268,71 -546,71 -821,63 -685,-53 -1335,-378 -1813,-866 z"
                 id="path3586"
                 inkscape:connector-curvature="0"
                 style="fill:#fdfdfd;stroke:none" /></g></g><g
             class="com.sun.star.drawing.ClosedBezierShape"
             id="g3588"><g
               id="id6"><path
                 d="m 17324,13419 c 485,-350 1083,-487 1659,-606 1064,1272 1081,3278 77,4590 -376,494 -896,887 -1493,1071 -375,122 -776,145 -1166,102 -682,-91 -1314,-449 -1769,-961 -550,-603 -851,-1405 -910,-2213 137,42 279,62 421,84 253,-5 502,-74 730,-183 517,-264 924,-686 1321,-1100 27,120 37,244 35,367 65,662 153,1325 318,1971 54,192 109,390 233,550 123,-260 162,-548 216,-827 118,-751 206,-1506 271,-2262 35,-193 9,-392 57,-583 z"
                 id="path3591"
                 inkscape:connector-curvature="0"
                 style="fill:#fdfdfd;stroke:none" /></g></g><g
             class="com.sun.star.drawing.ClosedBezierShape"
             id="g3593"><g
               id="id7"><path
                 d="m 11929,19915 c 720,-70 1447,-60 2165,30 230,41 487,71 661,245 -8,181 -143,319 -260,443 -438,416 -1022,665 -1618,742 -547,-69 -1080,-289 -1507,-640 -147,-127 -288,-272 -362,-454 -35,-99 64,-164 139,-200 245,-113 517,-139 782,-166 z"
                 id="path3596"
                 inkscape:connector-curvature="0"
                 style="fill:#020202;stroke:none" /></g></g><g
             class="com.sun.star.drawing.ClosedBezierShape"
             id="g3598"><g
               id="id8"><path
                 d="m 12226,23091 c 269,-328 486,-697 650,-1087 271,644 690,1230 1236,1668 348,283 754,490 1183,617 -147,82 -317,94 -476,140 -363,79 -729,150 -1101,169 -278,42 -562,37 -841,3 -520,67 -1041,-14 -1556,-90 -244,-51 -490,-100 -731,-168 -6,-24 -18,-71 -24,-95 659,-195 1227,-631 1660,-1157 z"
                 id="path3601"
                 inkscape:connector-curvature="0"
                 style="fill:#020202;stroke:none" /></g></g></g></g></g></g></svg>