<?xml version="1.0" encoding="UTF-8"?>

<svg version="1.2" baseProfile="tiny" width="183.8mm" height="219.08mm" viewBox="0 0 18380 21908" preserveAspectRatio="xMidYMid" fill-rule="evenodd" clip-path="url(#presentation_clip_path)" stroke-width="28.222" stroke-linejoin="round" xmlns="http://www.w3.org/2000/svg" xmlns:ooo="http://xml.openoffice.org/svg/export" xmlns:xlink="http://www.w3.org/1999/xlink" xml:space="preserve">
 <defs class="ClipPathGroup">
  <clipPath id="presentation_clip_path" clipPathUnits="userSpaceOnUse">
   <rect x="0" y="0" width="18380" height="21908"/>
  </clipPath>
 </defs>
 <defs class="TextShapeIndex">
  <g ooo:slide="id1" ooo:id-list="id3 id4 id5 id6"/>
 </defs>
 <defs class="EmbeddedBulletChars">
  <g id="bullet-char-template(57356)" transform="scale(0.00048828125,-0.00048828125)">
   <path d="M 580,1141 L 1163,571 580,0 -4,571 580,1141 Z"/>
  </g>
  <g id="bullet-char-template(57354)" transform="scale(0.00048828125,-0.00048828125)">
   <path d="M 8,1128 L 1137,1128 1137,0 8,0 8,1128 Z"/>
  </g>
  <g id="bullet-char-template(10146)" transform="scale(0.00048828125,-0.00048828125)">
   <path d="M 174,0 L 602,739 174,1481 1456,739 174,0 Z M 1358,739 L 309,1346 659,739 1358,739 Z"/>
  </g>
  <g id="bullet-char-template(10132)" transform="scale(0.00048828125,-0.00048828125)">
   <path d="M 2015,739 L 1276,0 717,0 1260,543 174,543 174,936 1260,936 717,1481 1274,1481 2015,739 Z"/>
  </g>
  <g id="bullet-char-template(10007)" transform="scale(0.00048828125,-0.00048828125)">
   <path d="M 0,-2 C -7,14 -16,27 -25,37 L 356,567 C 262,823 215,952 215,954 215,979 228,992 255,992 264,992 276,990 289,987 310,991 331,999 354,1012 L 381,999 492,748 772,1049 836,1024 860,1049 C 881,1039 901,1025 922,1006 886,937 835,863 770,784 769,783 710,716 594,584 L 774,223 C 774,196 753,168 711,139 L 727,119 C 717,90 699,76 672,76 641,76 570,178 457,381 L 164,-76 C 142,-110 111,-127 72,-127 30,-127 9,-110 8,-76 1,-67 -2,-52 -2,-32 -2,-23 -1,-13 0,-2 Z"/>
  </g>
  <g id="bullet-char-template(10004)" transform="scale(0.00048828125,-0.00048828125)">
   <path d="M 285,-33 C 182,-33 111,30 74,156 52,228 41,333 41,471 41,549 55,616 82,672 116,743 169,778 240,778 293,778 328,747 346,684 L 369,508 C 377,444 397,411 428,410 L 1163,1116 C 1174,1127 1196,1133 1229,1133 1271,1133 1292,1118 1292,1087 L 1292,965 C 1292,929 1282,901 1262,881 L 442,47 C 390,-6 338,-33 285,-33 Z"/>
  </g>
  <g id="bullet-char-template(9679)" transform="scale(0.00048828125,-0.00048828125)">
   <path d="M 813,0 C 632,0 489,54 383,161 276,268 223,411 223,592 223,773 276,916 383,1023 489,1130 632,1184 813,1184 992,1184 1136,1130 1245,1023 1353,916 1407,772 1407,592 1407,412 1353,268 1245,161 1136,54 992,0 813,0 Z"/>
  </g>
  <g id="bullet-char-template(8226)" transform="scale(0.00048828125,-0.00048828125)">
   <path d="M 346,457 C 273,457 209,483 155,535 101,586 74,649 74,723 74,796 101,859 155,911 209,963 273,989 346,989 419,989 480,963 531,910 582,859 608,796 608,723 608,648 583,586 532,535 482,483 420,457 346,457 Z"/>
  </g>
  <g id="bullet-char-template(8211)" transform="scale(0.00048828125,-0.00048828125)">
   <path d="M -4,459 L 1135,459 1135,606 -4,606 -4,459 Z"/>
  </g>
 </defs>
 <defs class="TextEmbeddedBitmaps"/>
 <g>
  <g id="id2" class="Master_Slide">
   <g id="bg-id2" class="Background"/>
   <g id="bo-id2" class="BackgroundObjects"/>
  </g>
 </g>
 <g class="SlideGroup">
  <g>
   <g id="id1" class="Slide" clip-path="url(#presentation_clip_path)">
    <g class="Page">
     <g class="com.sun.star.drawing.CustomShape">
      <g id="id3">
       <path fill="rgb(255,255,255)" stroke="none" d="M 12827,12099 C 15192,12099 16999,13810 16999,16049 16999,18288 15192,19999 12827,19999 10462,19999 8656,18288 8656,16049 8656,13810 10462,12099 12827,12099 Z M 8656,12099 L 8656,12099 Z M 17000,20000 L 17000,20000 Z"/>
       <path fill="none" stroke="rgb(255,255,255)" d="M 12827,12099 C 15192,12099 16999,13810 16999,16049 16999,18288 15192,19999 12827,19999 10462,19999 8656,18288 8656,16049 8656,13810 10462,12099 12827,12099 Z"/>
       <path fill="none" stroke="rgb(255,255,255)" d="M 8656,12099 L 8656,12099 Z"/>
       <path fill="none" stroke="rgb(255,255,255)" d="M 17000,20000 L 17000,20000 Z"/>
      </g>
     </g>
     <g class="com.sun.star.drawing.ClosedBezierShape">
      <g id="id4">
       <path fill="rgb(1,1,1)" stroke="none" d="M 0,19015 C 661,19196 1308,19546 1940,19812 L 5221,21182 C 5787,21420 6417,21801 7021,21908 L 6996,21414 C 7185,20101 8835,20215 9808,20215 11352,20215 13049,20292 14535,19803 15225,19576 16040,19047 16331,18345 16457,18042 16299,17448 16299,17110 L 15558,17986 C 14665,18794 13282,19378 12066,19403 12027,18994 13034,18977 13371,18873 14547,18509 15659,17849 16182,16687 16456,16080 16254,15669 15629,15441 15402,15359 14830,15274 14905,14923 14942,14749 15129,14641 15276,14569 15666,14379 16184,14256 16617,14252 16348,13428 16172,12584 16232,11712 16288,10896 16538,10106 16430,9278 16321,8436 15855,7662 15372,6985 15124,6637 14852,6245 14500,5997 L 16172,3916 C 16518,3483 16940,3055 17217,2575 15804,2252 14177,3213 12983,3875 12629,4072 12176,4471 11783,4555 11382,4640 10780,4258 10372,4198 L 10247,3175 C 10230,2469 10363,1766 10276,1058 10238,749 10235,203 9913,36 9644,-104 9387,154 9208,320 L 7726,1690 C 6353,2969 5131,4355 3875,5750 3182,6519 2408,7263 1815,8114 1132,9093 851,10385 621,11536 130,13993 0,16517 0,19015 Z"/>
      </g>
     </g>
     <g class="com.sun.star.drawing.ClosedBezierShape">
      <g id="id5">
       <path fill="rgb(255,255,255)" stroke="none" d="M 12030,9596 C 10688,10388 10354,11592 10894,13019 11081,13511 11348,14039 11889,14211 12923,14539 14025,13704 14712,13019 L 14022,12066 13230,10372 C 13085,10613 13069,10980 13011,11254 L 12630,13054 C 12349,12305 12333,11341 12216,10549 12175,10270 12189,9829 12030,9596 Z"/>
      </g>
     </g>
     <g class="com.sun.star.drawing.ClosedBezierShape">
      <g id="id6">
       <path fill="rgb(0,0,0)" stroke="none" d="M 15006,14960 C 15006,14984 15006,15008 15006,15031 15285,15134 15563,15237 15842,15340 15874,15356 15907,15372 15939,15387 15970,15405 16001,15422 16032,15440 16062,15459 16091,15478 16121,15498 16149,15519 16176,15541 16204,15563 16230,15587 16256,15612 16281,15636 16305,15664 16328,15691 16352,15718 16373,15749 16394,15780 16415,15810 16434,15845 16452,15879 16470,15913 16496,15913 16521,15913 16546,15913 16634,15749 16722,15584 16810,15419 16829,15376 16848,15334 16866,15291 16874,15269 16881,15247 16889,15226 16894,15204 16900,15182 16906,15160 16910,15138 16913,15116 16917,15094 16919,15071 16920,15049 16922,15027 16921,15004 16920,14981 16919,14959 16916,14936 16912,14913 16909,14890 16903,14870 16897,14850 16891,14829 16883,14811 16875,14793 16867,14775 16857,14759 16847,14743 16836,14727 16824,14714 16812,14700 16800,14686 16786,14675 16772,14663 16758,14652 16742,14642 16727,14632 16711,14623 16694,14615 16677,14607 16659,14600 16641,14594 16622,14588 16603,14582 16584,14577 16564,14573 16544,14569 16523,14566 16501,14563 16480,14560 16435,14559 16390,14558 16345,14557 16296,14560 16248,14564 16200,14568 16150,14576 16099,14584 16049,14592 15998,14604 15947,14616 15896,14627 15844,14641 15793,14656 15742,14670 15644,14703 15547,14736 15449,14770 15364,14804 15280,14839 15195,14873 15132,14902 15069,14931 15006,14960 Z M 16959,15701 C 16823,15948 16686,16195 16550,16442 16542,16471 16534,16499 16527,16527 16520,16556 16514,16586 16508,16615 16500,16675 16492,16736 16484,16797 16481,16859 16478,16922 16475,16985 16476,17049 16476,17113 16477,17177 16487,17426 16498,17675 16509,17924 16519,17914 16528,17904 16538,17894 16547,17883 16557,17872 16566,17861 16583,17837 16601,17813 16618,17789 16633,17763 16649,17737 16664,17711 16677,17684 16691,17656 16704,17629 16716,17600 16727,17572 16739,17543 16749,17514 16758,17486 16768,17457 16776,17429 16783,17400 16791,17372 16797,17344 16803,17317 16809,17289 16837,17302 16865,17314 16893,17326 16920,17340 16947,17354 16974,17368 17026,17400 17078,17432 17130,17464 17179,17499 17229,17535 17279,17571 17328,17608 17377,17645 17426,17683 17475,17720 17524,17757 17573,17794 17623,17830 17673,17865 17723,17900 17776,17930 17828,17961 17880,17992 17908,18005 17935,18019 17963,18032 17991,18043 18019,18055 18048,18066 18029,18046 18010,18026 17991,18006 17969,17987 17948,17967 17926,17948 17877,17911 17829,17874 17780,17837 17670,17765 17561,17694 17451,17622 17397,17586 17343,17549 17289,17513 17240,17475 17190,17436 17141,17398 17119,17378 17098,17358 17076,17337 17056,17316 17037,17295 17018,17274 17001,17252 16985,17230 16969,17208 16955,17185 16942,17162 16929,17138 16939,17001 16949,16863 16959,16725 17397,16866 17835,17007 18273,17148 18245,17130 18217,17111 18188,17092 18158,17075 18127,17059 18096,17042 18063,17028 18030,17013 17998,16999 17964,16986 17929,16973 17895,16960 17758,16912 17620,16864 17483,16815 17452,16802 17420,16788 17389,16775 17360,16760 17330,16744 17301,16729 17275,16712 17249,16694 17223,16677 17212,16668 17200,16658 17188,16648 17178,16638 17167,16627 17156,16617 17147,16606 17137,16595 17127,16584 17119,16572 17110,16560 17102,16548 17095,16535 17087,16522 17080,16509 17074,16495 17068,16481 17062,16467 17058,16452 17053,16437 17048,16422 17045,16406 17042,16390 17039,16374 17037,16356 17036,16339 17034,16322 17034,16303 17034,16285 17034,16266 17485,16255 17935,16243 18386,16231 18363,16223 18339,16215 18316,16207 18291,16201 18266,16194 18241,16188 18215,16182 18188,16177 18162,16172 18134,16168 18106,16164 18079,16160 18020,16156 17962,16151 17904,16147 17843,16145 17783,16144 17722,16143 17493,16149 17264,16154 17034,16160 17034,16007 17034,15854 17034,15701 17009,15701 16984,15701 16959,15701 Z"/>
      </g>
     </g>
    </g>
   </g>
  </g>
 </g>
</svg>