<?xml version="1.0" encoding="UTF-8"?>

<svg version="1.2" baseProfile="tiny" width="183.8mm" height="219.08mm" viewBox="0 0 18380 21908" preserveAspectRatio="xMidYMid" fill-rule="evenodd" clip-path="url(#presentation_clip_path)" stroke-width="28.222" stroke-linejoin="round" xmlns="http://www.w3.org/2000/svg" xmlns:ooo="http://xml.openoffice.org/svg/export" xmlns:xlink="http://www.w3.org/1999/xlink" xml:space="preserve">
 <defs class="ClipPathGroup">
  <clipPath id="presentation_clip_path" clipPathUnits="userSpaceOnUse">
   <rect x="0" y="0" width="18380" height="21908"/>
  </clipPath>
 </defs>
 <defs class="TextShapeIndex">
  <g ooo:slide="id1" ooo:id-list="id3 id4 id5 id6"/>
 </defs>
 <defs class="EmbeddedBulletChars">
  <g id="bullet-char-template(57356)" transform="scale(0.00048828125,-0.00048828125)">
   <path d="M 580,1141 L 1163,571 580,0 -4,571 580,1141 Z"/>
  </g>
  <g id="bullet-char-template(57354)" transform="scale(0.00048828125,-0.00048828125)">
   <path d="M 8,1128 L 1137,1128 1137,0 8,0 8,1128 Z"/>
  </g>
  <g id="bullet-char-template(10146)" transform="scale(0.00048828125,-0.00048828125)">
   <path d="M 174,0 L 602,739 174,1481 1456,739 174,0 Z M 1358,739 L 309,1346 659,739 1358,739 Z"/>
  </g>
  <g id="bullet-char-template(10132)" transform="scale(0.00048828125,-0.00048828125)">
   <path d="M 2015,739 L 1276,0 717,0 1260,543 174,543 174,936 1260,936 717,1481 1274,1481 2015,739 Z"/>
  </g>
  <g id="bullet-char-template(10007)" transform="scale(0.00048828125,-0.00048828125)">
   <path d="M 0,-2 C -7,14 -16,27 -25,37 L 356,567 C 262,823 215,952 215,954 215,979 228,992 255,992 264,992 276,990 289,987 310,991 331,999 354,1012 L 381,999 492,748 772,1049 836,1024 860,1049 C 881,1039 901,1025 922,1006 886,937 835,863 770,784 769,783 710,716 594,584 L 774,223 C 774,196 753,168 711,139 L 727,119 C 717,90 699,76 672,76 641,76 570,178 457,381 L 164,-76 C 142,-110 111,-127 72,-127 30,-127 9,-110 8,-76 1,-67 -2,-52 -2,-32 -2,-23 -1,-13 0,-2 Z"/>
  </g>
  <g id="bullet-char-template(10004)" transform="scale(0.00048828125,-0.00048828125)">
   <path d="M 285,-33 C 182,-33 111,30 74,156 52,228 41,333 41,471 41,549 55,616 82,672 116,743 169,778 240,778 293,778 328,747 346,684 L 369,508 C 377,444 397,411 428,410 L 1163,1116 C 1174,1127 1196,1133 1229,1133 1271,1133 1292,1118 1292,1087 L 1292,965 C 1292,929 1282,901 1262,881 L 442,47 C 390,-6 338,-33 285,-33 Z"/>
  </g>
  <g id="bullet-char-template(9679)" transform="scale(0.00048828125,-0.00048828125)">
   <path d="M 813,0 C 632,0 489,54 383,161 276,268 223,411 223,592 223,773 276,916 383,1023 489,1130 632,1184 813,1184 992,1184 1136,1130 1245,1023 1353,916 1407,772 1407,592 1407,412 1353,268 1245,161 1136,54 992,0 813,0 Z"/>
  </g>
  <g id="bullet-char-template(8226)" transform="scale(0.00048828125,-0.00048828125)">
   <path d="M 346,457 C 273,457 209,483 155,535 101,586 74,649 74,723 74,796 101,859 155,911 209,963 273,989 346,989 419,989 480,963 531,910 582,859 608,796 608,723 608,648 583,586 532,535 482,483 420,457 346,457 Z"/>
  </g>
  <g id="bullet-char-template(8211)" transform="scale(0.00048828125,-0.00048828125)">
   <path d="M -4,459 L 1135,459 1135,606 -4,606 -4,459 Z"/>
  </g>
 </defs>
 <defs class="TextEmbeddedBitmaps"/>
 <g>
  <g id="id2" class="Master_Slide">
   <g id="bg-id2" class="Background"/>
   <g id="bo-id2" class="BackgroundObjects"/>
  </g>
 </g>
 <g class="SlideGroup">
  <g>
   <g id="id1" class="Slide" clip-path="url(#presentation_clip_path)">
    <g class="Page">
     <g class="com.sun.star.drawing.CustomShape">
      <g id="id3">
       <path fill="rgb(255,255,255)" stroke="none" d="M 5558,12099 C 3193,12099 1386,13810 1386,16049 1386,18288 3193,19999 5558,19999 7923,19999 9729,18288 9729,16049 9729,13810 7923,12099 5558,12099 Z M 9729,12099 L 9729,12099 Z M 1385,20000 L 1385,20000 Z"/>
       <path fill="none" stroke="rgb(255,255,255)" d="M 5558,12099 C 3193,12099 1386,13810 1386,16049 1386,18288 3193,19999 5558,19999 7923,19999 9729,18288 9729,16049 9729,13810 7923,12099 5558,12099 Z"/>
       <path fill="none" stroke="rgb(255,255,255)" d="M 9729,12099 L 9729,12099 Z"/>
       <path fill="none" stroke="rgb(255,255,255)" d="M 1385,20000 L 1385,20000 Z"/>
      </g>
     </g>
     <g class="com.sun.star.drawing.ClosedBezierShape">
      <g id="id4">
       <path fill="rgb(1,1,1)" stroke="none" d="M 18386,19015 C 17725,19196 17078,19546 16446,19812 L 13165,21182 C 12599,21420 11969,21801 11365,21908 L 11390,21414 C 11201,20101 9551,20215 8578,20215 7034,20215 5337,20292 3851,19803 3161,19576 2346,19047 2055,18345 1929,18042 2087,17448 2087,17110 L 2828,17986 C 3721,18794 5104,19378 6320,19403 6359,18994 5352,18977 5015,18873 3839,18509 2727,17849 2204,16687 1930,16080 2132,15669 2757,15441 2984,15359 3556,15274 3481,14923 3444,14749 3257,14641 3110,14569 2720,14379 2202,14256 1769,14252 2038,13428 2214,12584 2154,11712 2098,10896 1848,10106 1956,9278 2065,8436 2531,7662 3014,6985 3262,6637 3534,6245 3886,5997 L 2214,3916 C 1868,3483 1446,3055 1169,2575 2582,2252 4209,3213 5403,3875 5757,4072 6210,4471 6603,4555 7004,4640 7606,4258 8014,4198 L 8139,3175 C 8156,2469 8023,1766 8110,1058 8148,749 8151,203 8473,36 8742,-104 8999,154 9178,320 L 10660,1690 C 12033,2969 13255,4355 14511,5750 15204,6519 15978,7263 16571,8114 17254,9093 17535,10385 17765,11536 18256,13993 18386,16517 18386,19015 Z"/>
      </g>
     </g>
     <g class="com.sun.star.drawing.ClosedBezierShape">
      <g id="id5">
       <path fill="rgb(255,255,255)" stroke="none" d="M 6356,9596 C 7698,10388 8032,11592 7492,13019 7305,13511 7038,14039 6497,14211 5463,14539 4361,13704 3674,13019 L 4364,12066 5156,10372 C 5301,10613 5317,10980 5375,11254 L 5756,13054 C 6037,12305 6053,11341 6170,10549 6211,10270 6197,9829 6356,9596 Z"/>
      </g>
     </g>
     <g class="com.sun.star.drawing.ClosedBezierShape">
      <g id="id6">
       <path fill="rgb(0,0,0)" stroke="none" d="M 3380,14960 C 3380,14984 3380,15008 3380,15031 3101,15134 2823,15237 2544,15340 2512,15356 2479,15372 2447,15387 2416,15405 2385,15422 2354,15440 2324,15459 2295,15478 2265,15498 2237,15519 2210,15541 2182,15563 2156,15587 2130,15612 2105,15636 2081,15664 2058,15691 2034,15718 2013,15749 1992,15780 1971,15810 1952,15845 1934,15879 1916,15913 1890,15913 1865,15913 1840,15913 1752,15749 1664,15584 1576,15419 1557,15376 1538,15334 1520,15291 1512,15269 1505,15247 1497,15226 1492,15204 1486,15182 1480,15160 1476,15138 1473,15116 1469,15094 1467,15071 1466,15049 1464,15027 1465,15004 1466,14981 1467,14959 1470,14936 1474,14913 1477,14890 1483,14870 1489,14850 1495,14829 1503,14811 1511,14793 1519,14775 1529,14759 1539,14743 1550,14727 1562,14714 1574,14700 1586,14686 1600,14675 1614,14663 1628,14652 1644,14642 1659,14632 1675,14623 1692,14615 1709,14607 1727,14600 1745,14594 1764,14588 1783,14582 1802,14577 1822,14573 1842,14569 1863,14566 1885,14563 1906,14560 1951,14559 1996,14558 2041,14557 2090,14560 2138,14564 2186,14568 2236,14576 2287,14584 2337,14592 2388,14604 2439,14616 2490,14627 2542,14641 2593,14656 2644,14670 2742,14703 2839,14736 2937,14770 3022,14804 3106,14839 3191,14873 3254,14902 3317,14931 3380,14960 Z M 1427,15701 C 1563,15948 1700,16195 1836,16442 1844,16471 1852,16499 1859,16527 1866,16556 1872,16586 1878,16615 1886,16675 1894,16736 1902,16797 1905,16859 1908,16922 1911,16985 1910,17049 1910,17113 1909,17177 1899,17426 1888,17675 1877,17924 1867,17914 1858,17904 1848,17894 1839,17883 1829,17872 1820,17861 1803,17837 1785,17813 1768,17789 1753,17763 1737,17737 1722,17711 1709,17684 1695,17656 1682,17629 1670,17600 1659,17572 1647,17543 1637,17514 1628,17486 1618,17457 1610,17429 1603,17400 1595,17372 1589,17344 1583,17317 1577,17289 1549,17302 1521,17314 1493,17326 1466,17340 1439,17354 1412,17368 1360,17400 1308,17432 1256,17464 1207,17499 1157,17535 1107,17571 1058,17608 1009,17645 960,17683 911,17720 862,17757 813,17794 763,17830 713,17865 663,17900 610,17930 558,17961 506,17992 478,18005 451,18019 423,18032 395,18043 367,18055 338,18066 357,18046 376,18026 395,18006 417,17987 438,17967 460,17948 509,17911 557,17874 606,17837 716,17765 825,17694 935,17622 989,17586 1043,17549 1097,17513 1146,17475 1196,17436 1245,17398 1267,17378 1288,17358 1310,17337 1330,17316 1349,17295 1368,17274 1385,17252 1401,17230 1417,17208 1431,17185 1444,17162 1457,17138 1447,17001 1437,16863 1427,16725 989,16866 551,17007 113,17148 141,17130 169,17111 198,17092 228,17075 259,17059 290,17042 323,17028 356,17013 388,16999 422,16986 457,16973 491,16960 628,16912 766,16864 903,16815 934,16802 966,16788 997,16775 1026,16760 1056,16744 1085,16729 1111,16712 1137,16694 1163,16677 1174,16668 1186,16658 1198,16648 1208,16638 1219,16627 1230,16617 1239,16606 1249,16595 1259,16584 1267,16572 1276,16560 1284,16548 1291,16535 1299,16522 1306,16509 1312,16495 1318,16481 1324,16467 1328,16452 1333,16437 1338,16422 1341,16406 1344,16390 1347,16374 1349,16356 1350,16339 1352,16322 1352,16303 1352,16285 1352,16266 901,16255 451,16243 0,16231 23,16223 47,16215 70,16207 95,16201 120,16194 145,16188 171,16182 198,16177 224,16172 252,16168 280,16164 307,16160 366,16156 424,16151 482,16147 543,16145 603,16144 664,16143 893,16149 1122,16154 1352,16160 1352,16007 1352,15854 1352,15701 1377,15701 1402,15701 1427,15701 Z"/>
      </g>
     </g>
    </g>
   </g>
  </g>
 </g>
</svg>