<?xml version="1.0" encoding="UTF-8"?>

<svg version="1.2" baseProfile="tiny" width="104.07mm" height="104.07mm" viewBox="0 0 10407 10407" preserveAspectRatio="xMidYMid" fill-rule="evenodd" clip-path="url(#presentation_clip_path)" stroke-width="28.222" stroke-linejoin="round" xmlns="http://www.w3.org/2000/svg" xmlns:ooo="http://xml.openoffice.org/svg/export" xmlns:xlink="http://www.w3.org/1999/xlink" xml:space="preserve">
 <defs class="ClipPathGroup">
  <clipPath id="presentation_clip_path" clipPathUnits="userSpaceOnUse">
   <rect x="0" y="0" width="10407" height="10407"/>
  </clipPath>
 </defs>
 <defs class="TextShapeIndex">
  <g ooo:slide="id1" ooo:id-list="id3 id4 id5 id6 id7 id8"/>
 </defs>
 <defs class="EmbeddedBulletChars">
  <g id="bullet-char-template(57356)" transform="scale(0.00048828125,-0.00048828125)">
   <path d="M 580,1141 L 1163,571 580,0 -4,571 580,1141 Z"/>
  </g>
  <g id="bullet-char-template(57354)" transform="scale(0.00048828125,-0.00048828125)">
   <path d="M 8,1128 L 1137,1128 1137,0 8,0 8,1128 Z"/>
  </g>
  <g id="bullet-char-template(10146)" transform="scale(0.00048828125,-0.00048828125)">
   <path d="M 174,0 L 602,739 174,1481 1456,739 174,0 Z M 1358,739 L 309,1346 659,739 1358,739 Z"/>
  </g>
  <g id="bullet-char-template(10132)" transform="scale(0.00048828125,-0.00048828125)">
   <path d="M 2015,739 L 1276,0 717,0 1260,543 174,543 174,936 1260,936 717,1481 1274,1481 2015,739 Z"/>
  </g>
  <g id="bullet-char-template(10007)" transform="scale(0.00048828125,-0.00048828125)">
   <path d="M 0,-2 C -7,14 -16,27 -25,37 L 356,567 C 262,823 215,952 215,954 215,979 228,992 255,992 264,992 276,990 289,987 310,991 331,999 354,1012 L 381,999 492,748 772,1049 836,1024 860,1049 C 881,1039 901,1025 922,1006 886,937 835,863 770,784 769,783 710,716 594,584 L 774,223 C 774,196 753,168 711,139 L 727,119 C 717,90 699,76 672,76 641,76 570,178 457,381 L 164,-76 C 142,-110 111,-127 72,-127 30,-127 9,-110 8,-76 1,-67 -2,-52 -2,-32 -2,-23 -1,-13 0,-2 Z"/>
  </g>
  <g id="bullet-char-template(10004)" transform="scale(0.00048828125,-0.00048828125)">
   <path d="M 285,-33 C 182,-33 111,30 74,156 52,228 41,333 41,471 41,549 55,616 82,672 116,743 169,778 240,778 293,778 328,747 346,684 L 369,508 C 377,444 397,411 428,410 L 1163,1116 C 1174,1127 1196,1133 1229,1133 1271,1133 1292,1118 1292,1087 L 1292,965 C 1292,929 1282,901 1262,881 L 442,47 C 390,-6 338,-33 285,-33 Z"/>
  </g>
  <g id="bullet-char-template(9679)" transform="scale(0.00048828125,-0.00048828125)">
   <path d="M 813,0 C 632,0 489,54 383,161 276,268 223,411 223,592 223,773 276,916 383,1023 489,1130 632,1184 813,1184 992,1184 1136,1130 1245,1023 1353,916 1407,772 1407,592 1407,412 1353,268 1245,161 1136,54 992,0 813,0 Z"/>
  </g>
  <g id="bullet-char-template(8226)" transform="scale(0.00048828125,-0.00048828125)">
   <path d="M 346,457 C 273,457 209,483 155,535 101,586 74,649 74,723 74,796 101,859 155,911 209,963 273,989 346,989 419,989 480,963 531,910 582,859 608,796 608,723 608,648 583,586 532,535 482,483 420,457 346,457 Z"/>
  </g>
  <g id="bullet-char-template(8211)" transform="scale(0.00048828125,-0.00048828125)">
   <path d="M -4,459 L 1135,459 1135,606 -4,606 -4,459 Z"/>
  </g>
 </defs>
 <defs class="TextEmbeddedBitmaps"/>
 <g>
  <g id="id2" class="Master_Slide">
   <g id="bg-id2" class="Background"/>
   <g id="bo-id2" class="BackgroundObjects"/>
  </g>
 </g>
 <g class="SlideGroup">
  <g>
   <g id="id1" class="Slide" clip-path="url(#presentation_clip_path)">
    <g class="Page">
     <g class="com.sun.star.drawing.ClosedBezierShape">
      <g id="id3">
       <path fill="rgb(0,0,0)" stroke="none" d="M 1905,7402 L 0,7402 0,7508 1341,7508 1869,7494 C 2023,7552 2112,7726 2187,7861 1536,8018 809,8161 141,8214 261,8394 662,8242 847,8207 1413,8098 2175,7767 2540,8320 L 1200,8829 C 1022,8896 769,8934 706,9131 L 2117,8604 C 2242,8557 2495,8400 2628,8445 2842,8518 3068,8895 3246,9045 3745,9466 4377,9800 5045,9800 5716,9800 6343,9462 6845,9040 7023,8889 7252,8519 7468,8445 7598,8401 7851,8558 7974,8604 L 9385,9131 C 9325,8946 9094,8907 8926,8842 L 7550,8320 C 7917,7765 8677,8098 9244,8207 9429,8242 9829,8394 9949,8214 9281,8161 8555,8018 7903,7861 7978,7726 8067,7552 8221,7494 L 8750,7508 10090,7508 10090,7402 8185,7402 C 8555,6883 8722,6178 8872,5568 L 9526,2145 9652,875 C 9670,739 9715,477 9606,367 9494,255 9284,370 9173,428 8789,629 8443,916 8115,1197 L 7162,2060 6754,2374 6315,2272 5363,2078 C 4910,2047 4462,2100 4022,2204 L 3393,2380 C 3175,2391 2860,2004 2717,1863 2254,1408 1743,953 1200,596 1040,491 773,286 568,325 394,358 419,602 425,734 L 545,2040 C 730,3217 933,4411 1218,5568 1369,6178 1536,6883 1905,7402 Z"/>
      </g>
     </g>
     <g class="com.sun.star.drawing.ClosedBezierShape">
      <g id="id4">
       <path fill="rgb(255,255,255)" stroke="none" d="M 1100,1390 L 1486,1849 C 1772,2172 2414,3329 2935,2732 2459,2619 2078,1939 1700,1638 1520,1494 1341,1330 1100,1390 Z M 7239,2732 C 7760,3329 8402,2172 8687,1849 L 9074,1390 C 8833,1330 8654,1494 8474,1638 8097,1938 7712,2619 7239,2732 Z"/>
      </g>
     </g>
     <g class="com.sun.star.drawing.PolyPolygonShape">
      <g id="id5"/>
     </g>
     <g class="com.sun.star.drawing.ClosedBezierShape">
      <g id="id6">
       <path fill="rgb(255,255,255)" stroke="none" d="M 2469,5009 C 2687,5425 2710,5969 3139,6245 3371,6394 3738,6391 3986,6284 4064,6250 4217,6184 4201,6075 4179,5935 3751,5691 3633,5609 3614,5692 3569,6006 3429,5955 3208,5873 3318,5397 3244,5228 3129,4963 2701,5009 2469,5009 Z M 6456,5609 L 5856,6032 C 6004,6447 6726,6440 7020,6197 7385,5894 7413,5406 7621,5009 7389,5009 6961,4963 6845,5228 6772,5397 6882,5873 6660,5955 6521,6006 6475,5692 6456,5609 Z M 4410,6668 L 4202,6847 C 3696,7379 4940,7525 4815,8113 4735,8488 4139,8401 3937,8657 3803,8827 3970,8949 4127,8961 L 4022,8749 C 4315,8629 4863,8537 4959,8185 5041,7885 4865,7577 4621,7417 4518,7350 4250,7257 4250,7105 4250,6982 4430,6874 4516,6809 L 4410,6668 Z M 5645,6668 L 5574,6809 C 5662,6876 5839,6984 5839,7111 5839,7257 5568,7351 5468,7417 5225,7577 5049,7885 5131,8185 5227,8537 5775,8629 6068,8749 L 5962,8961 C 6119,8949 6286,8827 6152,8657 5950,8401 5355,8488 5275,8113 5147,7511 6441,7366 5855,6815 L 5645,6668 Z"/>
      </g>
     </g>
     <g class="com.sun.star.drawing.PolyPolygonShape">
      <g id="id7"/>
     </g>
     <g class="com.sun.star.drawing.PolyPolygonShape">
      <g id="id8"/>
     </g>
    </g>
   </g>
  </g>
 </g>
</svg>