<?xml version="1.0" encoding="UTF-8" standalone="no"?>
<svg id="svg2" xml:space="preserve" height="349.03px" viewBox="0 0 311.411 349.033" xmlns:dc="http://purl.org/dc/elements/1.1/" width="311.41px" version="1.1" xmlns:xlink="http://www.w3.org/1999/xlink" xmlns:cc="http://creativecommons.org/ns#" xmlns:rdf="http://www.w3.org/1999/02/22-rdf-syntax-ns#" xmlns="http://www.w3.org/2000/svg" y="0px" x="0px" enable-background="new 0 0 311.411 349.033"><path id="path199" d="m198.85 49.398c-0.518 12.744-3.5 23.022-7.65 32.133 6.748-6.262 9.039-19.308 9.945-29.073 5.487 0.365 3.498 4.826 9.182 3.825-2.036 2.554-6.713 2.468-5.355 8.416 1.689-0.096 0.325-3.246 0.766-4.59 5.328 1.035 9.434-2.518 13.006-0.765v-3.826c-0.99-3.045-6.59-0.835-8.416 0-4.688-1.887-3.235-4.894-7.649-4.59-1.864-2.216 0.839-9-2.295-9.946-2.231 1.084 0.968 7.598-2.296 7.651-4.635-1.25-2.002-8.239-2.295-12.241-0.7-9.558-5.189-19.193-6.887-26.777 21.965-10.476 44.847 24.3 41.313 52.79 13.672 10.811 30.226 18.74 35.192 38.253 6.262-5.47 10.098-13.365 22.953-12.241 4.787 6.115 0.539 13.191 2.295 19.127 3.264 11.034 13.869 15.373 22.188 22.188 3.309 4.708-2.842 12.166-3.824 19.892-1.033 8.105 3.375 17.067 3.059 23.717-0.334 7.042-4.918 12.818-5.354 18.361-12.49 5.616-17.511 18.703-26.777 27.543-1.373 15.056 9.562 28.123 7.65 45.14-0.391 3.474-1.919 10.469-5.355 11.477-12.424 3.643-12.416-18.251-12.24-27.543-5.547 18.265-19.656 25.607-35.958 34.429-4.067 2.2-8.253 5.034-9.183 10.711-7.521 11.324-25.139 13.937-36.723 26.777-8.393 9.303-13.994 20.653-22.188 26.776-18.48 13.814-33.333-20.715-41.313-29.838-1.433-1.638-4.711-1.342-4.59-4.591-16.897-7.84-31.667-17.807-41.314-32.897-14.685-5.717-24.481-16.322-32.133-29.071 0.145-4.991-0.972-8.72-3.825-10.711 1.609 8.409 0.755 22.371-5.355 27.542-6.493 0.628-10.42-1.312-13.771-3.825-1.524-17.366 8.172-29.362 9.946-45.903-1.335-2.49-4.95-2.701-8.416-3.062-7.23-7.562-9.135-20.447-15.301-29.072-12.353-4.393-5.996-17.929-4.591-31.368 1.005-9.612-1.908-17.175-2.295-25.248 4.817-7.839 14.926-7.404 20.657-14.536 5.46-6.796 1.548-18.762 9.946-24.482 10.167 0.289 15.472 5.44 19.127 12.241 5.07-18.137 14.026-32.388 31.368-38.253 0.974-29.51 10.511-56.019 36.719-62.739 3.117 12.867-6.672 26.075-3.826 37.488 1.083 4.344 4.359 5.211 6.121 9.946 13.035-6.092 22.007-16.247 32.133-25.248 15.878 6.959 23.384 25.9 43.609 26.013zm3.825-34.428c0.162-2.458-2.729-1.862-3.825-3.061 0.142 2.153 1.331 3.261 3.825 3.061zm-0.767 2.295c0.929 2.386-0.407 3.292 1.531 5.355 0.342-2.208 3.291-1.809 3.824-3.825-1.966-0.074-1.094-2.986-3.061-3.06-0.309 0.962-0.983 1.564-2.294 1.53zm-93.337 5.356c2.39 0.35 2.446-1.634 2.295-3.825h-2.295v3.825zm-4.59 0.765c2.39 0.35 2.446-1.634 2.295-3.825h-2.295v3.825zm112.46 3.061c1.781-2.73-1.475-5.86-4.59-6.121 0.93 2.64 2.529 4.613 4.59 6.121zm-7.65 3.825c1.023-1.407-0.184-5.482-3.825-4.59 0.586 2.616-0.075 4.146 3.825 4.59zm-103.28-2.296c1.873 0.573 0.163 2.284-0.765 0.765-0.033 1.053 0.36 1.68 0.765 2.295-1.345 0.44-4.495-0.925-4.59 0.765 3.509 0.462 6.982 0.086 11.476 0.765-0.101-1.886-0.116-3.687 0.765-4.591-3.387 0.837-3.805-1.296-6.121-1.53-0.009 1.013-1.341 0.701-1.53 1.531zm72.683 29.073c-5.069-2.326-9.356-5.435-12.242-9.946 4.267 1.102 7.488 7.287 12.242 5.355-8.998-3.753-15.496-10.006-21.422-16.832 6.694 1.727 9.969 10.936 16.066 10.711-5.88-2.791-6.976-10.367-14.536-11.476-0.557-1.681-3.591-2.542-1.53-4.59-2.27 0.28-3.774 1.326-4.591 3.06 1.447 0.172 1.688-0.862 3.061-0.765-1.34 2.709 0.51 1.881 0.766 4.59-1.37 0.969-6.008 2.605-4.591 3.825 3.33-0.465 7.488-2.485 9.945 1.53-1.513 0.061-5.851 2.316-6.885-0.765-11.27 3.15-13.122 7.043-23.717 11.476 8.008 0.119 14.459-5.338 21.421-5.355-3.971 2.915-7.903 5.868-13.006 7.65-0.114-1.019 3.111-2.309 0.765-3.06-1.287 1.519-4.391 1.22-5.355 3.06 3.533-0.605 2.188 0.851 3.06 1.53 2.492-1.079 5.397-1.743 8.416-2.295-2.386 5.009-11.29 3.501-14.536 7.65 8.121 0.209 13.491-6.393 20.656-4.59-3.986 4.429-11.043 5.788-17.596 7.651 4.942 2.956 13.636-3.556 17.596-3.826-2.146 2.937-0.308 1.654 0.766 4.591-6.205 2.345-11.763 0.606-17.597 3.06 4.494 3.749 14.864-3.691 16.831 1.53-4.763-0.234-8.573 3.912-13.006 1.53-0.426 3.997 6.522 0.618 6.886 3.826-2.732 1.283-13.078-1.791-14.536 0.765 3.048 2.428 8.077-1.193 8.416 3.06-4.356 0.531-6.354-1.296-10.711-0.765 2.831 5.585 16.222 0.609 20.657 4.59-4.477 0.785-10.351 2.838-14.536 1.53-8.438 8.63-20.173 12.689-35.193 13.006-7.808-5.709-11.156-15.877-16.067-24.482 1.037 8.505 2.419 12.665 5.355 18.362-2.446-1.635-4.56-3.602-6.886-5.355 0.741 6.506 3.674 10.924 4.591 13.771-4.877 0.542-3.533-5.138-7.651-5.355-0.12 0.9 0.131 2.172-0.765 2.295-1.791-1.014-0.35-5.261-3.06-5.355 4.192 11.619 10.945 20.677 19.126 28.308-11.028-5.548-17.988-15.166-21.422-28.308 0.086 2.752 1.948 7.698 0.765 9.181-1.587-2.238-1.721-5.93-3.825-7.651 0.357 2.984 2.799 7.877 1.53 9.946-1.933-4.698-3.52-9.741-6.12-13.771-2.86 23.683 13.94 33.191 22.952 47.435 0.071-4.534-6.128-9.08-5.355-16.832 1.092-0.184 1.291-1.26 2.295-1.53 2.764 4.121 6.287 7.484 8.416 12.241 15.744 1.065 33.247-0.648 39.019 13.006-4.388 5.172 7.872 12.001 12.241 8.416 0.583-2.877-4.062-0.528-3.06-3.825 0.529-1.511 2.041-2.04 3.825-2.295 3.579 1.267 5.506 4.185 8.416 6.121-2.855 4.03-4.145 9.627-11.476 9.181-0.447 4.05 3.147 0.487 3.825 2.295 0.683 2.42 0.811 9.466-2.295 7.65-0.558 9.75-4.81 17.012 0 24.482 0.13-1.146-0.273-2.823 0.765-3.062 0.896 2.018 0.952 2.666 2.295 0.767 0.474 2.076-0.972 6.071 0.765 6.886 0.131-1.146-0.273-2.824 0.766-3.061 1.733 3.99-1.062 8.539 1.53 12.24-3.099-0.217-5.318-1.312-8.416-1.529-1.096 2.729-1.317 6.334-2.295 9.182 1.23 3.299 8.709 3.775 6.885 7.649 3.012 1.226 0.267-3.304 2.296-3.06 0.297 2.763 1.016 5.104 2.295 6.885 0.131-1.146-0.273-2.823 0.765-3.061 0.325 2.735 2.038 4.083 1.53 7.65 17.395 6.789 11.885-25.61 15.303-37.488-1.504 1.95 1.441 5.699 1.529 6.887-0.303-4.107-2.23 17.242 1.529 15.301 0.969 2.57-2.995 4.048-0.766 5.354 2.713-1.623 5.077-3.594 6.887-6.12-1.754-9.615-7.569-16.824-4.59-25.246 1.789 2.545-0.402 9.072 1.528 11.476 5.979-13.164-9.483-24.237-3.825-41.313-15.823 2.354-10.264-22.129 0-13.771-0.091 2.229-0.795 4.979-3.824 6.121 0.934 0.086 1.812 0.229 1.529 1.53 13.184-0.333 11.846-15.188 22.952-17.597 1.767-5.629 8.792-6 15.302-6.885 2.111 0.183 1.746 2.845 3.061 3.825 11.23-0.756 10.496-13.476 21.422-14.536 1.598-4.013 3.589-7.633 6.121-10.711-3.021 9.317-3.342 16.366-8.416 22.952-7.487 9.718-24.588 5.734-30.604 14.537 2.717-2.385 6.727-3.476 10.711-4.591 0.668 4.412 6.422-0.472 9.182 2.295-1.771 0.198-8.666 1.946-6.121 1.53 8.341 1.701 12.927-4.404 16.832-4.59-5.865 11.477-29.289 5.394-37.488 14.536 8.145-0.009 16.15-7.912 26.777-3.825 2.703-1.029 5.898-3.67 9.945-5.355 1.06-3.719 2.707-8.03 0-9.946 8.428-8.149 11.963-21.19 14.537-35.193-2.549 0.782-2.156 11.096-4.592 14.536 0.473-7.178 2.014-13.287 3.825-19.126-1.457-2.172-3.255-16.311-3.06-9.181 0.188 6.926-1.838 18.434-6.887 21.422 2.081-4.558 5.778-11.552 4.59-16.832-1.312 0.98-0.016 4.575-2.295 4.591-1.111-3.699 3.282-5.848 1.53-7.651-2.045 2.729 1.015-6.054-2.295-4.59-0.147 6.738-0.837 12.935-6.121 14.536 1.429-1.36-0.621-1.944 0-4.59-15.94 3.487-30.897 4.177-39.782-4.59-1.326-1.307-1.345-3.459-3.062-4.59-4.897-3.228-10.952-0.553-15.302-5.355 4.654 0.904-0.64-3.391 3.826-2.295 1.188-2.72-2.6-0.462-2.297-2.295 0.371-0.904 0.816-1.735 1.53-2.295 2.038 1.052 7.114 3.048 8.416 2.295-4.507-3.145-11.487-3.813-13.771-9.181 4.678 1.656 10.051 8.295 15.301 4.59-8.588-1.358-14.389-5.503-19.891-9.946 6.824-1.421 11.199 4.721 17.596 6.121-0.957-4.051-10.367-3.18-7.65-8.416 1.948 1.393 5.708 4.968 8.416 3.06-8.132-4.365-15.025-9.967-22.952-14.536 7.913-1.97 13.15 9.229 19.895 8.413zm28.306-21.422c0.979 2.958-0.645 3.018-0.766 5.355 3.799 0.422 6.535-3.227 9.182-1.53-0.096-2.709-1.258-4.354-2.297-6.121-1.297 1.508-3.556 2.054-6.119 2.296zm11.477-0.765c1.039 5.195 2.864 5.195 0.766 0 2.406-0.876 1.859 1.201 3.061 1.53 0.215-1.744-0.186-2.876-1.529-3.061-0.205 1.076-1.682 0.873-2.298 1.531zm-114.76 3.825c1.927-0.135 0.456 2.971-0.765 4.591-0.594 0.171-1.509 0.021-1.53 0.765 2.812 0.249 6.773-0.652 8.416 0.765-0.14-2.978 2.374-7.272 0.765-9.181-1.913 1.403-4.681 1.95-6.886 3.06zm-1.53 3.061c-3.814-0.325 0.305-1.642 0.765-2.295-2.773 1.643-0.778-5.193-2.295-2.295-0.581 1.916-1.556 7.366 1.53 4.59zm-11.476 0c3.33-1.092 3.518 2.615 5.355 0.765v-5.355c-3.701-0.386-5.666 0.964-5.355 4.59zm36.723 45.139c-9.156-11.246-8.852-31.952-13.006-48.2-1.786 18.169 0.06 40.373 13.006 48.2zm96.399-35.193c3.363-2.015-1.202-4.511 0.765-6.886-3.565 1.72-2.467-5.102-3.825-3.06 1.13 3.203 1.173 7.496 3.06 9.946zm-16.832-2.296c1.201 0.073 2.652-0.102 2.295 1.53 3.379-0.583 6.039-0.179 9.182-2.295-1.857-0.439 0.358-4.95-2.296-4.591-6.023 2.133-5.111 2.907-9.181 5.356zm-116.29 0.765c0.596 0.169 0.89 0.641 0.765 1.53-0.594 0.171-1.509 0.021-1.53 0.765 2.338-0.553 2.788 0.782 4.59 0.765-0.104-2.447 0.754-5.855-2.295-5.355 0.229 1.504-1.033 1.518-1.53 2.295zm9.18 3.061c-2.583-0.311 2.036-2.966-1.53-2.295-0.775 0.764-0.289 4.171 0.765 5.355-0.49-4.57 6.842-1.318 9.946-2.295-1-2.603 1.704-5.339 0-6.121-5.355 1.179-6.532 2.191-9.181 5.356zm123.18 26.777c5.521-1.763-2.31-12.624 4.592-13.006-4.312-7.495-0.014-9.702-4.592-14.536 2.328 8.847 1.002 18.218 0 27.542zm-133.89-20.656c2.327 0.766 0.977 1.261 0 2.295 0.986 1.054 3.323 0.757 5.355 0.765v-5.355c-3.202-0.654-4.163 0.935-5.355 2.295zm13.772 0c1.601 0.917-1.925 3.115-3.061 3.825h9.946c-0.63-1.92 1.487-6.588-1.53-6.121-0.749 1.801-4.415 0.686-5.355 2.296zm107.87 4.59c2.398 1.6-4.934 1.345-0.764 3.06-0.402 1.201-6.83 0.214-3.826 2.295 2.607-0.793 7.274 1.487 13.006 0.765-0.479-2.326 0.979-6.59-0.766-7.651-0.822 2.236-6.823-0.705-7.65 1.531zm-122.41 6.12c2.372-2.812 2.926 2.634 6.121 1.53 1.25-1.474 1.294-6.382-1.53-6.121-1.808 2.437-5.741 1.976-4.591 4.591zm15.302-3.06c-0.456 1.92-0.614 2.562-1.53 5.355 3.259-0.056 5.351-1.28 9.181-0.765-1.007-2.744 0.051-2.803-0.765-5.354-2.519 0.031-3.809 1.291-6.886 0.764zm-2.295 4.591c-1.323-1.053 0.637-3.814-2.295-4.591 0.849 0.996 0.296 7.273 2.295 4.591zm37.488 2.295c0.178-2.023-4.728-2.841-5.355-1.53 1.654 0.64 2.609 1.98 5.355 1.53zm68.856 0.765c3.863 0.34-1.571 1.073-1.528 2.295 0.594 0.171 1.508 0.021 1.528 0.765-0.594 0.171-1.509 0.021-1.528 0.765 5.299-0.08 10.529 0.247 13.006-0.765 0.382-2.407-1.668-2.991 0-4.59-5.299 0.555-7.452 0.872-11.478 1.53zm23.718 20.657c-0.506-6.89 1.015-15.805-0.766-21.422 0.049 6.824-7.259 18.233 0.766 21.422zm-138.48-18.362c-0.313 1.843 1.397 1.663 0.765 3.825 2.915-0.619 2.348 2.242 4.591 2.295 0.071-4.797-0.781-9.333-5.356-6.12zm13.771 0.765c0.11 2.405-1.962 2.628-3.825 3.061-0.171-0.594-0.021-1.509-0.765-1.53-0.897 3.608 4.226 1.664 0.765 3.825 6.892 0.1 7.632-1.975 12.241 0.765-0.434-3.646-1.272-6.889-5.355-6.885-0.143 1.132-1.85 0.7-3.061 0.764zm99.459 5.355c-0.981 2.042-2.057 2.802-2.295 3.826-2.777 0.028-6.039-0.429-6.887 1.53 7.381 2.286 13.826-1.795 20.657-1.53 0.553-2.338-0.782-2.788-0.765-4.59-3.876-0.052-6.335 1.315-10.71 0.764zm-95.633 9.181c1.944-0.352 3.099-1.492 3.825-3.061-0.37 1.5 3.507 2.464 3.825 0.765-0.713-2.118-4.985-6.125-6.886-2.295 4.823 0.39-3.392 1.851-0.765 2.295 0.9 0.12 2.171-0.131 2.295 0.765-1.022-0.117-4.217 1.203-2.294 1.531zm-9.181 0c1-2.363-2.171-4.34-3.06-2.295 1.474 0.311 0.603 2.966 3.06 2.295zm99.459 0c-0.862 3.505 15.716 5.246 16.831 0-6.614-1.117-11.637-0.484-16.831 0zm53.556 9.946c-2.018-1.554 0.6-7.74-2.297-8.416 0.748 2.26-1.022 9.856 2.297 8.416zm-29.839 157.6c-4.104-5.841-4.745-15.147-10.711-19.127 2.187 4.707 7.252 10.589 4.591 17.597 0.23-7.654-6.617-6.244-4.591-13.771-3.767 0.677-3.599-6.562-6.121-4.59 2.904 3.46 5.568 16.362 0 19.126 0.066-4.286 2.05-10.68 0-14.536-2.521 4.621-1.717 12.563-5.354 16.065-1.012-0.008-0.699-1.34-1.529-1.529-6.348 21.021-26.01 31.672-51.26 31.368-2.321-1.759-5.509-2.651-7.651-4.591-25.374-2.935-32.644-23.972-37.488-47.435-0.44 1.345 0.924 4.495-0.765 4.591-1.264-0.013-0.428-2.123-1.53-2.296-1.639 1.675 1.235 4.118-1.53 5.355-0.073-1.202 0.103-2.652-1.53-2.296-0.502 8.479-0.471 14.881 3.06 20.656-9.828-3.285-5.127-15.207-4.59-24.48-6.976 6.624-1.233 23.422-2.295 29.072-6.039-6.262-0.351-17.967-2.295-26.014-0.695 2.111-0.238 5.373-1.53 6.887-2.548-0.241 2.303-3.627-1.53-3.062-3.026 7.437-2.583 17.013 0.765 23.718 2.856-0.306 4.489 0.611 4.59 3.062-2.433-0.117-3.366-1.735-6.121-1.53-12.473-11.754-6.718-40.455 11.476-41.314-0.945-2.476 2.476-0.584 1.53-3.06-26.082 2.149-30.884 42.218-8.416 51.261 2.464 2.125 2.09 7.09 6.121 7.649-0.125-4.481-5.055-8.187-3.825-11.478 5.125 2.017 4.94 9.342 8.416 13.008-0.768 0.002-0.911-0.62-1.53-0.766 0.472 2.078 1.518 3.582 3.06 4.59 0.816-0.713 0.238-2.821 2.295-2.295 0.517 3.076 3.52 7.67 5.355 6.885-4.365-3.029-4.431-10.359-9.181-13.006 1-2.603-1.705-5.338 0-6.119 4.349 9.935 10.951 21.688 17.596 26.776-4.189-7.091-12.169-16.606-10.711-24.481 5.168 7.838 9.905 16.106 15.302 23.717-0.164-7.996-5.626-10.695-7.651-16.831 6.77 3.431 8.75 11.651 10.711 19.892 4.182-0.431 4.353 8.596 8.416 10.711 0.12-0.899-0.131-2.172 0.765-2.295 1.151 1.654 0.852 4.76 3.061 5.355-0.587-7.324-6.157-13.729-4.59-20.657 1.799 2.354 0.454 0.306 3.06 0 0.432 3.649 0.799 7.361 2.295 9.946 1.813-3.03-2.25-5.561 0.765-6.887-0.432 3.492 1.355 4.766 0.765 8.416-1.202 0.072-2.652-0.103-2.295 1.529 1.445 0.086 0.531 2.53 2.295 2.297 1.051-1.744-1.972-2.877 0-3.062 3.33 4.391 1.26 10.387 3.826 14.536 1.651-13.896-0.917-22.145 4.59-32.133 3.187 1.883-1.515 9.156 0.766 12.24-0.656-1.561 1.204-4.216 1.53-2.295-0.435 2.153-3.066 6.063-0.766 8.415 0.089-1.95 0.145-3.936 2.296-3.825-1.205 2.623-1.205 16.959 0 14.537v-4.591c1.041-4.646 0.331-14.042 5.355-16.832-3.419 8.315-4.574 22.966-4.591 32.134 3.39-10.111 1.257-26.332 9.181-33.662-0.215 2.561-3.03 5.508 0 6.885-2.79 5.093-7.236 14.142-4.59 19.893 2.018-13.027 6.658-23.434 13.771-31.367-2.604 8.146-9.846 19.682-8.415 26.776 2.377-5.783 2.363-13.958 7.65-16.831-0.11 0.902-1.362 1.734 0 2.295 1.22-0.564-0.176-3.745 2.295-3.061-0.655 4.988-3.965 10.572-3.825 15.302 4.929-5.019 4.463-15.429 9.181-20.657 0.444 4.271-2.285 5.364-2.295 9.182 6.875-1.031 4.021-11.791 9.182-14.537-0.443 6.195-4.219 13.111-3.825 17.598 5.292-7.094 3.409-17.109 8.416-23.717 0.13 1.145-0.272 2.822 0.765 3.06-0.021-2.569 1.055-4.047 2.295-5.354-0.281 5.803-4.152 16.285-4.59 22.188 7.359-7.941 4.934-25.671 16.831-29.072-2.459 7.235-6.687 16.77-7.649 22.951 0.719-3.359 3.471-4.689 5.354-6.885 2.2-5.706 1.246-14.564 5.354-18.362-0.439 0.464-1.791 3.63 0 3.825 0.943-1.861 0.646-4.965 3.062-5.355-0.042 0.979-0.979 1.061-0.767 2.297 2.776 0.735 0.644-3.438 3.062-3.062 2.015 10.229-9.541 17.449-10.711 24.481 10.569-4.73 10.993-19.609 18.36-27.543-1.727 4.988-5.898 15.408-6.119 16.832 4.965-5.952 9.347-10.336 15.302-13.771 4.661-9.875 6.776-22.296 9.944-33.663 0.777 10.598-0.637 24.285-5.354 30.604 8.877-4.594 10.677-24.621 6.121-35.959 1.263-0.012 0.429-2.121 1.528-2.295 0.088 0.935 0.23 1.812 1.531 1.531-1.75-4.865-0.078-8.158 0-11.478 0.625 2.952 1.392 6.905 1.529 10.711 0.381 10.397-1.02 22.804-0.765 29.073 5.457-7.286 2.649-20.076 3.825-28.309 3.553 1.547-0.129 10.328 2.295 13.006 5.666-12.115-1.969-25.447 0.766-36.724 2.296 1.784-1.471 9.631 3.061 9.181 1.779-1.938-1.33-7.613 0.766-12.24 4.83 11.822-2.846 27.631-0.766 37.488 2.162-7.019 2.522-15.84 6.886-20.656-0.128-2.168-1.402-3.188-1.53-5.355 2.646-20.922-15.089-38.375-6.12-61.971 0.038 10.732 2.276 19.533 6.12 24.482-5.105-8.175 0.285-20.972-0.766-29.074-1.609 3.49-0.653 9.547-3.824 11.476-0.26-10.971 2.811-18.611 6.886-25.248-0.366 2.975-1.669 9.008-0.767 10.711 1.066-0.974 0.334-3.748 2.297-3.825-4.963 21.544 0.697 41.663 6.885 59.674 3.264 1.422 5.277 2.961 8.416 2.295 5.003-1.061 4.008-6.975 6.887-11.476 3.77-5.896 10.493-7.012 12.24-10.711 0.641-5.03 0.172-7.437 2.295-9.946 1.945-0.582 1.283 5.228 3.061 2.294-0.424-2.637-3.516-2.604-3.824-5.354-0.996-11.506-1.284-24.804 2.295-36.723-0.873-2.952-3.297-4.354-3.825-7.651-12.78-3.796-15.498-17.655-20.657-29.073 2.239 11.546-0.336 26.146-1.529 39.784 4.482-5.871 1.529-14.864 6.121-19.892 0.496 9.653-3.998 18.101-3.826 22.952 2.482-5.678 4.886-11.437 7.65-16.832 2.245 4.764-1.43 9.628-2.295 13.771 1.315-0.041 1.961 0.589 2.295 1.53-5.099 4.087-12.603 9.833-13.006 16.066 2.967-5.705 8.417-8.924 13.006-13.006-3.591 5.845-8.933 9.939-13.006 15.302 1.314-0.041 1.961 0.589 2.295 1.53-2.212 0.337-3.486 1.613-3.824 3.825 7.961-3.514 12.608-10.343 22.187-12.241-3.401 7.055-13.913 6.999-16.831 14.536 3.495-2.421 7.04-4.125 11.477-3.06-3.188 0.3-4.197 3.622-7.65 1.53-1.75 6.156-7.471 8.341-11.477 12.241 1.914-0.095 2.396-1.46 3.061 0.766h-1.53c2.505 1.491 5.829-4.112 9.946-6.122 5.896-2.877 13.605-4.338 16.831-6.885-1.597 5.552-13.001 5.35-12.24 10.711 2.597-2.264 9.241-4.51 11.476-4.59-5.822 6.929-16.219 9.283-21.422 16.831 3.353-0.557-0.615 1.521 1.53 1.53 1.427-2.168 5.638-5.552 8.416-3.825-3.209 2.912-7.821 4.419-11.478 6.887 1.213 1.592 6.074-0.465 5.355 3.061-2.124-0.719-5.006-2.311-6.119 0 3.047 0.6 5.334 3.14 6.885 3.06-1.111 1.185-2.983 1.606-5.354 1.53-0.169-0.596-0.642-0.891-1.53-0.766-17.201-29.461 7.256-62.134-0.766-95.633 0.609-1.43 1.277-2.802 1.529-4.591-8.227 3.306-11.611 8.304-11.476 18.362 0.114 8.405 1.343 17.404-4.591 22.952-1.455-2.115-0.333-6.807-3.061-7.651-0.125 1.649-3.09 6.925-1.529 5.355 1.552-0.488 0.503-3.576 2.295-3.825 0.036 4.372-0.699 7.972-3.061 9.946-0.356-3.521 0.152-3.161-2.295-4.59 0.957-3.888 2.616-7.073 3.824-10.711-2.845 1.057-3.581 3.473-5.355 3.061 1.787-4.917 3.584-9.32 3.826-13.771-4.312 0.969-2.754 14.497-6.887 10.711-1.023 3.311-1.66 7.01-3.824 9.181 1.518-11.052 10.437-19.061 6.119-31.368-0.104 7.268-4.88 13.162-5.355 17.597-0.039-8.534 5.281-21.388 0-29.838 3.357 15.354-7.41 26.567-8.414 37.489 0.225-0.68 2.07-3.35 2.295-1.53-2.319 5.535-1.857 6.101-5.355 9.181 1.955 0.825 2.678-3.293 3.825-0.765-2.655 5.76-7.651 9.18-11.476 13.771 10.027-1.193 11.643-10.799 16.066-17.597 1.414 6.631-0.367 10.319-1.531 16.066 3.863 1.595 10.013 6.792 3.826 12.241-6.892 0.771-10.459-1.782-16.066-2.295 2.469 5.328 12.314 5.997 17.597 6.121 0.082 6.616-8.804-0.438-10.711 3.826 2.791 1.832 6.668 0.106 8.416 1.53-2.862 2.714-9.036-0.089-9.183 3.826 2.572-0.085 4.049-1.53 5.355 0.765-2.691 0.495-1.188 8.651-6.885 6.886-2.521 5.64-8.172 8.15-13.007 11.478 1.103 1.692 1.866-0.964 2.296 0.765-0.835 1.717-3.756 1.346-4.592 3.061 15.125 0.076 18.777-15.394 29.072-17.596-3.881 8.612-11.863 13.127-19.892 17.596 6.28 1.838 13.028-6.271 17.597-6.12-2.138 3.981-7.391 4.851-11.476 6.886 1.254 2.484 0.413 4.852-3.062 4.591 0.226-1.561 2.07-1.5 2.295-3.061-9.037 3.896-19.051-4.794-25.246 0.765 0.594 0.172 1.509 0.021 1.529 0.766-1.365 0.004-4.451-2.061-5.354 0 0.516-0.305 2.673 0.422 2.295 0.766-6.728 6.098-16.614-6.882-22.952-6.12 1.812 6.579 14.456 17.581 25.247 9.944-1.149-1.48-3.222 1.339-3.825-1.528 8.251-1.926 17.096 1.365 25.247-0.767-4.536 7.195-22.037 1.426-26.012 9.182 4.483 0.009 2.146 1.512 0.765 3.061 3.312 0.258 8.016-0.873 9.182 1.53-1.433 0.863-3.687 0.904-3.061 3.825 10.059 3.204 17.296 9.227 19.893 19.893-4.793-0.576-6.658-8.119-10.711-6.887 1.797 1.773 4.633 2.508 4.59 6.121-3.178-1.43-4.524-8.715-9.182-6.121 6.057 4.148 12.7 11.777 10.711 21.422-2.293-1.531-0.263-7.387-3.824-7.65-1.928 2.222 4.79 6.369 1.524 9.941zm-45.139 55.085c-0.138-2.281 2.94-4.683 0-5.354-0.492 1.653-2.866 4.757 0 5.354zm-125.49-198.16c-3.62-9.037-6.796-17.406-16.066-19.126-3.396 6.039-5.564 13.308-7.651 20.657-6.659 4.562-11.999 10.443-19.892 13.771 0.649 4.542 5.639 15.817 0 19.126 3.643 7.143-1.073 17.993-0.765 24.482 11.909 9.257 10.822 31.511 26.012 37.488 2.181-1.898 3.843-4.316 5.355-6.885 0.691 1.333 1.711 2.945 3.06 1.529 16.152-17.608 20.306-65.175 9.947-91.042zm38.254 28.308c-9.97-14.512-22.431-26.534-29.838-43.609 0.574 2.487 1.385 4.735 2.295 6.886-1.333 0.058-2.379-0.171-3.061-0.765 4.689 5.512 3.989 16.414 10.711 19.892-0.086-2.719-2.83-2.781-2.295-6.12 4.727 5.732 12.017 12.97 13.771 19.126-3.817-4.089-5.959-9.853-11.476-12.241-1.868 2.251 2.771 2.895 2.295 6.121-1.56-0.225-1.5-2.07-3.06-2.295 0.455 3.138 5.341 5.848 3.825 8.416-6.584-5.147-7.436-16.027-13.006-22.187 5.689 14.204 11.118 32.745 23.717 37.488-2.405-3.216-8.651-6.635-7.651-10.711 2.021 1.32 4.509 6.167 6.886 4.59-3.577-4.838-8.562-8.27-9.946-15.301 5.317 5.143 9.734 15.253 16.832 16.066-2.164-1.682-6.313-5.39-4.59-8.416 1.854 0.238 3.384 4.708 4.591 3.06zm169.84-15.301c1.491-1.798 2.479-11.487 0.767-11.476 0.746 5.47-1.912 7.582-0.767 11.476zm-193.56 13.006c-2.058 0.212-1.882-5.687-3.825-3.061 2.482 3.38 4.812 8.753 2.295 13.006 3.996 4.95 7.43 12.39 10.711 18.362 1.376 2.504 3.716 6.885 6.886 6.12-3.522-2.608-6.357-9.951-6.121-13.771 2.484 1.086 1.491 5.65 5.355 5.355-0.676-3.17-5.443-6.26-3.825-9.181 2.117 1.708 2.849 4.802 5.355 6.121-3.571-12.496-14.043-18.09-18.362-29.838-0.383 3.19 2.237 3.376 1.531 6.887zm26.012 0.765c4.017 1.353 10.69 4.086 15.302 2.295-2.199 0.159-3.887-0.194-4.59-1.53 2.777-0.028 6.04 0.429 6.885-1.53-6.98-1.081-17.475-0.107-22.187-5.355-1.031 5.001 9.736 4.439 13.771 6.885-3.789 1.183-9.989-2.335-9.181-0.765zm30.603 6.12c-2.521-3.854-7.279-5.472-12.241-6.885 3.713 2.663 8.62 4.131 12.241 6.885zm7.65 10.712c-8.344-6.759-23.323-12.805-32.898-6.121 3.479 0.418 5.728-0.394 6.886-2.295 14.269 3.074 25.275 13.486 32.133 21.422-0.389-2.41-6.255-9.005-3.06-7.65-0.296-3.624-3.11-3.03-4.59-3.826 0.933-0.087 1.811-0.229 1.529-1.53zm91.044-0.765c-0.891-2.181 5.879-2.196 1.529-3.061-19.869 1.809-43.547 3.887-42.844 23.717 4.667-15.992 23.86-17.454 41.315-20.656zm-41.314 8.415c0.021-6.609 7.562-5.699 9.182-10.711-4.805 1.327-10.714 5.598-9.182 10.711zm-97.164 16.832c-9.267-5.017-9.527-23.113-19.126-25.247 1.23 0.308-0.029 4.489-0.765 5.355-1.826-1.234 0.62-6.741-2.295-6.886-0.665 8.574-0.833 18.993-1.53 26.012 3.958-5.549 2.178-13.662 4.591-17.597 2.648 4.265-2.058 15.394 0.765 19.127 0.938-2.256-0.196-6.146 2.295-8.416 0.704 6.42-1.532 14.177-3.06 20.657-3.178 0.372-1.2-4.411-3.826-4.591-2.03 12.251-6.353 22.21-9.181 33.663-0.463-1.577 1.234-5.314-1.53-4.59-0.781 15.599 2.63 24.549 8.416 32.133-2.272-7.043-9.594-16.748-4.591-26.014 0.751 4.467 0.056 10.629 3.061 14.536-2.43-13.514-1.235-29.491 6.121-39.019-0.8 6.094-5.199 12.643-3.825 18.361 0.009-0.771 1.341-0.963 1.53 0-1.328 5.646 1.562 11.68 5.355 14.537-0.849 2.45-2.198 9.086 2.295 8.416 1.388-7.544 6.167-15.76 9.946-18.363-0.385 9.164-12.181 17.562-4.59 25.248 2.305-13.196 9.91-27.176 26.012-29.072 0.264-4.838 1.398-8.803 4.59-10.711-1.973 3.373-1.771 8.719 2.295 11.476 1.049-3.089-1.372-2.708-2.295-3.825 0.941-3.279 0.607-8.022 2.295-12.24-1.43-2.924-9.293-3.437-8.416-6.121 1.918 0.422 5.039 3.574 6.121 2.296-1.895-2.44-6.422-2.248-7.65-5.355 3.806-0.212 6.298 4.892 9.181 3.062-6.683-2.248-13.354-8.571-20.657-7.65 2.621 1.225 9.663 2.04 8.416 4.59-7.232-3.479-15.358-6.062-22.187-9.945 0.298-1.998 0.393-4.197 1.53-5.355 0.593 3.506 4.754 7.461 7.651 6.121-2.993-2.426-9.882-7.159-6.121-11.477 2.266 2.591 5.68 8.069 9.179 6.884zm6.121-26.013c8.273 0.461 14.83 6.506 22.952 4.59 9.454 2.788 12.37 12.112 20.657 16.066-1.368-18.153-23.795-21.743-43.609-20.656zm13.771 18.362c-0.716-5.562 3.102-6.588 4.59-9.946-5.931-0.7-10.557-2.705-14.537-5.355 2.95 5.467 4.796 12.036 9.947 15.301zm103.28-10.711c-0.576 2.667 1.662 6.944 3.062 9.946 2.347-2.631 8.226-9.447 5.354-12.241-1.125 2.445-6.207 0.934-8.416 2.295zm-114.76 5.355h-2.295c1.13 6.931 2.266 15.317 9.946 17.597 2.691 8.265 25.019 9.937 29.838 2.295-11.634 1.949-23.238 2.411-29.073-6.12 0.9-0.119 2.172 0.131 2.295-0.765-3.012-2.854-6.676-5.056-8.416-9.181 1.092 0.183 1.291 1.26 2.295 1.53-1.779-4.597-3.691-9.06-6.886-12.241 0.062 2.999 1.349 4.772 2.296 6.885zm88.748 19.127c2.371 4.77 11.012 3.271 14.536 6.886 13.619 1.241 32.183-12.578 27.543-26.777-3.345 16.825-21.435 25.248-42.079 19.891zm25.247-5.355c5.06-2.854 13.337-6.547 11.478-13.771-2.694 5.723-7.202 9.631-11.478 13.771zm55.85 10.711c-0.312-8.867-2.916-15.445-5.355-22.187 0.379 8.802 2.666 15.695 5.355 22.187zm-142.3-9.946c3.305-0.957 9.25-0.799 11.476-3.062-4.503-0.597-4.237-5.963-7.65-7.65 0.985 5.339-4.644 8.086-3.826 10.712zm62.735-1.53c3.7-1.699 7.712 1.069 12.241-0.765-3.811-0.781-4.102-5.08-6.887-6.887-2.064 2.27-3.718 4.952-5.354 7.652zm-125.47 14.536c0.333-4.781 6.557-7.709 3.825-13.006 0.13 5.245-5.63 8.634-3.825 13.006zm32.133-9.179c-0.81-1.779-4.993-4.139-6.121-3.062 2.379 0.681 3.564 2.556 6.121 3.062zm23.717 0.763c6.765 1.437 15.551 0.314 21.422-3.062-4.549-2.404-15.205 2.063-21.422 3.062zm79.567-3.825c-3.115 0.81-3.625-0.215-7.651 0 0.702 2.812 7.274 3.192 7.651 0zm-74.212 38.253c4.095-1.596 3.838-1.092 7.65-1.53 3.519-1.989-0.882-3.571-0.765-4.59 0.073-0.632 2.492-0.494 2.295 0 0.673-1.69-0.501-4.603 0-6.886 1.299-5.916 6.903-8.915 10.711-11.477-0.484-2.576 0.986-7.105-0.765-8.416-5.404 5.562-11.272 10.66-23.717 9.182-0.341 2.891 3.997 1.103 4.59 3.061-1.9-0.115-3.175 0.396-3.825 1.53 1.202 0.071 2.652-0.103 2.295 1.528-1.145 0.132-2.823-0.271-3.06 0.767 2.027 1.613 0.495 8.831 0.765 11.476 1.897 0.994 3.712-1.707 3.825 0 0.736 3.664-3.438-0.398-3.061 1.53 3.09 1.448 2.398 1.013 3.062 3.825zm81.098-9.945c-4.362-5.839-14.479-5.923-16.832-13.771h-2.295c2.866 7.052 10.23 20.204 19.127 13.771zm-68.856-3.824c-2.818 13.066 8.196 12.752 13.771 19.892 1.211 1.551 1.345 3.912 2.295 5.354 3.938 5.983 9.143 7.659 13.006 8.416 5.497-3.175 8.564-8.776 11.477-14.537 5.086-2.819 10.908-4.902 13.771-9.944 0.814-7.126-1.245-12.416-6.885-11.478 7.227 5.78 0.229 16.786-6.887 17.598-5.351 5.582-7.459 17.736-19.126 14.535-2.463-3.395-1.921-8.817-6.121-13.771-4.586-5.408-11.1-5.024-11.476-11.478-0.341-5.856 4.831-7.74 8.416-12.24-5.49-4.412-11.471 4.076-12.241 7.653zm-22.187 3.058c2.558-1.268 2.506-5.145 3.06-8.415-1.092-0.185-1.291-1.261-2.295-1.53 0.234 3.804-0.122 7.019-0.765 9.945zm-57.381 6.886c0.659-3.827 4.97-11.653 2.295-13.771 0.317 5.176-3.997 9.754-2.295 13.771zm-6.886-6.886c-1.718 12.822-0.415 26.029 6.121 34.429 0.831 0.298 1.837 0.918 0.765 0-5.713-10.33-4.373-24.798-4.59-37.487 0.129 1.914-1.175 2.393-2.296 3.058zm-6.885 3.061c-1.725 0.569-0.299 4.291-0.765 6.12-1.4 4.271-17.774 45.034 0 37.489 3.376-15.354 5.427-32.518 0.765-46.67v1.529c-0.078 0.86 1.112 1.193 0 1.532zm244.06 53.554c6.83-11.053-1.602-22.575-3.825-33.663-1.027-5.12 1.271-11.458-3.826-14.536 4.133 11.001-9.592 41.986 7.651 48.199zm-29.838-7.65c8.485-7.225 18.373-23.9 13.006-37.488 0.03 16.352-8.674 28.048-13.006 37.488zm-117.06-29.072c-1.708-0.261-4.791-5.82-3.825-3.826 0.091 2 2.254 5.837 3.825 3.826zm47.434 1.529c2.312-1.785 8.771-3.443 7.65-6.12-1.219 2.879-8.691 3.524-7.65 6.12zm-68.091-5.355c1.57 5.57 4.341 9.94 10.711 10.711-0.724-2.847-5.02-2.121-5.355-5.354 0.9-0.119 2.171 0.132 2.295-0.765-3.468 0.662-1.789-3.821-4.59-3.825-1.273 2.403 2.845 3.126 0.765 3.825-1.838-0.969-1.047-4.566-3.826-4.592zm26.012 8.416c-6.13 0.801-8.034-5.222-12.241-8.416 1.491 4.894 6.12 10.701 12.241 8.416zm70.387-6.886c2.709-0.413 1.881 2.71 4.59 2.296-0.47-1.895-3.396-5.723-4.59-2.296zm-132.36 41.314c-3.7-7.271-14.209-11.8-13.006-21.423 1.779 2.32 3.184 9.031 6.12 7.65-6.378-5.863-6.381-18.102-12.241-24.482 1.119 18.009 7.299 30.955 19.127 38.255zm52.79-18.362c12.357 4.798 33.677 5.264 45.904 0 1.15-2.15-0.535-4.249 1.53-7.65 1.426-0.063 4.19 1.504 6.885 2.295 5.938-3.24 10.04-8.321 13.007-14.535-9.98 2.771-17.476 8.027-25.246 13.006-14.033-0.475-25.963 0.312-37.49 3.824-0.834-1.971-1.934-3.676-3.826-4.59-8.144 5.924-15.858-8.634-23.717-7.649 5.907 4.039 9.54 10.353 17.597 12.239 1.124-1.881 7.678-2.767 7.65 0.767m59.676-2.297c1.117-2.729 6.148-5.555 4.59-8.416-0.16 3.658-8.117 5.967-4.59 8.416zm-71.152 4.59c-1.371-4.494-6.776-4.955-9.181-8.416 2.004 3.863 4.573 7.159 9.181 8.416zm57.381 15.303c12.863-1.535 9.455-13.508 3.061-19.893-2.907 4.628 3.206 15.251-3.061 19.893zm14.536-4.592c-1.597-1.747-3.692 1.536-4.59 2.296-19.788 16.747-65.067 15.099-75.742-8.416 7.418 32.469 65.695 31.983 80.332 6.12zm-22.187-1.529c0.434 2.371-0.209 5.817 2.295 6.121 2.922-2.355-1.866-7.91 2.295-10.712-12.266 4.095-32.375 1.578-43.609 0.765 10.168 5.048 25.457 6.303 39.019 3.826zm-39.019 0.764c0.497 2.907 0.858 2.903 0 6.12 2.645-0.562 8.158 5.529 10.711 0 0.174 1.355-0.771 3.832 1.53 3.061 1.562-2.395-0.127-4.531 0-6.886-2.338 0.553-2.788-0.782-4.59-0.765-0.71 2.312 1.093 5.949 0 6.119-1.744 0.215-2.876-0.185-3.061-1.529-0.313-1.844 1.397-1.663 0.765-3.825-1.785 0.231-3.296 1.633-3.825-0.765 1.137-2.131 3.418 1.615 3.06-1.53-2.645 0.62-3.229-1.428-4.59 0zm31.368 8.416c3.075 0.269 5.599-0.013 6.121-2.296-2.017 0.229-2.511-1.061-2.295-3.061-1.275 0-2.552-0.001-3.826 0v5.357zm-16.066 0.765c1.533 0.312 5.675 1.895 6.886 0-3.049 0.499-2.191-2.908-2.295-5.355-2.441-0.453-2.366 1.437-3.825 0-0.009 2.033 0.288 4.369-0.766 5.355zm9.946 1.53c2.033-0.517 3.896-1.205 5.355-2.295-3.252 0.7-3.269-1.835-3.062-4.591h-3.825c-0.389 3.198 0.428 5.184 1.532 6.886zm-5.356 45.139c-2.744-2.61-0.185-10.526-3.061-13.006 0.118 4.742-0.235 13.988 3.061 13.006zm17.597-5.357c2.093 0.002 2.979-5.112 1.53-6.119 0.205 2.755-1.414 3.687-1.53 6.119zm3.825 10.711c1.793-3.826 7.566-7.719 6.119-12.24-0.521 5.1-6.386 8.899-6.119 12.24zm0-4.59c1.445-1.869 2.923-3.707 3.824-6.121-2.141 0.698-4.565 5.08-3.824 6.121zm-29.072 6.122c-0.379-3.836-0.08-8.928-1.53-9.944 0.321 3.502-0.986 8.634 1.53 9.944zm19.893 3.825c1.118-3.233 5.459-7.269 3.824-10.711-0.818 3.184-5.068 10.502-3.824 10.711zm-11.478 0.764c-0.432-2.771 2.271-6.342 0-8.416 1.089 3.429-2.063 6.549 0 8.416z"/><path id="path219" d="m33.157 206.13c-0.751-1.034-2.041-1.528-3.06-2.295 1.702-7.989 5.763-13.619 7.65-21.422-2.86-0.039-5.255 6.973-8.416 9.181 0.838-2.49 4.499-8.752 8.416-10.711v-4.59c-6.606 0.234-10.784 8.954-19.126 9.945 6.438-7.332 17.361-10.18 20.657-20.656-2.335-0.041-1.835 2.755-4.59 2.295-0.421-1.696 1.461-1.089 1.53-2.295-5.946 4-12.458 7.434-19.127 10.711-0.732-3.553 7.911-4.318 9.181-8.416-2.881-1.652-3.239 1.198-6.12 1.53 1.257-2.761 6.021-5.996 8.416-3.06 1.6-0.95 2.875-2.225 3.825-3.825-0.65-2.245-1.925 0.995-3.825 0 1.367-3.224 6.465-2.716 8.416-5.355-6.251-0.774-17.552-2.055-21.422-7.651 2.329-0.034 2.975 1.615 4.591 2.295-1.86-3.718-4.728-4.218-3.826-9.181 2.382-0.358 2.735 1.924 1.53 3.061 7.991 0.935 10.793 7.058 19.126 7.65-4.274-6.691-8.692-13.24-14.536-18.361 8.73 0.705 11.34 7.531 17.597 10.711 1.601-6.6-11.481-14.033-12.241-20.657 3.599 0.992 3.742 5.438 6.886 6.886 0.922-2.982-4.71-5.985-5.355-9.946 7.211 2.224 8.799 10.073 13.006 15.301 2.367-12.061-6.501-19.508-6.885-31.368 6.38 10.706 13.928 20.245 13.006 38.253 2.917-4.18 4.266-8.754 3.061-15.301 4.038 19.367 1.047 48.091-6.121 63.5-0.74-5.595 3.58-12.734 4.59-19.126-0.184-1.346-1.316-1.744-3.06-1.53 1.87-3.485 2.214-8.497 3.06-13.006-4.21 16.056-11.824 32.389-17.597 44.374 4.327 0.758 4.246-2.895 6.886-3.824 0.021 1.323-3.662 5.498-6.123 6.883zm5.355-49.73c2.809 0.003 2.932-2.679 4.59-3.825-0.59-1.96-0.763-4.337-2.295-5.356 0.774 4.599-2.144 5.508-2.295 9.181zm-1.53 18.362c3.329 0.523 4.235-1.376 5.355-3.06-1.504 0.229-1.517-1.033-2.295-1.53-0.943 1.607-2.117 2.982-3.06 4.59z"/><path id="path263" d="m166.61 319.8c1.635 3.442-2.706 7.478-3.824 10.711-1.244-0.209 3.006-7.527 3.824-10.711z" fill="#ee3224"/><path id="path265" d="m151.31 322.86c2.271 2.074-0.432 5.646 0 8.416-2.063-1.867 1.089-4.987 0-8.416z" fill="#ee3224"/></svg>
