<?xml version="1.0" encoding="UTF-8" standalone="no"?>
<svg id="svg3430" xmlns:rdf="http://www.w3.org/1999/02/22-rdf-syntax-ns#" xmlns="http://www.w3.org/2000/svg" height="172" width="200" version="1.0" preserveAspectRatio="xMidYMid meet" xmlns:cc="http://creativecommons.org/ns#" xmlns:dc="http://purl.org/dc/elements/1.1/" viewBox="0 0 160 137.6">
 <g id="g3534" transform="translate(-1.8282 3.0469)">
  <path id="path3532" d="m2.7422 132.42 78.916-135.59 79.832 135.59z" fill-rule="evenodd" stroke="#000" stroke-width="0.8px" fill="#fff"/>
  <g id="g3503" transform="translate(1.8282 -3.0469)">
   <path id="path3436" d="m78.51 0.080653c-0.36488 0.2838-0.66895 0.58786-0.66895 0.68922s-0.26352 0.58786-0.60813 1.0744c-0.32434 0.50678-0.60813 0.97301-0.60813 1.0338 0 0.081084-0.24325 0.50678-0.54732 0.99329-0.85139 1.2974-1.0338 1.6217-1.2568 2.1285-0.12163 0.24325-0.56759 0.97301-0.97302 1.6217-0.42569 0.62841-0.97301 1.5609-1.2365 2.0677-0.50678 0.99329-0.66895 1.2771-1.5001 2.5947-0.32434 0.48651-0.56759 0.95274-0.56759 1.0338 0 0.10136-0.1419 0.2838-0.30407 0.42569-0.16217 0.1419-0.30407 0.36488-0.30407 0.52705 0 0.1419-0.38515 0.83112-0.85139 1.5406-0.93247 1.3784-1.0338 1.5406-1.8852 3.2028-0.32434 0.60813-0.79057 1.3987-1.0541 1.7636-0.24325 0.34461-0.46624 0.72976-0.46624 0.83112s-0.1419 0.30407-0.30407 0.44596c-0.16217 0.1419-0.30407 0.38515-0.30407 0.54732s-0.26352 0.64868-0.60813 1.0744c-0.32434 0.42569-0.60813 0.81085-0.60813 0.89193 0 0.06081-0.40542 0.79057-0.9122 1.6014-0.50678 0.83112-0.9122 1.6014-0.9122 1.7028 0 0.12163-0.26352 0.56759-0.56759 0.99329-0.32434 0.44596-0.89193 1.3582-1.2568 2.0068-0.36488 0.66895-0.79057 1.3582-0.93247 1.5406-0.16217 0.16217-0.2838 0.38515-0.2838 0.48651s-0.40542 0.81085-0.89193 1.6014c-0.46624 0.79057-0.93247 1.5811-1.0136 1.7433-0.06081 0.16217-0.30407 0.56759-0.50678 0.9122-0.22298 0.32434-0.58786 0.97301-0.83112 1.419-0.24325 0.44596-0.70949 1.196-1.0338 1.6825-0.32434 0.48651-0.58786 0.97301-0.58786 1.0946 0 0.12163-0.12163 0.38515-0.2838 0.54732-0.30407 0.36488-2.7569 4.4394-2.7569 4.6015 0 0.04054-0.40542 0.7703-0.9122 1.5811-0.50678 0.83112-0.9122 1.5609-0.9122 1.642 0 0.06081-0.22298 0.42569-0.48651 0.7703-0.26352 0.36488-0.75003 1.1352-1.0541 1.723-0.32434 0.58786-0.68922 1.2365-0.79057 1.419-0.20271 0.34461-0.97302 1.6014-1.4595 2.3717-0.1419 0.22298-0.44596 0.81084-0.70949 1.3176-0.24325 0.50678-0.64868 1.1757-0.89193 1.5203-0.24325 0.32434-0.64868 1.0136-0.93247 1.5203-0.26352 0.50678-0.75003 1.3176-1.0744 1.8244-0.68922 1.0541-1.3176 2.169-1.9663 3.4461-0.24325 0.50678-0.68922 1.2365-0.97302 1.6217-0.2838 0.38515-0.72976 1.1149-0.97301 1.6217-0.26352 0.50678-0.83112 1.5001-1.2974 2.2298-0.46624 0.72976-1.1352 1.8852-1.5001 2.5744-0.36488 0.68922-0.83112 1.5203-1.0541 1.8244-0.20271 0.30407-0.60813 0.97301-0.87166 1.4798-0.2838 0.50678-0.72976 1.2771-1.0136 1.723-0.30407 0.44596-0.58786 1.0136-0.66895 1.2568-0.08108 0.26352-0.22298 0.46624-0.32434 0.46624-0.08109 0-0.20271 0.16217-0.2838 0.34461-0.06081 0.20271-0.22298 0.54732-0.36488 0.7703-0.30407 0.44596-1.1555 1.8447-1.5001 2.4325-0.1419 0.22298-0.44596 0.81084-0.70949 1.3176-0.26352 0.50678-0.72976 1.2974-1.0338 1.7433-0.30407 0.46624-0.56759 0.9122-0.56759 0.97301 0 0.08108-0.40542 0.7703-0.93247 1.5609-0.50678 0.7703-1.2163 1.9663-1.5811 2.6758-0.36488 0.68922-0.89193 1.642-1.196 2.1285-0.30407 0.46624-0.75003 1.196-0.97302 1.6217-0.22298 0.40542-0.58786 1.0136-0.81084 1.3582-0.20271 0.32434-0.46624 0.83112-0.58786 1.0946-0.12163 0.26352-0.42569 0.7703-0.66895 1.1149-0.48651 0.66895-0.85139 1.2568-1.0946 1.7433-0.08109 0.16217-0.52705 0.97301-1.0136 1.7839-0.48651 0.81084-0.87166 1.5001-0.87166 1.5609 0 0.0405-0.24325 0.4257-0.52705 0.85139s-0.60813 0.95274-0.70949 1.1757c-0.10136 0.22298-0.36488 0.66894-0.58786 1.0136-0.22298 0.32434-0.46624 0.75003-0.52705 0.9122-0.08108 0.16217-0.26352 0.44597-0.38515 0.60814-0.22298 0.26352-0.6284 0.97301-2.0068 3.5272-0.12163 0.24326-0.46624 0.79058-0.75003 1.2365-0.2838 0.44597-0.58786 0.95275-0.64868 1.1149-0.08108 0.16217-0.32434 0.5676-0.54732 0.91221-0.22298 0.32433-0.48651 0.79057-0.60813 1.0136-0.12163 0.22298-0.38515 0.66895-0.60813 1.0136-0.22298 0.32434-0.6284 1.0541-0.93247 1.6217-0.60813 1.196-0.81085 1.5406-1.5609 2.6758-0.30407 0.48651-0.54732 0.95274-0.54732 1.0338 0 0.10135-0.24325 0.54732-0.56759 0.97301-0.30407 0.42569-0.7703 1.196-1.0338 1.7028-0.26352 0.50678-0.68922 1.1757-0.93247 1.5203-0.24325 0.32434-0.50678 0.75003-0.56759 0.9122-0.081084 0.16217-0.36488 0.66895-0.60813 1.1149-1.642 2.8177-2.3717 4.3583-2.3717 5.007 0 0.99329 0.95274 2.2501 2.0068 2.6758 0.7703 0.30407 6.7908 0.32434 78.145 0.32434 74.415 0 77.334-0.0203 78.145-0.36488 1.196-0.54732 1.7028-1.2771 1.7028-2.5339 0-1.1149-0.26352-1.7433-1.8041-4.3178-0.46624-0.77031-1.0946-1.865-1.3987-2.4123-0.32434-0.56759-0.81084-1.3784-1.0946-1.8244-0.50678-0.81084-0.64867-1.0541-1.8447-3.2434-0.36488-0.66895-0.79058-1.3582-0.93247-1.5406-0.16217-0.16217-0.2838-0.38515-0.2838-0.44596 0-0.0811-0.34461-0.70949-0.7703-1.3987-0.4257-0.70949-1.1352-1.9258-1.5609-2.6961-0.42569-0.79057-0.99328-1.7839-1.2974-2.2298-0.50678-0.81085-0.62841-1.0338-1.8447-3.2434-0.36488-0.66895-0.75004-1.3379-0.87166-1.5001-0.26353-0.30407-0.58787-0.87166-1.0338-1.7433-0.42569-0.83111-1.1352-2.0676-1.8041-3.1015-0.30407-0.46623-0.75003-1.196-0.97302-1.6217-0.22298-0.40542-0.58786-1.0338-0.81084-1.3582-0.20271-0.34461-0.46624-0.79058-0.58786-1.0136-0.12163-0.22298-0.40543-0.72976-0.64868-1.1149-0.22298-0.38515-0.6284-1.0744-0.85139-1.5203-0.24325-0.44596-0.66894-1.1757-0.95274-1.6217-0.2838-0.44596-0.58786-0.95274-0.64868-1.1149-0.0811-0.16217-0.32433-0.58786-0.54732-0.9122-0.22298-0.34461-0.46623-0.75003-0.54732-0.9122-0.0811-0.16217-0.4865-0.89193-0.93247-1.6014-0.42569-0.70949-0.87166-1.5001-0.97301-1.723-0.10136-0.24325-0.36488-0.70949-0.58787-1.0338-0.22298-0.34461-0.4865-0.79057-0.58786-1.0136-0.10135-0.22298-0.42569-0.75003-0.70949-1.1757-0.28379-0.42569-0.52705-0.81084-0.52705-0.85139 0-0.06081-0.38515-0.75003-0.87166-1.5609-0.4865-0.81085-0.93247-1.6217-1.0136-1.7839-0.0811-0.16217-0.32434-0.58786-0.54732-0.9122-0.40543-0.6284-0.62841-1.0338-1.4595-2.5339-0.26352-0.50678-0.72976-1.2771-1.0136-1.723-0.72976-1.1757-1.5001-2.4933-2.0271-3.5474-0.24326-0.50678-0.54733-1.0541-0.68922-1.2163-0.12163-0.16217-0.52705-0.85139-0.89193-1.5203-0.36488-0.66895-0.79058-1.3582-0.93247-1.5406-0.16217-0.16217-0.2838-0.38515-0.2838-0.46624s-0.81085-1.4798-1.7839-3.1218c-0.99329-1.642-1.8649-3.1218-1.9258-3.2839-0.0811-0.16217-0.32434-0.58786-0.54732-0.9122-0.22298-0.34461-0.46623-0.75003-0.54732-0.9122-0.0811-0.16217-0.64867-1.1757-1.2771-2.2298-0.6284-1.0541-1.196-2.0677-1.2771-2.2298-0.0811-0.16217-0.32434-0.58786-0.54732-0.9122-0.22298-0.34461-0.46624-0.75003-0.54732-0.9122-0.0608-0.16217-0.52705-0.95274-1.0136-1.7636-0.48651-0.79057-0.87166-1.5001-0.87166-1.5609 0-0.06081-0.26352-0.50678-0.60813-0.99328-0.32434-0.50678-0.60813-0.97301-0.60813-1.0338 0-0.08108-0.24326-0.50678-0.54733-0.99328-0.30406-0.46624-0.75003-1.2163-0.97301-1.6622-0.22298-0.44596-0.64868-1.1757-0.93247-1.6217-0.2838-0.44596-0.58786-0.95274-0.64868-1.1149-0.0811-0.16217-0.32434-0.58786-0.54732-0.9122-0.22298-0.34461-0.50678-0.83112-0.6284-1.1149-0.10136-0.2838-0.4257-0.79057-0.70949-1.1555-0.26353-0.34461-0.48651-0.68922-0.48651-0.75003 0-0.10136-1.4798-2.7163-2.0271-3.5677-0.10136-0.16217-0.38515-0.70949-0.62841-1.2163-0.26352-0.50678-0.72976-1.2771-1.0338-1.7028-0.30406-0.42569-0.56759-0.87166-0.56759-0.99328 0-0.10136-0.26352-0.58786-0.60813-1.0946-0.32434-0.48651-0.60813-0.93247-0.60813-1.0136 0-0.06081-0.26353-0.48651-0.5676-0.95274-0.30407-0.44596-0.7703-1.2365-1.0338-1.7433-0.24325-0.50678-0.6284-1.196-0.83112-1.5203-0.22298-0.34461-0.66895-1.1149-1.0136-1.723-1.2568-2.2501-1.5811-2.8177-1.9663-3.3853-0.22298-0.30407-0.60813-0.97301-0.85139-1.4798-0.26352-0.50678-0.72976-1.2974-1.0541-1.7839-0.32434-0.48651-0.58786-0.9122-0.58786-0.99328 0-0.06081-0.26352-0.50678-0.60813-1.0136-0.32434-0.48651-0.60813-0.93247-0.60813-0.99329 0-0.04054-0.42569-0.79057-0.93247-1.6622-0.99329-1.7028-1.1352-1.946-1.7839-3.1826-0.246-0.4463-0.692-1.1761-0.997-1.622-0.304-0.446-0.547-0.892-0.547-0.973 0-0.10136-0.26352-0.58786-0.60813-1.0946-0.32434-0.48651-0.60813-0.97301-0.60813-1.0541 0-0.081085-0.26352-0.52705-0.56759-0.95274s-0.75003-1.1555-0.97301-1.6014c-1.2771-2.5744-2.392-3.5474-4.034-3.5474-0.7703 0-1.1555 0.12163-1.6622 0.52705zm2.4325 2.8582c0.50678 1.0338 1.3784 2.5947 1.7839 3.2028 0.20271 0.32434 0.44596 0.75003 0.52705 0.9122 0.16217 0.36488 2.392 4.2164 2.6961 4.6624 0.12163 0.16217 0.30407 0.48651 0.40542 0.70949 0.12163 0.22298 0.38515 0.66895 0.60813 1.0136 0.22298 0.32434 0.46624 0.75003 0.54732 0.9122s0.64868 1.1757 1.2771 2.2298c0.6284 1.0541 1.196 2.0677 1.2771 2.2298 0.08109 0.16217 0.32434 0.56759 0.54732 0.9122 0.22298 0.32434 0.46624 0.75003 0.54732 0.9122 0.08109 0.16217 0.52705 0.93247 0.97302 1.723 0.46624 0.7703 0.89193 1.5609 0.97301 1.723 0.08108 0.16217 0.32434 0.56759 0.54732 0.9122 0.22298 0.32434 0.48651 0.79057 0.60813 1.0136 0.10136 0.22298 0.2838 0.54732 0.40542 0.70949 0.30407 0.44596 2.5339 4.2975 2.6961 4.6624 0.08109 0.16217 0.32434 0.56759 0.54732 0.9122 0.22298 0.32434 0.46624 0.75003 0.54732 0.9122 0.06081 0.16217 0.36488 0.66895 0.64868 1.1149 0.2838 0.44596 0.72976 1.2163 0.99328 1.723 0.83112 1.5001 1.0541 1.9055 1.4595 2.5339 0.22299 0.32434 0.46624 0.75003 0.54732 0.9122 0.0811 0.16217 0.79058 1.3987 1.5812 2.7366 0.79058 1.3379 1.5001 2.5744 1.5812 2.7366 0.0811 0.16217 0.22298 0.44596 0.34461 0.60813 0.48651 0.75003 2.4934 4.1759 2.6555 4.561 0.10135 0.22298 0.36488 0.66895 0.58786 1.0136 0.22298 0.32434 0.48651 0.79058 0.60813 1.0136 0.10136 0.22298 0.2838 0.54732 0.40543 0.70949 0.30406 0.44596 2.5339 4.2975 2.6961 4.6624 0.0811 0.16217 0.32433 0.56759 0.54732 0.9122 0.22298 0.32434 0.46623 0.75003 0.54732 0.9122 0.0811 0.16217 0.64867 1.1757 1.2771 2.2298 0.6284 1.0541 1.196 2.0677 1.2771 2.2298 0.0811 0.16217 0.32434 0.56759 0.54732 0.9122 0.22298 0.32434 0.46624 0.75003 0.54732 0.9122 0.0811 0.16217 0.64868 1.1757 1.2771 2.2298 0.62841 1.0541 1.196 2.0677 1.2771 2.2298 0.0811 0.16217 0.32434 0.56759 0.54732 0.9122 0.22299 0.32434 0.48651 0.79057 0.60814 1.0136 0.10135 0.22298 0.28379 0.54732 0.40542 0.70949 0.2838 0.44596 1.9258 3.2839 2.0879 3.6488 0.0811 0.16217 0.32433 0.56759 0.54732 0.9122 0.22298 0.32434 0.4865 0.79057 0.58786 1.0136 0.10136 0.22298 0.42569 0.75003 0.70949 1.1757 0.2838 0.42569 0.52705 0.81084 0.52705 0.89193 0 0.06081 0.38515 0.7703 0.87166 1.5609 0.4865 0.79057 0.93247 1.5811 1.0136 1.7433 0.0811 0.16217 0.32434 0.56759 0.54732 0.9122 0.22299 0.32434 0.46624 0.75003 0.54733 0.9122 0.0811 0.16217 0.64867 1.1757 1.2771 2.2298 0.6284 1.0541 1.196 2.0677 1.2771 2.2298 0.0811 0.16217 0.32434 0.56759 0.54732 0.9122 0.22298 0.32434 0.46623 0.75003 0.54732 0.9122 0.0811 0.16217 0.64867 1.1757 1.2771 2.2298 0.6284 1.0541 1.196 2.0677 1.2771 2.2298 0.0811 0.16217 0.32434 0.56759 0.54732 0.9122 0.22298 0.32434 0.46624 0.75003 0.54732 0.9122 0.0811 0.16217 0.64868 1.1757 1.2771 2.2298 0.62841 1.0541 1.196 2.0676 1.2771 2.2298 0.0811 0.16217 0.32434 0.5676 0.54732 0.9122 0.22299 0.32434 0.46624 0.75004 0.54733 0.91221 0.0811 0.16216 0.64867 1.1757 1.2771 2.2298 0.6284 1.0541 1.196 2.0677 1.2771 2.2298 0.0811 0.16217 0.32434 0.5676 0.54732 0.91221 0.22298 0.32433 0.48651 0.79057 0.60813 1.0136 0.10136 0.22298 0.2838 0.54732 0.40542 0.70949 0.30407 0.44597 2.5339 4.2975 2.6961 4.6624 0.0811 0.16217 0.32434 0.56759 0.54733 0.9122 0.22298 0.32434 0.46623 0.75003 0.54732 0.9122 0.0811 0.16217 0.79057 1.3987 1.5811 2.7366 0.79058 1.3379 1.5001 2.5744 1.5812 2.7366 0.0811 0.16217 0.22298 0.44596 0.34461 0.60813 0.2838 0.44597 2.5339 4.2975 2.6961 4.6624 0.0811 0.16217 0.32434 0.56759 0.54732 0.9122 0.22298 0.32434 0.46624 0.75003 0.54732 0.9122 0.0811 0.16217 0.58787 1.0338 1.1149 1.9258 0.52705 0.89193 0.97302 1.7433 0.97302 1.8649 0 0.36489-153.96 0.38516-154.18 0.0405-0.060813-0.12163 0.060813-0.48651 0.30407-0.81085 0.22298-0.30407 0.42569-0.60813 0.42569-0.66895 0-0.0811 2.838-4.9867 3.2434-5.5948 0.12163-0.16217 0.30407-0.4865 0.40542-0.70949 0.12163-0.22298 0.38515-0.68922 0.60813-1.0136 0.22298-0.34461 0.48651-0.79058 0.58786-1.0136 0.10136-0.22298 0.42569-0.75003 0.70949-1.1757 0.2838-0.42569 0.52705-0.81084 0.52705-0.85138 0-0.0608 0.38515-0.75003 0.87166-1.5609 0.48651-0.81085 0.93247-1.6217 1.0136-1.7839 0.08108-0.16217 0.32434-0.58786 0.54732-0.9122 0.22298-0.34461 0.48651-0.79057 0.60813-1.0136 0.12163-0.22298 0.38515-0.68922 0.60813-1.0136 0.22298-0.34461 0.46624-0.75004 0.54732-0.9122 0.08108-0.16217 0.79057-1.3987 1.5811-2.7366 0.79057-1.3379 1.5001-2.5744 1.5811-2.7366 0.08108-0.16217 0.32434-0.58786 0.54732-0.9122 0.22298-0.34461 0.48651-0.79057 0.60813-1.0136 0.10136-0.22298 0.2838-0.54732 0.40542-0.70949 0.30407-0.4865 3.7704-6.3651 3.9123-6.6895 0.08108-0.16217 0.32434-0.58786 0.54732-0.9122 0.22298-0.34461 0.48651-0.79057 0.60813-1.0136 0.10136-0.22298 0.2838-0.54732 0.40542-0.70949 0.52705-0.81084 2.0271-3.4056 2.0271-3.5069 0-0.08109 0.24325-0.46624 0.52705-0.89193s0.60813-0.95274 0.70949-1.1757c0.10136-0.22298 0.36488-0.68922 0.58786-1.0136 0.22298-0.34461 0.48651-0.79057 0.60813-1.0136 0.10136-0.22298 0.2838-0.54732 0.40542-0.70949 0.30407-0.46624 3.142-5.3313 3.3042-5.6759 0.08108-0.16217 0.32434-0.58786 0.54732-0.9122 0.22298-0.34461 0.48651-0.79058 0.60813-1.0136 0.12163-0.22298 0.38515-0.68922 0.60813-1.0136 0.22298-0.34461 0.46624-0.75003 0.54732-0.9122s0.79057-1.3987 1.5811-2.7366c0.79057-1.3379 1.5001-2.5744 1.5811-2.7366 0.08108-0.16217 0.32434-0.58786 0.54732-0.9122 0.22298-0.34461 0.48651-0.79057 0.60813-1.0136 0.12163-0.22298 0.32434-0.58786 0.46624-0.81084s0.75003-1.2771 1.3582-2.3312c0.60813-1.0541 1.2163-2.1082 1.3582-2.3312 0.1419-0.22298 0.34461-0.58786 0.46624-0.81084s0.38515-0.68922 0.60813-1.0136c0.22298-0.34461 0.46624-0.75003 0.54732-0.9122 0.08109-0.16217 0.79057-1.3987 1.5811-2.7366 0.79057-1.3379 1.5001-2.5744 1.5811-2.7366 0.08109-0.16217 0.32434-0.58786 0.54732-0.9122 0.22298-0.34461 0.48651-0.79057 0.60813-1.0136 0.12163-0.22298 0.38515-0.68922 0.60813-1.0136 0.22298-0.34461 0.46624-0.75003 0.54732-0.9122 0.08109-0.16217 0.79057-1.3987 1.5811-2.7366 0.79057-1.3379 1.5001-2.5744 1.5811-2.7366 0.08109-0.16217 0.32434-0.58786 0.54732-0.9122 0.22298-0.34461 0.48651-0.79057 0.60813-1.0136 0.10136-0.22298 0.2838-0.54732 0.40542-0.70949 0.30407-0.46624 3.142-5.3313 3.3042-5.6759 0.08108-0.16217 0.32434-0.58786 0.54732-0.9122 0.22298-0.34461 0.48651-0.79058 0.60813-1.0136 0.12163-0.22298 0.38515-0.68922 0.60813-1.0136 0.22298-0.34461 0.46624-0.75003 0.54732-0.9122s0.79057-1.3987 1.5811-2.7366c0.79057-1.3379 1.5001-2.5744 1.5811-2.7366 0.08108-0.16217 0.32434-0.58786 0.54732-0.9122 0.22298-0.34461 0.48651-0.79057 0.60813-1.0136 0.10136-0.22298 0.2838-0.54732 0.40542-0.70949 0.30407-0.46624 3.142-5.3313 3.3042-5.6759 0.08109-0.16217 0.32434-0.58786 0.54732-0.9122 0.22298-0.34461 0.48651-0.79057 0.60813-1.0136 0.12163-0.22298 0.38515-0.68922 0.60813-1.0136 0.22298-0.34461 0.46624-0.75003 0.54732-0.9122s0.52705-0.97302 1.0136-1.7839c0.48651-0.83112 0.87166-1.5203 0.87166-1.5609 0-0.04054 0.24325-0.42569 0.52705-0.85139 0.2838-0.42569 0.60813-0.95274 0.70949-1.1757 0.10136-0.22298 0.36488-0.68922 0.58786-1.0136 0.22298-0.34461 0.48651-0.79057 0.60813-1.0136 0.12163-0.22298 0.32434-0.58786 0.46624-0.81084s0.75003-1.2771 1.3582-2.3312c0.60813-1.0541 1.2163-2.1082 1.3582-2.3312 0.1419-0.22298 0.34461-0.58786 0.46624-0.81085 0.12163-0.22298 0.38515-0.68922 0.60813-1.0136 0.22298-0.34461 0.46624-0.75003 0.54732-0.9122 0.38515-0.85139 1.1149-1.8244 1.3582-1.8244 0.16217 0 0.42569 0.24325 0.58786 0.54732z"/>
   <path id="path3438" d="m79.666 15.406c-0.12163 0.26352-0.2838 0.60813-0.40542 0.7703-0.30407 0.46624-3.142 5.3313-3.3042 5.6759-0.08109 0.16217-0.32434 0.56759-0.54732 0.9122-0.22298 0.32434-0.46624 0.75003-0.52705 0.9122-0.08109 0.16217-0.24325 0.44596-0.38515 0.60813-0.42569 0.54732-0.50678 1.2163-0.1419 1.2163 2.6352 0 6.73 0.26352 7.8449 0.52705 0.79057 0.16217 1.6217 0.34461 1.8852 0.40542 0.81084 0.16217 0.46624 0.44596-0.70949 0.56759-3.8921 0.40542-5.3313 0.60813-6.1219 0.85139-0.50678 0.16217-1.0946 0.2838-1.3176 0.2838-0.6284 0.02027-4.4394 1.3987-4.6218 1.6825-0.60813 0.93247-1.196 1.9258-1.3784 2.2704-0.12163 0.22298-0.38515 0.66895-0.60813 1.0136-0.22298 0.32434-0.46624 0.75003-0.54732 0.9122-0.06081 0.16217-0.34461 0.64868-0.60813 1.0541-0.26352 0.42569-0.46624 0.81085-0.46624 0.87166 0 0.20271 1.3176 0.10136 2.6352-0.18244 3.6893-0.81084 5.9597-1.0136 11.149-1.0136 5.1489-0.02027 5.757 0.04054 8.4936 0.83112 0.95274 0.26352-0.6284 0.44596-4.6421 0.52705-5.1083 0.10136-8.8585 0.54732-12.061 1.3987-0.44596 0.12163-1.1352 0.2838-1.5203 0.38515-1.5001 0.30407-4.1556 1.419-6.0205 2.4933-1.0541 0.60813-1.6825 1.4393-1.2163 1.6014 0.1419 0.04054 0.60813-0.04054 1.0541-0.18244 1.0541-0.32434 3.9123-0.93247 8.6355-1.7839 1.946-0.36488 3.7502-0.42569 3.9123-0.1419 0.12163 0.20271-0.54732 0.42569-1.2974 0.42569-0.2838 0-0.9122 0.12163-1.419 0.2838-0.50678 0.16217-1.5001 0.44596-2.2298 0.6284-0.72976 0.18244-1.5811 0.42569-1.9258 0.54732-0.32434 0.10136-0.93247 0.2838-1.3176 0.36488-0.79057 0.18244-1.7636 0.50678-2.7974 0.93247-0.36488 0.16217-0.79057 0.2838-0.95274 0.2838s-0.58786 0.12163-0.95274 0.2838-1.1149 0.46624-1.642 0.66895c-0.7703 0.2838-1.0946 0.56759-1.5811 1.3379-0.72976 1.1757-0.7703 1.642-0.12163 1.4595 0.48651-0.1419 1.7028-0.58786 2.7366-1.0338 0.36488-0.16217 0.79057-0.2838 0.95274-0.2838s0.58786-0.12163 0.95274-0.2838c0.83112-0.34461 3.811-1.196 6.3449-1.8041 0.66895-0.16217 1.6825-0.42569 2.2298-0.54732 0.56759-0.1419 1.2974-0.30407 1.6217-0.34461 0.34461-0.04054 1.196-0.20271 1.9258-0.36488 2.169-0.46624 3.6691-0.72976 5.0678-0.9122 0.72976-0.08109 1.9663-0.26352 2.7366-0.38515 3.1015-0.46624 6.3246-0.83112 7.2368-0.83112 0.52705 0 0.99328-0.08109 1.0541-0.18244 0.08109-0.10136-0.40542-1.0946-1.0541-2.1893-0.64868-1.0946-1.2365-2.1285-1.3176-2.2906-0.08108-0.16217-0.32434-0.58786-0.54732-0.9122-0.22298-0.34461-0.48651-0.79057-0.60813-1.0136-0.10136-0.22298-0.2838-0.54732-0.40542-0.70949-0.30407-0.46624-3.142-5.3313-3.3042-5.6759-0.08109-0.16217-0.32434-0.58786-0.54732-0.9122-0.22298-0.34461-0.46624-0.75003-0.54732-0.9122-0.16217-0.36488-2.4123-4.2164-2.6961-4.6624-0.12163-0.16217-0.26352-0.44596-0.34461-0.60813-0.08108-0.16217-0.64868-1.1757-1.2771-2.2298-0.6284-1.0541-1.196-2.0879-1.2771-2.2704-0.06081-0.18244-0.30407-0.44596-0.54732-0.56759-0.34461-0.18244-0.44596-0.1419-0.60813 0.24325z"/>
   <path id="path3440" d="m85.848 47.9c-0.89193 0.16217-1.9866 0.2838-2.4325 0.2838-0.44596 0-1.4393 0.1419-2.2298 0.30407-1.5609 0.32434-3.3447 0.68922-4.7637 0.95274-1.5609 0.2838-5.2097 1.196-6.2841 1.5811-0.2838 0.08108-1.0541 0.32434-1.723 0.52705-0.66895 0.18244-1.5811 0.48651-2.0271 0.64868-0.44596 0.16217-1.1555 0.42569-1.5609 0.58786-3.6893 1.3582-5.5137 2.1285-7.9666 3.365-1.196 0.58786-1.7433 1.0744-2.1487 1.8852-0.10136 0.22298-0.36488 0.66895-0.58786 1.0136-0.22298 0.32434-0.46624 0.75003-0.54732 0.9122s-0.79057 1.3987-1.5811 2.7366c-0.79057 1.3379-1.5001 2.5744-1.5811 2.7366-0.08109 0.16217-0.32434 0.56759-0.54732 0.9122-0.22298 0.32434-0.48651 0.79057-0.60813 1.0136-0.12163 0.22298-0.38515 0.66895-0.60813 1.0136-0.22298 0.32434-0.46624 0.75003-0.54732 0.9122s-0.79057 1.3987-1.5811 2.7366c-0.79057 1.3379-1.5001 2.5744-1.5811 2.7366-0.2838 0.54732-0.66895 1.1757-0.9122 1.4798-0.20271 0.22298-0.20271 0.34461-0.02027 0.44596 0.12163 0.08109 0.2838 0.06081 0.36488-0.04054 0.24325-0.34461 4.1961-3.4461 5.7975-4.561 3.7704-2.5947 8.5139-5.0881 12.365-6.507 0.44596-0.16217 1.1757-0.44596 1.6217-0.60813 0.7703-0.2838 1.6825-0.56759 4.0542-1.2365 1.2365-0.34461 3.5677-0.81084 6.3043-1.2365 2.8177-0.46624 11.818-0.46624 14.98 0 3.142 0.44596 6.7097 1.2163 8.3112 1.7433 0.34461 0.12163 0.89193 0.2838 1.2163 0.38515 0.34461 0.08108 0.83112 0.24325 1.1149 0.36488 0.2838 0.10136 0.9122 0.36488 1.419 0.54732 2.7163 1.0541 5.2705 2.3515 7.9057 4.034 1.0744 0.68922 3.5069 2.5744 3.6083 2.7974 0.0811 0.16217 0.64868 0.22298 0.64868 0.08108 0-0.04054-0.52705-0.99328-1.1757-2.0879-0.64868-1.0946-1.2365-2.1285-1.3176-2.2906-0.0811-0.16217-0.32434-0.58786-0.54732-0.9122-0.22298-0.34461-0.46623-0.75003-0.54732-0.9122-0.0811-0.16217-0.64868-1.1757-1.2771-2.2298-0.62841-1.0541-1.196-2.0677-1.2771-2.2298-0.0811-0.16217-0.32434-0.58786-0.54732-0.9122-0.22298-0.34461-0.48651-0.81084-0.58786-1.0338-0.24326-0.52705-1.4392-1.2974-2.0068-1.2974-0.24325 0-0.72976-0.12163-1.0946-0.2838-0.64867-0.26352-1.7028-0.52705-5.0272-1.2163-7.4598-1.5406-16.602-1.7636-25.136-0.60813-3.0407 0.40542-5.7773 0.85139-6.7908 1.1352-1.0946 0.2838-1.9055 0.30407-1.9258 0.06081 0-0.12163 0.30407-0.22298 0.68922-0.26352s0.81084-0.20271 0.93247-0.36488c0.1419-0.16217 0.46624-0.2838 0.72976-0.2838s0.83112-0.12163 1.2365-0.2838c0.42569-0.1419 1.4595-0.40542 2.2906-0.58786 0.83112-0.18244 2.169-0.46624 2.9596-0.6284 0.81084-0.18244 1.723-0.32434 2.0474-0.32434 0.32434 0 1.5001-0.1419 2.615-0.30407 4.3988-0.66895 15.183-0.32434 20.15 0.6284 0.85139 0.16217 1.8041 0.2838 2.1285 0.2838 0.34461 0 1.0541 0.1419 1.6014 0.30407 1.3784 0.42569 2.1487 0.40542 2.1487-0.06081 0-0.20271-0.10136-0.46624-0.22298-0.58786-0.24326-0.24325-0.64868-0.93247-0.97302-1.5811-0.44596-1.0136-0.40542-1.0136-8.3112-1.0744-4.4596-0.04054-8.4936 0.02027-10.156 0.16217-4.9056 0.42569-5.6556 0.46624-6.0205 0.32434-0.30407-0.12163-0.30407-0.16217-0.06081-0.32434 0.16217-0.12163 0.60813-0.20271 0.97302-0.20271 0.36488 0 1.1757-0.12163 1.8244-0.2838 1.0338-0.26352 2.1487-0.44596 7.4395-1.1352 0.89193-0.10136 3.811-0.30407 6.4868-0.42569 2.6758-0.12163 4.9664-0.32434 5.0678-0.42569 0.1419-0.12163 0.0405-0.32434-0.24325-0.56759-0.40542-0.32434-0.75003-0.36488-2.9393-0.2838-5.5543 0.20271-14.859 1.4392-21.346 2.838-3.5474 0.7703-4.338 0.95274-5.4732 1.2163-0.66895 0.16217-1.642 0.42569-2.1487 0.58786-0.52705 0.16217-1.2163 0.30407-1.5203 0.30407-0.32434 0-0.7703 0.1419-0.97301 0.30407-0.44596 0.34461-1.2568 0.40542-1.419 0.12163-0.1419-0.22298 0.34461-0.42569 0.99328-0.42569 0.24325 0 0.56759-0.12163 0.68922-0.2838s0.48651-0.32434 0.79057-0.38515c0.30407-0.04054 0.83112-0.18244 1.1555-0.30407 1.7433-0.58786 5.757-1.6622 9.0207-2.392 3.4461-0.75003 4.034-0.87166 5.6759-1.196 0.95274-0.18244 2.3312-0.46624 3.0609-0.6284 0.75003-0.16217 1.6217-0.2838 1.9258-0.2838 0.32434 0 1.0946-0.1419 1.7028-0.30407 0.60813-0.16217 1.4798-0.30407 1.9258-0.30407 0.44596 0 1.0338-0.06081 1.2771-0.1419 1.8244-0.48651-3.5069-0.60813-6.3449-0.16217zm3.4258 10.946c5.3313 0.6284 8.1895 1.2163 12.183 2.5339 2.1285 0.68922 2.7366 0.93247 2.9798 1.1757 0.1419 0.1419 0.40543 0.24325 0.58787 0.24325 0.20271 0 0.42569 0.08109 0.4865 0.20271 0.0811 0.12163-0.10135 0.20271-0.38515 0.20271-0.28379 0-0.52705-0.08109-0.52705-0.18244 0-0.10136-0.42569-0.22298-0.95274-0.26352-0.54732-0.06081-1.3784-0.20271-1.8852-0.32434-7.2571-1.7839-18.568-2.5744-25.744-1.7636-3.2028 0.36488-6.0611 0.81084-7.9057 1.2163-0.72976 0.18244-1.5001 0.30407-1.7028 0.30407-0.22298 0-0.85139 0.12163-1.419 0.2838-0.56759 0.16217-1.6217 0.44596-2.3515 0.6284-0.72976 0.18244-1.723 0.44596-2.2298 0.58786-0.50678 0.16217-1.4595 0.42569-2.1285 0.6284-0.66895 0.20271-1.5203 0.48651-1.8852 0.6284-0.36488 0.16217-0.85139 0.2838-1.0946 0.2838-0.24325 0-0.58786 0.1419-0.79057 0.32434s-0.50678 0.2838-0.68922 0.20271c-0.40542-0.1419-0.20271-0.52705 0.2838-0.52705 0.20271 0 0.48651-0.1419 0.6284-0.30407 0.1419-0.16217 0.40542-0.30407 0.60813-0.30407s0.46624-0.1419 0.60813-0.30407c0.1419-0.16217 0.38515-0.30407 0.54732-0.30407s0.54732-0.12163 0.83112-0.2838c0.50678-0.26352 1.1352-0.50678 3.0407-1.2163 0.40542-0.16217 1.1149-0.42569 1.5609-0.58786 1.8649-0.68922 6.284-1.9055 8.0071-2.169 0.50678-0.08109 1.4595-0.24325 2.1285-0.36488 4.561-0.87166 12.345-1.1149 17.21-0.54732z"/>
   <path id="path3442" d="m77.436 65.151c-1.1757 0.08109-4.1556 0.56759-5.6759 0.93247-0.50678 0.12163-1.2771 0.2838-1.723 0.38515-0.44596 0.10136-1.4392 0.36488-2.2298 0.58786-0.7703 0.24325-1.6825 0.50678-2.0271 0.60813-0.58786 0.16217-1.196 0.36488-2.7366 0.9122-4.6826 1.6825-11.737 5.0678-16.116 7.7436-0.22298 0.1419-0.58786 0.34461-0.81085 0.46624-1.2771 0.68922-3.4258 2.1487-3.7704 2.5542-0.18244 0.22298-0.75003 1.1149-1.2771 2.0068-0.50678 0.89193-1.0338 1.7636-1.1352 1.9258-0.12163 0.16217-0.30407 0.48651-0.40542 0.70949-0.12163 0.22298-0.38515 0.66895-0.60813 1.0136-0.22298 0.32434-0.48651 0.79057-0.58786 1.0136-0.10136 0.22298-0.42569 0.75003-0.70949 1.1757-0.89193 1.2974-0.64868 1.5001 0.75003 0.60813 1.2771-0.83112 2.2096-1.2771 2.615-1.2771 0.20271 0 0.36488 0.04054 0.36488 0.08109 0 0.06081-1.9055 1.9866-4.2569 4.3178-2.919 2.8988-4.2975 4.3988-4.3786 4.8043l-0.1419 0.58786 1.9866-0.1419c1.0946-0.08108 2.0879-0.20271 2.2298-0.2838 0.1419-0.08108 1.0338-0.87166 1.9663-1.7636 2.8582-2.6961 4.1353-3.7907 7.2368-6.203 1.0744-0.83112 5.2502-3.6893 5.6962-3.8921 0.16217-0.08108 0.58786-0.32434 0.9122-0.54732 0.34461-0.22298 0.79057-0.48651 1.0136-0.60813 0.22298-0.12163 0.72976-0.40542 1.1149-0.6284 0.7703-0.46624 4.338-2.2906 5.4124-2.7366 2.4123-1.0541 3.3245-1.4392 4.2164-1.7636 1.8244-0.64868 2.2704-0.79057 2.9393-0.95274 0.38515-0.08109 0.99329-0.26352 1.3176-0.36488 2.3109-0.81085 5.2502-1.3176 10.845-1.8649 4.338-0.44596 11.879 0.44596 16.643 1.9258 0.52705 0.16217 1.0946 0.30407 1.2771 0.30407 0.16217 0 0.60813 0.12163 0.97301 0.2838s1.0338 0.42569 1.4798 0.58786c2.3717 0.89193 4.2772 1.7028 5.8786 2.5339 2.2704 1.1757 3.2637 1.7028 3.7907 2.0271 2.5136 1.5811 3.2839 2.0677 4.5205 2.9799 0.79057 0.54732 1.4595 1.0541 1.5203 1.1149 0.0608 0.06081 0.68922 0.56759 1.419 1.1149 1.5812 1.196 2.4528 1.9866 5.1489 4.6624 3.6893 3.6691 5.4327 5.8178 5.0678 6.1827-0.12163 0.12163-1.1149 0.2838-2.2298 0.40542-1.0946 0.10136-2.3312 0.2838-2.7163 0.40542-0.38516 0.10136-0.99329 0.20271-1.3379 0.20271-0.36488 0-0.95274 0.24325-1.4595 0.60813-0.70949 0.50679-0.83112 0.7095-0.89193 1.4393-0.0405 0.4865-0.16217 0.89193-0.2838 0.93247-0.12162 0.0405-1.2163-0.64868-2.4325-1.5609-1.196-0.89193-2.2906-1.6217-2.4325-1.6217-0.12162 0-0.56759 0.40542-0.99328 0.9122-1.0338 1.2771-2.4731 1.9866-1.9663 0.97302 1.4595-2.9393 2.0676-5.5746 2.0676-9.0409 0-1.4798-0.0811-2.8177-0.20271-2.9799-0.22298-0.36488-0.26352-0.2838-0.70949 1.9258-0.18244 0.89193-0.42569 1.9866-0.52705 2.4325-0.12162 0.44596-0.28379 1.1352-0.38515 1.5203-0.10135 0.38515-0.32434 1.0946-0.48651 1.5811-0.89193 2.3717-3.0609 5.3313-4.4191 6.0205-0.72976 0.34461-0.72976 0.0608 0-0.89193 0.93247-1.2568 2.4731-4.1353 2.4731-4.7029 0-0.16217 0.14189-0.46624 0.30406-0.66895 0.16217-0.22298 0.30407-0.56759 0.30407-0.79057s0.1419-0.81084 0.2838-1.3379c0.54732-1.723 0.9122-3.9529 1.0541-6.2638 0.12163-2.0271 0.10136-2.3109-0.22298-2.6758-0.66895-0.72976-1.0541-0.52705-1.196 0.64868-0.50678 4.115-0.99329 6.7503-1.4595 7.8247-0.16217 0.36488-0.28379 0.79057-0.28379 0.95274 0 0.42569-1.3176 3.1826-2.1082 4.4191-0.70949 1.1149-3.2839 3.6691-4.034 4.0137-0.62841 0.28379-1.2568 0.66895-1.642 0.97301-0.18244 0.1419-0.46624 0.22298-0.6284 0.1419-0.22298-0.0811 0.20271-0.58786 1.5203-1.8649 4.2367-4.0745 6.6895-10.095 6.6895-16.318 0-2.2298-0.44597-3.2231-1.2771-2.8988-0.26353 0.10136-0.95275 2.1487-0.95275 2.838 0 0.46624-0.87166 3.1218-1.5203 4.6421-0.58787 1.419-1.8447 3.7502-2.7163 5.0678-2.7771 4.2164-7.5206 7.703-12.082 8.8788-2.5136 0.64868-3.5069 0.79057-6.0205 0.89193-6.3854 0.26352-12.142-1.865-16.379-6.0611-2.5947-2.5542-3.4258-3.7299-5.1489-7.1557-0.9122-1.8447-1.4392-3.1218-1.723-4.2569-0.08108-0.34461-0.26352-0.81084-0.38515-1.0541-0.1419-0.24325-0.24325-0.66895-0.24325-0.95274 0-0.26352-0.06081-0.6284-0.12163-0.81084-0.18244-0.48651-1.0338-0.40542-1.3784 0.12163-0.30407 0.48651-0.16217 1.5406 0.50678 4.115 0.10136 0.44596 0.2838 1.1352 0.38515 1.5203 0.44596 1.8447 1.8041 4.7637 3.1623 6.8111 0.99329 1.5001 3.2637 3.9123 4.784 5.0678 2.1893 1.7028 6.1827 3.7502 7.6422 3.9731 0.2838 0.0203 0.52705 0.18244 0.58786 0.30407 0.12163 0.38515-2.4933 0.34461-3.8312-0.0608-5.1489-1.5203-9.1828-5.23-11.98-11.028-1.1149-2.3312-1.2974-2.7771-1.8041-4.3583-0.20271-0.66895-0.52705-1.642-0.68922-2.1487-0.16217-0.52705-0.30407-1.1555-0.30407-1.419-0.02027-1.2974-0.7703-1.2365-1.7636 0.12163-0.7703 1.0136-0.79057 1.3582-0.34461 2.8177 1.6825 5.1894 4.1961 9.6693 7.1354 12.629 0.89193 0.9122 1.5811 1.7028 1.5406 1.7433-0.1419 0.1419-1.3379-0.50677-2.4325-1.3176-1.2568-0.93247-4.1353-3.9529-4.1353-4.3583 0-0.06081-0.12163-0.2838-0.2838-0.44596-0.66895-0.7703-2.2298-4.0137-2.7771-5.8584-0.38515-1.2568-0.99328-0.50678-0.99328 1.2163 0.02027 1.9258 0.97301 4.7637 1.9663 5.8786 0.58786 0.64868 0.06081 0.72976-1.0946 0.16217-1.946-0.9122-2.6961-1.2163-3.0609-1.2163-0.18244-0.02027-0.70949-0.1419-1.1555-0.30407-1.196-0.42569-1.3987-0.06081-0.42569 0.85139 1.946 1.8447 7.2571 4.8245 11.473 6.4462 0.50678 0.18244 1.2163 0.46624 1.5811 0.62841 0.36488 0.16217 0.79057 0.28378 0.95274 0.28378s0.58786 0.12163 0.95274 0.2838c0.6284 0.26352 1.6217 0.54732 4.115 1.2366 0.56759 0.1419 1.7028 0.40542 2.5339 0.58786 2.392 0.48651 4.5205 0.9122 4.9259 0.97302 0.20271 0.0405 0.38515 0.14189 0.40542 0.26352 0.08109 0.36488-6.8314 0.36488-8.5747 0-2.9596-0.64868-3.9529-0.93247-6.284-1.8244-2.0068-0.7703-5.2908-2.392-6.73-3.3042-0.30407-0.18244-1.1149-0.70949-1.8244-1.1352-1.5406-0.97301-4.784-3.4258-6.0408-4.5813-0.48651-0.44596-1.0946-0.87166-1.3582-0.9122-0.26352-0.06081-0.68922-0.1419-0.95274-0.20271-1.6014-0.32434-0.16217 1.8041 2.8785 4.2569 0.68922 0.54732 1.2568 1.0744 1.2568 1.1555 0 0.32433-0.64868 0.14189-1.6825-0.4257-0.58786-0.30407-1.6014-0.87166-2.2704-1.2365-0.66895-0.36488-1.6014-0.93247-2.0879-1.2365-0.48651-0.32433-0.9122-0.58786-0.95274-0.58786-0.06081 0-0.70949-0.42569-1.4595-0.95275-0.7703-0.50678-1.6825-1.1352-2.0271-1.3987-0.79057-0.52705-3.7907-1.5406-4.1759-1.3784-0.40542 0.1419-0.79057 1.0744-0.60813 1.3987 0.18244 0.30407 2.7974 2.3312 3.0204 2.3312 0.06081 0 0.46624 0.26353 0.87166 0.56759 0.60813 0.48651 1.3176 0.95275 3.4664 2.2906 0.83112 0.50678 3.4258 1.946 4.0542 2.2298 1.419 0.64868 2.1285 0.97302 2.4933 1.0744 0.68922 0.22299 0.32434 0.52705-0.60813 0.52705-0.95274 0-2.2501-0.34461-3.7096-0.95274-0.38515-0.16217-0.97302-0.42569-1.3176-0.56759-1.7433-0.72976-4.784-2.3514-7.1557-3.8312-2.6758-1.6622-2.5136-1.6014-2.9393-1.0744-0.20271 0.24325-0.44596 0.6284-0.54732 0.85138-0.12163 0.22299-0.2838 0.54732-0.40542 0.70949-0.10136 0.16217-1.0136 1.723-2.0271 3.4461-1.0136 1.723-1.9258 3.2839-2.0271 3.4461-0.12163 0.16217-0.30407 0.4865-0.40542 0.70949-0.12163 0.22298-0.38515 0.66894-0.60813 1.0136-0.22298 0.32434-0.46624 0.75003-0.54732 0.9122s-0.93247 1.6217-1.8852 3.2434c-0.95274 1.6217-1.8041 3.0812-1.8852 3.2434-0.08108 0.16216-0.32434 0.56759-0.54732 0.9122-0.22298 0.32433-0.46624 0.75003-0.54732 0.9122s-0.93247 1.6622-1.9258 3.3245c-0.97302 1.642-1.7839 3.0609-1.7839 3.1218 0 0.0608-0.1419 0.26352-0.32434 0.46623s-0.2838 0.50678-0.22298 0.68922c0.12163 0.26352 0.95274 0.30407 6.5273 0.30407 5.3313 0 6.3854-0.0405 6.3854-0.2838 0-0.16217-0.38515-0.48651-0.83112-0.70949-0.46624-0.24325-1.2568-0.7703-1.7839-1.1554-1.1555-0.87166-3.4664-3.1218-3.4664-3.3447 0-0.26352 0.48651-0.22298 0.75003 0.0405 0.22298 0.22299 0.72976 0.52705 1.5811 0.99329 0.22298 0.12163 0.68922 0.38515 1.0136 0.60813 0.97301 0.60814 5.9192 3.0407 6.2232 3.0407 0.16217 0 0.50678 0.16217 0.7703 0.34461 0.46624 0.32434 1.2365 0.36488 7.8044 0.40542l7.2976 0.0608-0.48651-0.40542c-0.26352-0.22299-0.6284-0.40543-0.83112-0.40543-0.18244 0-0.97301-0.24325-1.7433-0.52705-0.7703-0.28379-1.6622-0.58786-2.0068-0.68922-2.4528-0.66894-7.8855-3.1826-10.014-4.6218-1.2365-0.83112-2.1082-1.6622-1.9258-1.8447 0.04054-0.0405 0.87166 0.30407 1.8447 0.77031 0.99328 0.4865 2.0677 0.99328 2.392 1.1352 0.34461 0.1419 0.93247 0.40542 1.3176 0.56759 0.38515 0.16217 1.1149 0.46624 1.6217 0.64868 0.50678 0.18244 1.196 0.44596 1.5203 0.58786 0.83112 0.36488 1.9055 0.72976 2.6352 0.93247 0.79057 0.22299 1.8447 0.58787 2.6961 0.93248 0.36488 0.16216 0.81084 0.28379 0.97301 0.28379 0.18244 0 0.75003 0.1419 1.2771 0.30407 1.2974 0.40542 2.8785 0.81084 4.784 1.2163 0.89193 0.18244 2.2096 0.4865 2.9393 0.66894 1.0744 0.26353 2.919 0.34461 9.9329 0.40543 8.0679 0.0608 8.595 0.0405 8.2706-0.26353-0.18244-0.20271-0.66895-0.42569-1.1149-0.50678-0.42569-0.10135-1.2163-0.34461-1.7839-0.56759-1.9866-0.7703-2.4528-1.0338-3.3245-1.8041-0.44596-0.40542-0.46624-0.46624-0.1419-0.58786 0.20271-0.0811 0.87166 0 1.5001 0.18244 1.642 0.44596 3.8312 0.87166 6.5273 1.2974 3.3042 0.50678 16.197 0.50678 19.014 0 1.0136-0.20271 2.169-0.34461 2.5542-0.34461 0.36488 0 1.2974-0.12163 2.0677-0.28379 2.1893-0.44597 3.9529-0.77031 4.9462-0.93248 0.89193-0.14189 1.9663-0.38515 3.9529-0.9122 2.919-0.79057 3.5272-0.95274 4.561-1.2568 0.60813-0.18244 1.7636-0.54732 2.5339-0.81084 0.79057-0.2838 1.7028-0.56759 2.0271-0.66895 0.81085-0.22298 1.8852-0.58786 2.6352-0.9122 0.34461-0.1419 1.3784-0.54732 2.3312-0.9122 0.95274-0.34461 2.0068-0.75003 2.3312-0.9122 0.34461-0.1419 0.93247-0.40543 1.3176-0.56759 2.7569-1.1757 4.5002-1.9866 7.6625-3.5677 4.3786-2.1893 4.9056-2.4731 4.9056-2.6758 0-0.32434-1.2365-2.615-1.419-2.615-0.16216 0-1.0946 0.68922-1.6014 1.1757-0.16217 0.16217-1.2163 0.89193-2.3312 1.642-2.1285 1.3784-2.3312 1.5203-3.3042 2.0676-0.68922 0.40543-4.5813 2.3312-5.4327 2.7163-1.8041 0.79057-2.3312 1.0136-4.5002 1.8041-0.83112 0.30406-2.169 0.70949-3.9123 1.196-0.60813 0.18244-1.6217 0.46624-2.2501 0.62841-0.6284 0.18244-1.2974 0.32434-1.5001 0.32434-0.20271 0-0.83112 0.12162-1.3987 0.28379-2.919 0.83112-6.8111 1.1757-5.7773 0.50678 0.1419-0.10136 0.56759-0.18244 0.93247-0.18244s0.95275-0.12163 1.3176-0.2838c0.36488-0.14189 1.2163-0.42569 1.8852-0.6284 2.7569-0.81085 6.9125-2.2704 8.7166-3.0609 2.5136-1.0946 3.1623-1.3987 4.1556-1.8852 1.3987-0.68922 2.9596-1.5609 3.7502-2.0676 0.34461-0.20271 0.79057-0.46624 1.0136-0.58786 1.7636-0.91221 6.1422-4.5205 7.5409-6.2232 0.81085-0.99329 0.83112-0.87166-0.32433-2.7974-0.34461-0.56759-0.70949-1.196-0.83112-1.419-0.12163-0.22299-0.38515-0.68923-0.60813-1.0136-0.22299-0.34461-0.46624-0.75004-0.54732-0.91221-0.0811-0.16217-0.64868-1.1757-1.2771-2.2298-0.6284-1.0541-1.196-2.0677-1.2771-2.2298-0.0811-0.16217-0.32433-0.58786-0.54732-0.9122-0.22298-0.34461-0.46623-0.75003-0.54732-0.9122-0.0811-0.16217-0.64867-1.1757-1.2771-2.2298-0.6284-1.0541-1.196-2.0677-1.2771-2.2298-0.0811-0.16217-0.32434-0.58786-0.54732-0.9122-0.22298-0.34461-0.48651-0.79057-0.60813-1.0136-0.12163-0.22298-0.32434-0.58786-0.46624-0.81085-0.1419-0.22298-0.75003-1.2771-1.3582-2.3312-0.60813-1.0541-1.2163-2.1082-1.3582-2.3312-0.1419-0.22298-0.34461-0.58786-0.46624-0.81084-0.12162-0.22298-0.38515-0.68922-0.60813-1.0136-0.22298-0.34461-0.46624-0.75003-0.54732-0.9122-0.0608-0.16217-0.56759-1.0541-1.1149-1.9663-0.99329-1.642-1.3176-1.9663-2.9799-2.8582-0.48651-0.26352-1.1757-0.66895-1.5203-0.87166s-0.7703-0.42569-0.93247-0.50678c-0.16217-0.06081-0.44596-0.20271-0.60813-0.30407s-0.42569-0.22298-0.54732-0.2838c-0.1419-0.06081-0.38515-0.1419-0.50678-0.20271-0.1419-0.06081-0.40542-0.18244-0.56759-0.26352-0.2838-0.18244-0.68922-0.36488-2.5744-1.1757-2.24-0.974-4.55-1.846-6.255-2.373-4.378-1.317-6.101-1.723-10.419-2.473-1.845-0.324-9.406-0.567-11.98-0.385zm8.5139 4.9462c1.5001 0.10136 3.0609 0.2838 3.4461 0.38515 0.38515 0.12163 1.0136 0.22298 1.3784 0.22298 0.85139 0 2.6555 0.42569 6.73 1.5609 2.1285 0.60813 4.3178 1.4595 7.0949 2.7771 2.919 1.3987 4.5002 2.3515 6.9935 4.2569 1.8041 1.3784 4.7637 4.1961 4.7637 4.561 0 0.30407-0.32434 0.2838-0.68922-0.08108-0.16217-0.16217-0.36488-0.30407-0.42569-0.30407-0.0811 0-0.48651-0.26352-0.89193-0.58786-1.642-1.2771-6.284-3.8312-9.5477-5.23-0.38515-0.18244-0.97301-0.44596-1.2771-0.58786-0.32434-0.16217-0.72976-0.2838-0.9122-0.2838s-0.52705-0.1419-0.72976-0.30407c-0.22298-0.16217-0.56759-0.30407-0.7703-0.30407-0.18244 0-0.64868-0.12163-1.0136-0.2838-1.0338-0.44596-4.338-1.3379-6.6489-1.8041-5.4732-1.1149-10.926-1.5203-15.771-1.1757-3.2231 0.24325-4.6826 0.44596-8.149 1.1555-2.2501 0.46624-5.5948 1.3784-6.6489 1.8244-0.36488 0.16217-0.79057 0.2838-0.95274 0.2838s-0.58786 0.12163-0.95274 0.2838-1.0744 0.44596-1.5811 0.6284c-0.50678 0.18244-1.2365 0.48651-1.6217 0.64868-0.38515 0.16217-0.97301 0.42569-1.3176 0.56759-0.32434 0.1419-1.4798 0.66895-2.5542 1.196-1.0541 0.50678-2.0068 0.93247-2.1082 0.93247-0.10136 0-0.34461 0.16217-0.54732 0.34461-0.2838 0.24325-0.42569 0.2838-0.60813 0.10136-0.16217-0.16217-0.1419-0.26352 0.1419-0.36488 0.20271-0.08109 0.52705-0.30407 0.72976-0.46624 0.42569-0.38515 0.7703-0.64868 1.3176-0.97301 0.20271-0.1419 1.0136-0.6284 1.7636-1.1149 4.1759-2.6352 8.8382-4.7434 13.622-6.1624 0.56759-0.16217 1.3784-0.38515 1.8244-0.46624 0.44596-0.08109 1.1757-0.26352 1.6217-0.38515 2.4731-0.64868 8.3112-1.2974 10.44-1.1352 0.60813 0.06081 2.3515 0.18244 3.8515 0.2838zm37.643 34.461c0.81085 0.4865 1.0136 1.1757 0.58786 1.9866-0.28379 0.56759-1.4798 1.6217-2.1487 1.9258-0.16216 0.0811-0.56759 0.30406-0.9122 0.50677-2.5744 1.5812-7.7233 4.0948-10.582 5.1894-0.4865 0.18244-1.2568 0.46624-1.723 0.64868-0.48651 0.18244-1.1757 0.44596-1.5406 0.60813-0.36488 0.16217-0.79057 0.2838-0.95274 0.2838s-0.58786 0.12163-0.95274 0.28379c-1.642 0.68922-6.3854 1.8244-10.095 2.4325-5.8584 0.95274-14.109 0.99329-18.954 0.0811-0.66895-0.12162-1.6622-0.28379-2.2298-0.36488-1.0136-0.14189-2.0879-0.38515-4.1556-0.95274-2.7771-0.75003-3.3853-0.95274-4.1556-1.2163-0.44596-0.18244-1.1555-0.42569-1.5609-0.58786-1.8244-0.66895-2.6555-1.0338-5.2097-2.2906-3.4461-1.7028-3.6691-1.8244-3.6691-2.0676 0-0.2838 0.52705-0.22298 0.81084 0.12162 0.1419 0.16217 0.48651 0.30407 0.79057 0.30407 0.30407 0 0.64868 0.10136 0.7703 0.22298 0.12163 0.12163 0.52705 0.2838 0.89193 0.38516 0.38515 0.10135 1.3379 0.38515 2.1082 0.66894 4.0542 1.3784 10.298 2.7772 13.886 3.0812 0.72976 0.0608 1.9663 0.18244 2.7366 0.30407 4.6826 0.64868 15.69-0.0811 20.089-1.3379 0.56759-0.16217 1.196-0.2838 1.3987-0.2838 0.18244 0 0.7703-0.12163 1.2974-0.2838 0.50678-0.16216 1.4798-0.44596 2.1487-0.6284 0.66895-0.18244 1.5203-0.46624 1.8852-0.62841 0.36488-0.16216 0.79057-0.28379 0.95274-0.28379s0.58786-0.12163 0.95274-0.2838 1.723-0.72976 3.0001-1.2568c1.2771-0.54732 3.4664-1.5609 4.8651-2.2906 3.1826-1.6217 3.5474-1.8244 5.2705-2.9596 1.5811-1.0136 2.919-1.723 3.3447-1.723 0.22298 0 0.70949 0.18244 1.0541 0.40543zm-8.4531 0.40542c0 0.12163-0.20271 0.30407-0.44596 0.40542-0.26353 0.12163-0.72977 0.38515-1.0744 0.58786-2.0271 1.2974-6.8111 3.6691-9.2234 4.5813-0.50678 0.18244-1.2163 0.46624-1.5812 0.62841-0.36488 0.16216-0.81084 0.28379-1.0136 0.28379-0.18244 0-0.68922 0.12163-1.1555 0.2838-2.4528 0.85138-3.811 1.0338-7.703 1.0338-3.2231 0-4.034-0.0608-4.9664-0.38515-0.60813-0.20271-1.2568-0.42569-1.419-0.46623-0.26352-0.0811-0.26352-0.10136 0-0.26353 0.16217-0.12162 1.2974-0.20271 2.5136-0.20271 2.6961 0 7.5003-0.72976 10.075-1.5406 0.52705-0.16217 1.1149-0.2838 1.3176-0.2838 0.20271 0 0.72976-0.12163 1.196-0.2838 0.44596-0.14189 1.3582-0.42569 2.0271-0.6284 0.66895-0.20271 1.865-0.58786 2.6352-0.85139 0.79057-0.28379 1.723-0.56759 2.1082-0.66895 0.36488-0.10135 0.7703-0.26352 0.89193-0.38515 0.12162-0.12162 0.38515-0.22298 0.56759-0.22298 0.34461 0 2.8988-1.0338 3.8312-1.5406 0.60813-0.32433 1.419-0.36488 1.419-0.0811zm-82.564 2.5542c0.87166 0.50678 1.723 0.99329 1.8852 1.0946 1.5001 0.9122 9.4058 4.6624 9.8112 4.6624 0.16217 0 0.34461 0.0811 0.42569 0.20271 0.06081 0.10136 0.40542 0.2838 0.7703 0.38516 0.36488 0.10135 1.1555 0.38515 1.7636 0.6284 0.60813 0.24325 1.3987 0.50678 1.723 0.60813 0.34461 0.0811 0.83112 0.24326 1.1149 0.34461 0.48651 0.20272 1.7028 0.5676 3.9123 1.1555 0.56759 0.16217 1.5609 0.44596 2.1893 0.60813 0.6284 0.18244 1.2974 0.32434 1.5203 0.32434 0.7703 0 3.5272 0.68922 3.4866 0.85139-0.04054 0.10135-0.79057 0.50678-1.6825 0.89193l-1.6217 0.70949-1.1149-0.34461c-0.60813-0.18244-1.4798-0.44597-1.9258-0.58787-0.44596-0.14189-1.3582-0.40542-2.0271-0.60813-0.66895-0.20271-1.4392-0.44596-1.723-0.54732s-1.1352-0.40542-1.9258-0.66895c-1.9866-0.68922-3.0812-1.0946-3.5069-1.2974-0.18244-0.10135-0.75003-0.34461-1.2568-0.52705-1.0744-0.42569-4.6218-2.0474-5.0678-2.3312-0.16217-0.10135-0.75003-0.42569-1.3176-0.70949-0.54732-0.28379-1.2771-0.70949-1.6217-0.9122-0.32434-0.22298-0.75003-0.46623-0.9122-0.54732-0.97301-0.44596-5.0678-3.8312-5.0678-4.1961 0-0.30407 0.72976-0.0405 2.169 0.81084zm-2.3717 5.4529c0.1419 0.16216 0.32434 0.30406 0.42569 0.30406 0.08109 0 0.54732 0.24326 1.0338 0.54732 0.48651 0.32434 1.0541 0.66895 1.2771 0.81085 0.48651 0.30407 5.6151 2.838 6.4868 3.2028 0.34461 0.1419 0.93247 0.40542 1.3176 0.56759 0.38515 0.16217 1.0946 0.44596 1.5811 0.6284 0.46624 0.18244 1.2365 0.46624 1.723 0.64868 2.4325 0.93247 4.9462 1.7028 7.7436 2.3717 0.66895 0.16217 1.6217 0.40542 2.1285 0.54732 0.50678 0.12163 1.4798 0.30407 2.1893 0.40543 1.5406 0.18244 1.7433 0.32433 0.75003 0.52704-1.4392 0.26353-9.5072-0.99328-13.278-2.0676-4.0745-1.1757-8.8585-3.6691-11.656-6.0813-1.9258-1.642-2.5339-2.2501-2.5339-2.4731 0-0.34461 0.50678-0.30406 0.81084 0.0608zm39.934 7.2976c1.6217 0.16217 3.7299 0.30407 4.6826 0.30407 1.723 0 7.5206 0.50678 8.4936 0.72976 0.48651 0.10136 0.48651 0.12163 0.10136 0.34461-0.2838 0.16217-2.3312 0.22298-6.4868 0.22298-5.1286 0-6.2435-0.0608-7.0949-0.34461-0.54732-0.18244-1.2163-0.34461-1.4595-0.34461-0.24325 0-0.75003-0.12162-1.1149-0.28379-0.36488-0.16217-0.83112-0.34461-1.0338-0.40542-0.52705-0.16217-0.22298-0.52705 0.42569-0.52705 0.30407 0 1.8649 0.14189 3.4866 0.30406z"/>
   <path id="path3444" d="m76.463 77.78c-1.0946 0.20271-1.7636 0.44596-1.8852 0.66895-0.10136 0.18244-0.38515 1.3379-0.6284 2.5744-0.44596 2.2298-0.44596 2.2501-0.06081 3.811 0.24325 1.0541 0.66895 2.0474 1.2568 2.9596 0.89193 1.419 1.0338 1.7636 0.64868 1.7636-0.64868 0-3.2637-2.8177-3.4461-3.7096-0.12163-0.56759-0.48651-0.50678-0.54732 0.08109-0.10136 0.83112 1.2365 3.4461 2.169 4.2975 1.2568 1.1352 1.0946 1.5001-0.32434 0.75003-0.79057-0.40542-2.1893-1.7839-2.6352-2.5744-0.72976-1.2974-1.0744-2.838-1.0744-4.7232 0-2.4731-0.24325-2.8785-0.72976-1.2974-0.56759 1.9055-0.36488 4.3988 0.54732 6.4665 0.68922 1.5811 2.7974 3.8515 4.5407 4.8853 2.7366 1.6217 4.9259 2.0271 7.9057 1.419 5.8989-1.2163 9.0207-4.9664 9.0207-10.865 0-2.9393-0.81085-5.3516-2.0677-6.1624-1.196-0.7703-9.4666-0.99328-12.69-0.34461z"/>
   <path id="path3446" d="m136.83 115.95c-2.9393 1.8447-8.6152 4.7029-11.96 6.0408-0.60813 0.22298-1.3784 0.56759-1.6825 0.72976-0.32434 0.16217-0.72976 0.2838-0.93247 0.2838-0.18244 0-0.44597 0.10135-0.56759 0.22298-0.12163 0.12162-0.52705 0.28379-0.89193 0.38515-0.87166 0.22298-3.7096 1.1757-4.6016 1.5406-0.36488 0.16216-0.85139 0.28379-1.0744 0.28379-0.22298 0-0.58786 0.10136-0.81085 0.20271-0.20271 0.12163-0.7703 0.2838-1.2365 0.38515-0.4865 0.10136-1.7636 0.40543-2.8785 0.70949-1.0946 0.2838-2.2096 0.52705-2.4933 0.52705-0.2838 0-0.79058 0.1419-1.1352 0.2838-0.36488 0.16217-0.97301 0.38515-1.3582 0.50678-1.0338 0.28379 15.649 0.28379 17.068 0 0.58786-0.12163 1.5812-0.34461 2.1893-0.48651 0.60813-0.1419 1.8447-0.42569 2.7366-0.60813 0.89193-0.20272 2.1285-0.48651 2.7366-0.64868 3.8515-1.0338 5.3921-1.4595 6.2841-1.7839 0.38515-0.1419 1.2974-0.44596 2.0271-0.68922 3.6285-1.1554 4.3178-1.5001 4.1353-2.1082-0.0608-0.24325-0.22298-0.56759-0.34461-0.72976-0.24325-0.28379-0.62841-0.93247-0.89193-1.4392-0.0811-0.16217-0.52705-0.97301-1.0136-1.7839-0.4865-0.81084-0.87166-1.5406-0.87166-1.6217-0.0203-0.22298-0.75003-1.0541-0.95274-1.0338-0.0811 0-0.75003 0.38515-1.4798 0.83111z"/>
   <path id="path3448" d="m142.91 125.74c-1.6622 0.58786-2.169 0.75003-2.838 0.9122-2.7163 0.66895-4.8448 1.4392-4.3786 1.6217 0.16216 0.0608 2.5542 0.0811 5.2908 0.0405 4.7232-0.0608 4.9664-0.0811 4.9664-0.44596 0-0.20271-0.0811-0.4257-0.18244-0.50678-0.12163-0.0608-0.40543-0.52705-0.64868-1.0136-0.50678-1.0136-0.85139-1.0946-2.2096-0.60813z"/>
  </g>
 </g>
</svg>
