<?xml version="1.0" encoding="UTF-8" standalone="no"?>
<!-- Created with Sodipodi ("http://www.sodipodi.com/") -->

<svg
   xmlns:dc="http://purl.org/dc/elements/1.1/"
   xmlns:cc="http://creativecommons.org/ns#"
   xmlns:rdf="http://www.w3.org/1999/02/22-rdf-syntax-ns#"
   xmlns:svg="http://www.w3.org/2000/svg"
   xmlns="http://www.w3.org/2000/svg"
   xmlns:sodipodi="http://sodipodi.sourceforge.net/DTD/sodipodi-0.dtd"
   xmlns:inkscape="http://www.inkscape.org/namespaces/inkscape"
   inkscape:version="0.91 r"
   sodipodi:docname="laughing.svg"
   xml:space="preserve"
   height="330"
   width="360"
   sodipodi:version="0.32"
   id="svg706"
   version="1.1"><metadata
     id="metadata77"><rdf:RDF><cc:Work
         rdf:about=""><dc:format>image/svg+xml</dc:format><dc:type
           rdf:resource="http://purl.org/dc/dcmitype/StillImage" /><dc:title></dc:title></cc:Work></rdf:RDF></metadata><defs
     id="defs708" /><sodipodi:namedview
     inkscape:current-layer="svg706"
     inkscape:window-y="24"
     inkscape:window-x="0"
     inkscape:window-height="1056"
     inkscape:window-width="1920"
     inkscape:cy="467.81776"
     inkscape:cx="623.9407"
     inkscape:zoom="0.68797608"
     id="base"
     showgrid="false"
     units="px"
     inkscape:window-maximized="1" /><circle
     transform="matrix(-0.34054596,-0.94022787,0.94022787,-0.34054596,0,0)"
     id="path1366"
     style="fill:#ff0000;fill-opacity:0.75;fill-rule:evenodd;stroke:#000000;stroke-width:0.85167652px;stroke-linecap:butt;stroke-linejoin:miter;stroke-opacity:1"
     cx="-219.42256"
     cy="106.54019"
     r="122.55656" /><ellipse
     id="path1065"
     style="fill:#ffffff;fill-opacity:1;fill-rule:evenodd;stroke:none;stroke-width:1pt;stroke-linecap:butt;stroke-linejoin:miter;stroke-opacity:1"
     cx="174.63164"
     cy="170.54645"
     rx="152.74532"
     ry="152.7453" /><ellipse
     id="path1066"
     style="fill:#ffffff;fill-opacity:1;fill-rule:evenodd;stroke:none;stroke-width:1pt;stroke-linecap:butt;stroke-linejoin:miter;stroke-opacity:1"
     cx="336.63754"
     cy="169.55432"
     rx="26.070728"
     ry="26.070702" /><path
     id="path663"
     d="m 334.22211,169.99759 c 0,87.87791 -71.31166,159.07986 -159.35414,159.07986 -87.987622,0 -159.299284,-71.20195 -159.299284,-159.07986 0,-87.823063 71.311662,-159.025011 159.299284,-159.025011 88.04248,0 159.35414,71.201948 159.35414,159.025011 z m -10.53219,-0.21942 c 0,81.84384 -66.64897,148.27338 -148.82195,148.27338 -82.227832,0 -148.821955,-66.42954 -148.821955,-148.27338 0,-81.898713 66.594123,-148.273411 148.821955,-148.273411 82.17298,0 148.82195,66.374698 148.82195,148.273411 z"
     style="font-size:12px;fill:#004b73;fill-opacity:0.99610003;fill-rule:evenodd;stroke:none;stroke-width:1.25"
     inkscape:connector-curvature="0" /><path
     id="path666"
     d="m 289.71591,170.90055 c 0,63.79651 -51.8381,115.52489 -115.74432,115.52489 -63.96107,0 -115.744312,-51.72838 -115.744312,-115.52489 0,-63.85137 51.783242,-115.579751 115.744312,-115.579751 63.90622,0 115.74432,51.728381 115.74432,115.579751 z m -18.04734,0.21942 c 0,52.93519 -43.06127,95.8319 -96.16103,95.8319 -53.15462,0 -96.215892,-42.89671 -96.215892,-95.8319 0,-52.9352 43.061272,-95.831911 96.215892,-95.831911 53.09976,0 96.16103,42.896711 96.16103,95.831911 z"
     style="font-size:12px;fill:#004b73;fill-opacity:1;fill-rule:evenodd;stroke:none;stroke-width:1.25"
     inkscape:connector-curvature="0" /><rect
     y="50.00695"
     x="167.91988"
     height="20.856384"
     width="15.642282"
     id="rect667"
     style="font-size:12px;fill:#004b73;fill-opacity:1;fill-rule:evenodd;stroke-width:1" /><path
     id="path670"
     d="m 369.00026,169.99759 c 0,18.92501 -15.35944,34.28445 -34.2296,34.28445 -18.92502,0 -34.28445,-15.35944 -34.28445,-34.28445 0,-18.87017 15.35943,-34.2296 34.28445,-34.2296 18.87016,0 34.2296,15.35943 34.2296,34.2296 z m -19.69299,0.32913 c 0,8.61225 -7.02146,15.63371 -15.63371,15.63371 -8.66711,0 -15.68857,-7.02146 -15.68857,-15.63371 0,-8.66711 7.02146,-15.68857 15.68857,-15.68857 8.61225,0 15.63371,7.02146 15.63371,15.68857 z"
     style="font-size:12px;fill:#004b73;fill-opacity:1;fill-rule:evenodd;stroke:none;stroke-width:1"
     inkscape:connector-curvature="0" /><path
     id="path691"
     d="m 260.44196,185.96043 c -7.40544,40.04424 -42.56757,70.37912 -84.75116,70.37912 -42.18359,0 -77.345732,-30.33488 -84.806032,-70.37912 l 21.558072,0 c 6.91174,28.46981 32.6388,49.53418 63.24796,49.53418 30.60916,0 56.33621,-21.06437 63.24796,-49.53418 l 21.5032,0 z m -147.99912,0 126.49592,0"
     style="font-size:12px;fill:#004b73;fill-rule:evenodd"
     inkscape:connector-curvature="0" /><rect
     y="185.94592"
     x="101.25387"
     height="18.313845"
     width="148.97415"
     id="rect709"
     style="font-size:12px;fill:#004b73;fill-opacity:1;fill-rule:evenodd;stroke-width:1" /><path
     sodipodi:nodetypes="ccc"
     id="path716"
     d="m 154.13984,181.10421 c -17.31824,-13.78013 -27.17321,-13.78013 -43.94747,0 5.57205,-24.9532 37.06899,-24.9532 43.94747,0 z"
     style="font-size:12px;fill:#004b73;fill-opacity:1;fill-rule:evenodd;stroke:none;stroke-width:1"
     inkscape:connector-curvature="0" /><path
     sodipodi:nodetypes="ccc"
     id="path741"
     d="m 239.24173,181.10421 c -17.31824,-13.78013 -27.17321,-13.78013 -43.94747,0 5.57205,-24.9532 37.06899,-24.9532 43.94747,0 z"
     style="font-size:12px;fill:#004b73;fill-opacity:1;fill-rule:evenodd;stroke:none;stroke-width:1"
     inkscape:connector-curvature="0" /><rect
     y="185.68256"
     x="274.80878"
     height="18.577206"
     width="59.410912"
     id="rect672"
     style="font-size:12px;fill:#004b73;fill-opacity:1;fill-rule:evenodd;stroke-width:1" /><g
     transform="translate(0,4.7635967e-4)"
     style="font-style:normal;font-variant:normal;font-weight:normal;font-stretch:condensed;font-size:28px;line-height:100%;font-family:Impact;writing-mode:lr-tb;text-anchor:start;fill:#004b73;fill-opacity:1;stroke:none;stroke-width:1px;stroke-linecap:butt;stroke-linejoin:miter;stroke-opacity:1"
     id="text1368"><path
       d="m 132.84487,31.547041 6.85847,21.045408 -5.47258,1.783457 -6.85848,-21.045407 5.47259,-1.783458 z"
       style="font-style:normal;font-variant:normal;font-weight:normal;font-stretch:condensed;font-size:28px;line-height:100%;font-family:Impact;writing-mode:lr-tb;text-anchor:start;fill:#004b73;fill-opacity:1"
       id="path8110" /><path
       d="m 148.01183,29.412558 0.58931,2.795991 1.4582,-0.307346 0.59213,2.809369 -1.45819,0.307346 2.00198,9.498344 q 0.36938,1.752511 0.58559,1.916525 0.22958,0.161193 1.554,-0.117956 l 0.60341,2.862881 -2.1806,0.459609 q -1.84616,0.389118 -2.66647,0.408322 -0.82314,0.0058 -1.54075,-0.415784 -0.72044,-0.434987 -1.01704,-1.113002 -0.29942,-0.691393 -0.85772,-3.340226 l -1.90047,-9.016738 -1.16388,0.245313 -0.59214,-2.809369 1.16388,-0.245313 -0.58931,-2.795991 5.41807,-1.141975 z"
       style="font-style:normal;font-variant:normal;font-weight:normal;font-stretch:condensed;font-size:28px;line-height:100%;font-family:Impact;writing-mode:lr-tb;text-anchor:start;fill:#004b73;fill-opacity:1"
       id="path8112" /><path
       d="m 157.90056,26.305605 0.55977,4.94498 q 0.63261,-0.732054 1.41081,-1.150368 0.79178,-0.419851 1.72916,-0.525963 1.44002,-0.163013 2.52836,0.456782 1.10193,0.618257 1.42848,1.558194 0.33859,0.924814 0.62617,3.465229 l 1.40714,12.430375 -5.48839,0.621292 -1.43635,-12.688491 q -0.17839,-1.575873 -0.39216,-2.005727 -0.20019,-0.431392 -0.74359,-0.369878 -0.50265,0.0569 -0.62697,0.538786 -0.12432,0.481886 0.031,1.853982 l 1.45635,12.865098 -5.48838,0.621292 -2.48979,-21.99429 5.48839,-0.621293 z"
       style="font-style:normal;font-variant:normal;font-weight:normal;font-stretch:condensed;font-size:28px;line-height:100%;font-family:Impact;writing-mode:lr-tb;text-anchor:start;fill:#004b73;fill-opacity:1"
       id="path8114" /><path
       d="m 182.06025,35.707196 -0.0285,4.443268 q -0.0157,2.447215 -0.26913,3.594052 -0.25336,1.133165 -1.06638,2.126022 -0.81294,0.979186 -2.08746,1.449543 -1.26077,0.456774 -2.90136,0.446259 -1.83199,-0.01174 -3.10091,-0.416365 -1.26883,-0.418296 -1.97458,-1.229476 -0.692,-0.824764 -0.98541,-1.975106 -0.29333,-1.164013 -0.27852,-3.474512 l 0.0298,-4.648342 q 0.0162,-2.529245 0.57218,-3.947587 0.55598,-1.418341 1.98334,-2.270539 1.42737,-0.852198 3.64217,-0.838004 1.85933,0.01192 3.18189,0.58095 1.33631,0.55545 2.05521,1.448748 0.7189,0.893297 0.97261,1.838302 0.26739,0.945092 0.25503,2.872787 z m -5.51456,-1.402557 q 0.009,-1.394503 -0.13917,-1.750928 -0.14802,-0.370097 -0.6402,-0.373251 -0.49218,-0.0032 -0.6586,0.364928 -0.16634,0.35441 -0.17528,1.748912 l -0.0525,8.189285 q -0.008,1.28513 0.15328,1.682658 0.16161,0.383856 0.64011,0.386922 0.49218,0.0032 0.64485,-0.351343 0.16633,-0.35441 0.17387,-1.530167 l 0.0536,-8.367016 z"
       style="font-style:normal;font-variant:normal;font-weight:normal;font-stretch:condensed;font-size:28px;line-height:100%;font-family:Impact;writing-mode:lr-tb;text-anchor:start;fill:#004b73;fill-opacity:1"
       id="path8116" /><path
       d="m 198.6415,31.179417 -2.2675,18.000322 -5.57508,-0.702293 0.28291,-1.480153 q -0.6842,0.837066 -1.5833,1.192323 -0.88384,0.343401 -1.96901,0.206702 -1.23439,-0.155495 -1.99359,-0.692089 -0.7592,-0.536595 -1.06201,-1.305076 -0.28925,-0.766772 -0.2868,-1.55192 0.004,-0.798712 0.29635,-3.118271 l 1.52932,-12.140383 5.48013,0.690332 -1.543,12.2489 q -0.26485,2.102524 -0.19232,2.511278 0.0861,0.410463 0.65581,0.48223 0.61041,0.07689 0.77019,-0.316376 0.17334,-0.391562 0.45187,-2.602604 l 1.5259,-12.113253 5.48013,0.690331 z"
       style="font-style:normal;font-variant:normal;font-weight:normal;font-stretch:condensed;font-size:28px;line-height:100%;font-family:Impact;writing-mode:lr-tb;text-anchor:start;fill:#004b73;fill-opacity:1"
       id="path8118" /><path
       d="m 214.93259,34.989556 -3.38289,13.55696 q -0.68518,2.745882 -1.01975,3.521954 -0.31799,0.766117 -1.30914,1.462896 -0.99446,0.710045 -2.48989,0.830077 -1.48547,0.136607 -3.56809,-0.383074 -2.56017,-0.638843 -3.89373,-1.90162 -1.33686,-1.249511 -0.75439,-3.809656 l 5.19993,1.297547 q -0.29129,1.167332 0.55768,1.379176 0.6102,0.152263 0.89854,-0.156244 0.28835,-0.308507 0.57302,-1.449308 l 0.33101,-1.326513 q -0.84536,0.451337 -1.69418,0.577716 -0.83556,0.129689 -1.67126,-0.07885 -1.4459,-0.360798 -2.24208,-1.179478 -0.78292,-0.815371 -0.89279,-1.843257 -0.10657,-1.041151 0.33036,-2.792148 l 1.59545,-6.393791 q 0.6256,-2.507109 1.80237,-3.38303 1.17676,-0.87592 3.02062,-0.415821 1.00815,0.251566 1.72797,0.868009 0.73309,0.619753 1.17786,1.604385 l 0.7157,-1.230521 4.98768,1.244586 z m -6.53752,3.328747 q 0.30122,-1.207127 0.23805,-1.575166 -0.0499,-0.364729 -0.52744,-0.483891 -0.46428,-0.115853 -0.75925,0.219185 -0.27839,0.325083 -0.55644,1.439353 l -1.47629,5.916247 q -0.2946,1.180596 -0.23805,1.575165 0.0599,0.381305 0.52413,0.497157 0.53061,0.132403 0.79571,-0.25236 0.2651,-0.384764 0.63914,-1.883723 l 1.36044,-5.451967 z"
       style="font-style:normal;font-variant:normal;font-weight:normal;font-stretch:condensed;font-size:28px;line-height:100%;font-family:Impact;writing-mode:lr-tb;text-anchor:start;fill:#004b73;fill-opacity:1"
       id="path8120" /><path
       d="m 225.48636,34.461667 -1.76812,4.651874 q 0.89771,-0.360846 1.78108,-0.376114 0.89615,-0.01041 1.77796,0.324754 1.35467,0.514891 2.03808,1.564457 0.69619,1.054424 0.55578,2.039514 -0.12276,0.977168 -1.03111,3.367005 l -4.44458,11.693583 -5.16307,-1.962417 4.53687,-11.936402 q 0.56347,-1.482465 0.57041,-1.96249 0.0197,-0.475168 -0.49148,-0.669467 -0.47285,-0.179727 -0.80415,0.191642 -0.33129,0.371369 -0.82189,1.662136 l -4.60003,12.10254 -5.16306,-1.962418 7.86424,-20.690615 5.16307,1.962418 z"
       style="font-style:normal;font-variant:normal;font-weight:normal;font-stretch:condensed;font-size:28px;line-height:100%;font-family:Impact;writing-mode:lr-tb;text-anchor:start;fill:#004b73;fill-opacity:1"
       id="path8122" /><path
       d="m 240.37665,42.738809 -1.26153,2.563863 1.33713,0.657928 -1.26757,2.576131 -1.33713,-0.657929 -4.28559,8.709775 q -0.79073,1.607015 -0.72179,1.869493 0.0812,0.268514 1.29566,0.866082 l -1.29171,2.6252 -1.99957,-0.983875 q -1.69288,-0.832974 -2.35026,-1.324041 -0.65134,-0.503334 -0.95589,-1.277914 -0.29851,-0.786848 -0.11354,-1.503411 0.19101,-0.72883 1.38614,-3.157753 l 4.06829,-8.268153 -1.06725,-0.525135 1.26757,-2.576131 1.06725,0.525136 1.26154,-2.563863 4.96825,2.444597 z"
       style="font-style:normal;font-variant:normal;font-weight:normal;font-stretch:condensed;font-size:28px;line-height:100%;font-family:Impact;writing-mode:lr-tb;text-anchor:start;fill:#004b73;fill-opacity:1"
       id="path8124" /><path
       d="m 263.11469,59.990735 -12.17086,13.633353 -4.9262,-3.428705 q 1.49393,-3.007971 4.06719,-7.829952 -1.53852,1.82756 -3.25417,3.598473 l -2.75432,2.880303 -4.9262,-3.428705 8.44536,-16.226361 3.90505,2.717971 q -0.36125,0.614754 -4.94051,9.204351 0.62967,-0.76108 6.93792,-7.814124 l 3.75917,2.616438 -5.00783,9.157489 q 2.80621,-3.577112 6.96036,-7.798503 l 3.90504,2.717972 z"
       style="font-style:normal;font-variant:normal;font-weight:normal;font-stretch:condensed;font-size:28px;line-height:100%;font-family:Impact;writing-mode:lr-tb;text-anchor:start;fill:#004b73;fill-opacity:1"
       id="path8126" /><path
       d="m 272.4112,63.09491 -3.37165,3.660348 q 0.96752,-0.001 1.79318,0.313406 0.83572,0.323687 1.52958,0.962819 1.06592,0.981854 1.30987,2.210318 0.254,1.237727 -0.24276,2.099901 -0.47745,0.86138 -2.20958,2.741833 l -8.47545,9.20115 -4.06258,-3.742162 8.65143,-9.392211 q 1.07449,-1.166485 1.25949,-1.609483 0.19505,-0.433735 -0.20718,-0.804246 -0.37207,-0.342723 -0.81773,-0.121238 -0.44566,0.221484 -1.3812,1.23713 l -8.77185,9.522938 -4.06259,-3.742162 14.99644,-16.280503 4.06258,3.742162 z"
       style="font-style:normal;font-variant:normal;font-weight:normal;font-stretch:condensed;font-size:28px;line-height:100%;font-family:Impact;writing-mode:lr-tb;text-anchor:start;fill:#004b73;fill-opacity:1"
       id="path8128" /><path
       d="m 275.70118,82.181877 -3.37148,-3.934785 0.924,-0.791719 q 1.59883,-1.369942 2.77189,-1.744916 1.19233,-0.373488 2.80863,0.168061 1.61629,0.54155 3.13746,2.316875 1.82362,2.128313 1.99089,3.857431 0.17765,1.720222 -0.73604,2.881191 -0.9033,1.152073 -4.31898,4.078766 l -6.91442,5.924551 -3.49602,-4.080132 1.22507,-1.049696 q -1.06626,0.247462 -1.96486,-0.04483 -0.87932,-0.290807 -1.59988,-1.13175 -0.94294,-1.100494 -1.12212,-2.549341 -0.15991,-1.447361 1.92688,-3.235401 l 1.13164,-0.969634 q 1.54692,-1.325463 2.52565,-1.317877 0.97872,0.0076 3.38083,1.298149 2.58005,1.372155 2.98491,1.277319 0.40485,-0.09484 1.26656,-0.833182 1.07973,-0.925155 1.25924,-1.367034 0.19879,-0.440394 -0.12146,-0.814146 -0.36472,-0.425663 -0.734,-0.289299 -0.35889,0.127469 -1.51129,1.114894 l -1.4431,1.236506 z m -0.75087,2.947919 q -1.60001,-0.375459 -2.24068,-0.114577 -0.63177,0.271265 -1.56616,1.07188 -1.06934,0.916259 -1.26516,1.318097 -0.18692,0.41222 0.16891,0.827501 0.33804,0.394517 0.67468,0.304117 0.35591,-0.08891 1.39412,-0.978485 l 2.83429,-2.428533 z"
       style="font-style:normal;font-variant:normal;font-weight:normal;font-stretch:condensed;font-size:28px;line-height:100%;font-family:Impact;writing-mode:lr-tb;text-anchor:start;fill:#004b73;fill-opacity:1"
       id="path8130" /><path
       d="m 293.21269,89.4086 -2.33325,1.649492 0.86026,1.21686 -2.3444,1.657385 -0.86027,-1.21686 -7.92633,5.603539 q -1.46247,1.033892 -1.52733,1.297407 -0.057,0.274679 0.72438,1.379897 l -2.38907,1.68896 -1.28644,-1.81971 q -1.08914,-1.540613 -1.43199,-2.286096 -0.33168,-0.753375 -0.22911,-1.579333 0.11373,-0.83385 0.6186,-1.374945 0.51603,-0.548987 2.72647,-2.111664 l 7.52444,-5.319416 -0.68663,-0.971255 2.34441,-1.657385 0.68663,0.971255 2.33324,-1.649492 3.19639,4.521361 z"
       style="font-style:normal;font-variant:normal;font-weight:normal;font-stretch:condensed;font-size:28px;line-height:100%;font-family:Impact;writing-mode:lr-tb;text-anchor:start;fill:#004b73;fill-opacity:1"
       id="path8132" /><path
       d="m 302.73174,102.15711 -19.35268,10.74346 -2.79369,-5.03241 19.35267,-10.743458 2.7937,5.032408 z"
       style="font-style:normal;font-variant:normal;font-weight:normal;font-stretch:condensed;font-size:28px;line-height:100%;font-family:Impact;writing-mode:lr-tb;text-anchor:start;fill:#004b73;fill-opacity:1"
       id="path8134" /><path
       d="m 297.95461,108.49026 3.03981,-2.28376 3.04928,-1.48264 1.82939,3.76242 -3.04928,1.48264 -3.63167,1.06651 -1.23753,-2.54517 z"
       style="font-style:normal;font-variant:normal;font-weight:normal;font-stretch:condensed;font-size:28px;line-height:100%;font-family:Impact;writing-mode:lr-tb;text-anchor:start;fill:#004b73;fill-opacity:1"
       id="path8136" /><path
       d="m 311.91501,123.11852 -20.614,8.06295 -2.012,-5.14395 1.22233,-0.4781 q -1.05281,-0.43968 -1.75352,-1.10515 -0.70071,-0.66548 -1.04932,-1.55676 -0.46814,-1.19686 -0.18788,-2.31943 0.29299,-1.12756 1.021,-1.70592 0.733,-0.56563 2.60468,-1.29772 l 7.90691,-3.09271 q 1.94808,-0.76197 2.85759,-0.83879 0.91448,-0.0641 1.87426,0.58815 0.97251,0.64725 1.45559,1.8823 0.37351,0.95494 0.33851,1.87883 -0.03,0.93661 -0.46359,1.8549 l 4.78743,-1.87255 2.01201,5.14395 z m -9.98258,-2.02634 q 0.92948,-0.36356 1.18305,-0.65359 0.25855,-0.27729 0.0743,-0.7484 -0.17929,-0.45837 -0.53688,-0.50935 -0.33988,-0.0432 -1.33302,0.34523 l -8.27615,3.23714 q -1.03134,0.40339 -1.30262,0.68567 -0.25855,0.27729 -0.0892,0.7102 0.19422,0.49657 0.61548,0.52265 0.43398,0.0211 1.8473,-0.53171 l 7.81778,-3.05784 z"
       style="font-style:normal;font-variant:normal;font-weight:normal;font-stretch:condensed;font-size:28px;line-height:100%;font-family:Impact;writing-mode:lr-tb;text-anchor:start;fill:#004b73;fill-opacity:1"
       id="path8138" /><path
       d="m 317.62516,145.34435 -21.6224,4.73497 -1.18154,-5.39558 1.28211,-0.28077 q -0.97095,-0.59913 -1.55879,-1.36614 -0.58783,-0.76701 -0.79256,-1.70188 -0.27491,-1.25541 0.1777,-2.32024 0.46597,-1.06776 1.27558,-1.52496 0.81254,-0.44386 2.77578,-0.87378 l 8.2937,-1.81619 q 2.04338,-0.44746 2.95369,-0.38089 0.91324,0.0799 1.75903,0.87443 0.85913,0.79157 1.14282,2.08705 0.21935,1.00165 0.0401,1.90865 -0.17634,0.92036 -0.74838,1.75941 l 5.02163,-1.09966 1.18155,5.39558 z m -9.54203,-3.56476 q 0.97494,-0.2135 1.27081,-0.46024 0.29879,-0.23338 0.19058,-0.72753 -0.10529,-0.48079 -0.45048,-0.58715 -0.32892,-0.0959 -1.37064,0.1322 l -8.68101,1.90101 q -1.08179,0.23689 -1.39393,0.4732 -0.29879,0.23338 -0.19936,0.68746 0.11406,0.52086 0.52604,0.61259 0.42532,0.0888 1.90777,-0.23583 l 8.20022,-1.79571 z"
       style="font-style:normal;font-variant:normal;font-weight:normal;font-stretch:condensed;font-size:28px;line-height:100%;font-family:Impact;writing-mode:lr-tb;text-anchor:start;fill:#004b73;fill-opacity:1"
       id="path8140" /><path
       d="m 309.23945,163.34456 -4.42234,0.43167 q -2.43569,0.23775 -3.6026,0.10439 -1.15331,-0.13468 -2.225,-0.84055 -1.05808,-0.70719 -1.65786,-1.92617 -0.58484,-1.20671 -0.74423,-2.83957 -0.17798,-1.82336 0.0931,-3.12735 0.28469,-1.30532 1.01845,-2.09126 0.74869,-0.77366 1.86248,-1.18459 1.12739,-0.41226 3.42701,-0.63673 l 4.62645,-0.4516 q 2.51733,-0.24572 3.98561,0.16043 1.46828,0.40616 2.46366,1.73763 0.99539,1.33147 1.21057,3.53584 0.18064,1.85057 -0.24842,3.22493 -0.41412,1.38664 -1.2282,2.19415 -0.81407,0.80752 -1.72773,1.1577 -0.91233,0.3638 -2.83095,0.55108 z m 0.82412,-5.63014 q 1.38794,-0.13548 1.72711,-0.31969 0.35279,-0.18554 0.30497,-0.6754 -0.0478,-0.48986 -0.43115,-0.61728 -0.36973,-0.12876 -1.75766,0.007 l -8.15072,0.79561 q -1.27907,0.12485 -1.65774,0.32666 -0.36507,0.20048 -0.31858,0.67673 0.0478,0.48986 0.41622,0.605 0.36972,0.12876 1.53994,0.0145 l 8.32761,-0.81288 z"
       style="font-style:normal;font-variant:normal;font-weight:normal;font-stretch:condensed;font-size:28px;line-height:100%;font-family:Impact;writing-mode:lr-tb;text-anchor:start;fill:#004b73;fill-opacity:1"
       id="path8142" /><path
       d="m 314.44443,190.48842 -17.91207,-3.62712 0.47401,-5.98321 q 3.35076,-0.22827 8.81229,-0.44018 -2.3542,-0.40595 -4.74888,-0.99339 l -3.87661,-0.92428 0.47401,-5.9832 18.27055,-0.89777 -0.37576,4.74296 q -0.71303,-0.002 -10.43956,0.37983 0.97483,0.15952 10.24737,2.04616 l -0.36172,4.56577 -10.43308,0.29806 q 4.50437,0.61743 10.24521,2.07342 l -0.37576,4.74295 z"
       style="font-style:normal;font-variant:normal;font-weight:normal;font-stretch:condensed;font-size:28px;line-height:100%;font-family:Impact;writing-mode:lr-tb;text-anchor:start;fill:#004b73;fill-opacity:1"
       id="path8144" /><path
       d="m 305.81299,197.12948 1.09781,-5.06401 1.18918,0.2578 q 2.05767,0.44607 3.0653,1.15414 1.01808,0.72433 1.56328,2.3394 0.54521,1.61506 0.0499,3.89988 -0.59381,2.73911 -1.87044,3.91725 -1.26328,1.18104 -2.74043,1.15459 -1.46378,-0.0236 -5.85972,-0.97653 l -8.89876,-1.92913 1.13836,-5.25107 1.57666,0.34179 q -0.84149,-0.70003 -1.15161,-1.59264 -0.29965,-0.87634 -0.065,-1.95863 0.30703,-1.41632 1.35316,-2.43459 1.05659,-1.00202 3.74226,-0.4198 l 1.4564,0.31573 q 1.99086,0.43159 2.57625,1.216 0.58538,0.7844 1.00864,3.4782 0.46577,2.88488 0.78598,3.15014 0.32021,0.26527 1.42921,0.50569 1.3896,0.30125 1.85015,0.17726 0.47102,-0.10773 0.5753,-0.58875 0.11876,-0.54782 -0.21304,-0.75964 -0.31843,-0.20893 -1.80156,-0.53045 l -1.85725,-0.40263 z m -2.80256,1.18309 q -0.66769,-1.50172 -1.2627,-1.85454 -0.5979,-0.33946 -1.80044,-0.60016 -1.37623,-0.29835 -1.81473,-0.21154 -0.4414,0.10016 -0.55727,0.63462 -0.11007,0.50774 0.16539,0.72134 0.28591,0.22985 1.62206,0.51951 l 3.64769,0.79077 z"
       style="font-style:normal;font-variant:normal;font-weight:normal;font-stretch:condensed;font-size:28px;line-height:100%;font-family:Impact;writing-mode:lr-tb;text-anchor:start;fill:#004b73;fill-opacity:1"
       id="path8146" /><path
       d="m 300.97668,218.34463 1.56063,-4.63906 0.933,0.31387 q 1.19216,0.40105 1.55111,0.36314 0.36755,-0.0206 0.55064,-0.56485 0.14822,-0.44058 -0.0757,-0.76114 -0.21097,-0.31619 -0.79409,-0.51236 -0.79046,-0.26592 -1.20112,-0.28867 -0.40206,-0.005 -1.02574,0.39059 -0.62803,0.40899 -2.04574,1.83613 -1.88165,1.90575 -3.10624,2.28715 -1.22459,0.38139 -3.10354,-0.25071 -2.09924,-0.7062 -2.99168,-1.61227 -0.87949,-0.90171 -1.03104,-2.38075 -0.14295,-1.46172 0.46299,-3.26292 0.67134,-1.99557 1.77286,-3.21173 1.09716,-1.20321 2.33847,-1.37703 1.24131,-0.17383 3.39238,0.54982 l 0.82933,0.27899 -1.56064,4.63906 -1.08849,-0.36618 q -1.38653,-0.46645 -1.85787,-0.43749 -0.47569,0.0419 -0.65007,0.56025 -0.18745,0.55721 0.0106,0.86904 0.21097,0.3162 1.10509,0.61699 1.23104,0.41413 1.63794,0.23368 0.41126,-0.19342 2.86451,-2.42617 2.07178,-1.87064 3.29142,-2.02291 1.23259,-0.14791 2.68391,0.34033 2.06037,0.69313 2.84915,1.56433 0.80173,0.87555 0.89709,2.35011 0.091,1.48752 -0.48879,3.21096 -0.57543,1.7105 -1.41707,2.75444 -0.83303,1.06126 -1.75934,1.45645 -0.93067,0.40815 -1.58331,0.33285 -0.65699,-0.0624 -1.95281,-0.49828 l -0.99779,-0.33566 z"
       style="font-style:normal;font-variant:normal;font-weight:normal;font-stretch:condensed;font-size:28px;line-height:100%;font-family:Impact;writing-mode:lr-tb;text-anchor:start;fill:#004b73;fill-opacity:1"
       id="path8148" /><path
       d="m 291.21144,220.77253 -1.82817,-0.76668 q -1.43732,-0.60277 -2.21495,-1.32917 -0.77763,-0.7264 -1.06638,-1.84079 -0.29404,-1.1018 -0.0642,-2.25076 l 1.46254,0.61334 q 0.11143,0.93626 0.78779,1.33851 l 0.35954,-0.85735 3.99676,1.67611 -1.43289,3.41679 z"
       style="font-style:normal;font-variant:normal;font-weight:normal;font-stretch:condensed;font-size:28px;line-height:100%;font-family:Impact;writing-mode:lr-tb;text-anchor:start;fill:#004b73;fill-opacity:1"
       id="path8150" /><path
       d="m 301.27752,240.53664 -19.54173,-10.3956 2.70324,-5.08158 19.54173,10.39561 -2.70324,5.08157 z"
       style="font-style:normal;font-variant:normal;font-weight:normal;font-stretch:condensed;font-size:28px;line-height:100%;font-family:Impact;writing-mode:lr-tb;text-anchor:start;fill:#004b73;fill-opacity:1"
       id="path8152" /><path
       d="m 293.36779,239.9695 3.57022,1.30752 2.90325,1.75142 -2.16103,3.58224 -2.90325,-1.75142 -2.87106,-2.46649 1.46187,-2.42327 z"
       style="font-style:normal;font-variant:normal;font-weight:normal;font-stretch:condensed;font-size:28px;line-height:100%;font-family:Impact;writing-mode:lr-tb;text-anchor:start;fill:#004b73;fill-opacity:1"
       id="path8154" /><path
       d="m 288.68162,259.6491 -17.97523,-12.91661 3.22317,-4.48548 1.06586,0.7659 q -0.20343,-1.12265 -0.0259,-2.07256 0.17752,-0.94992 0.73599,-1.7271 0.74995,-1.04365 1.84447,-1.41881 1.10563,-0.36718 1.98686,-0.0707 0.87326,0.30763 2.50536,1.48041 l 6.89476,4.95443 q 1.69871,1.22066 2.25769,1.94221 0.55101,0.73265 0.52547,1.89279 -0.0144,1.16812 -0.78832,2.24508 -0.59836,0.8327 -1.39278,1.30565 -0.80239,0.48406 -1.80882,0.61948 l 4.1746,2.99978 -3.22317,4.48548 z m -3.7271,-9.4798 q 0.81049,0.58241 1.19178,0.63753 0.3733,0.0662 0.66849,-0.34458 0.28722,-0.3997 0.13557,-0.72753 -0.14852,-0.30875 -1.01453,-0.93105 l -7.21674,-5.18579 q -0.89932,-0.64623 -1.28372,-0.72043 -0.37331,-0.0662 -0.64456,0.31127 -0.31115,0.43301 -0.10399,0.80073 0.21826,0.3757 1.45066,1.26127 l 6.81704,4.89858 z"
       style="font-style:normal;font-variant:normal;font-weight:normal;font-stretch:condensed;font-size:28px;line-height:100%;font-family:Impact;writing-mode:lr-tb;text-anchor:start;fill:#004b73;fill-opacity:1"
       id="path8156" /><path
       d="m 275.14506,268.79149 -1.06733,-1.19529 q 0.16829,1.20789 -0.11858,2.17558 -0.28687,0.96769 -1.02883,1.71451 -0.90577,0.9117 -2.05566,1.0798 -1.14983,0.18743 -1.95377,-0.28365 -0.80394,-0.47109 -2.33637,-1.99356 l -5.42172,-5.38646 q -1.75551,-1.7441 -2.29034,-2.69944 -0.53477,-0.93601 -0.33532,-2.02909 0.19952,-1.07374 1.10529,-1.98545 0.7227,-0.72742 1.67886,-1.0109 0.95616,-0.28347 2.13609,-0.13264 l -2.94849,-2.92931 3.8929,-3.91838 14.70362,14.60801 -3.96035,3.98627 z m -4.85192,-2.60407 q 1.19297,1.18521 1.53186,1.34846 0.3389,0.16324 0.73397,-0.23442 0.38544,-0.38796 0.2101,-0.79342 -0.18497,-0.39577 -1.30035,-1.50389 l -5.33443,-5.29974 q -1.16388,-1.15631 -1.57048,-1.329 -0.40659,-0.17269 -0.79203,0.21527 -0.3758,0.37826 -0.20065,0.72572 0.17521,0.36679 1.2033,1.3882 l 5.51871,5.48282 z"
       style="font-style:normal;font-variant:normal;font-weight:normal;font-stretch:condensed;font-size:28px;line-height:100%;font-family:Impact;writing-mode:lr-tb;text-anchor:start;fill:#004b73;fill-opacity:1"
       id="path8158" /><path
       d="m 263.08216,279.71141 -1.34133,-1.97684 q 0.69364,2.73912 -0.9749,4.30489 l -4.0536,-4.93291 q 1.1725,-0.96349 1.46137,-1.73175 0.28887,-0.76825 -0.0531,-1.44281 -0.33329,-0.664 -2.00854,-2.70265 l -4.54836,-5.535 4.26744,-3.50675 11.51846,14.01707 -4.26744,3.50675 z"
       style="font-style:normal;font-variant:normal;font-weight:normal;font-stretch:condensed;font-size:28px;line-height:100%;font-family:Impact;writing-mode:lr-tb;text-anchor:start;fill:#004b73;fill-opacity:1"
       id="path8160" /><path
       d="m 242.53878,282.7737 5.95019,-3.96527 -2.17597,-3.26521 q -0.68236,-1.02393 -1.02739,-1.22117 -0.34503,-0.19724 -0.76598,0.0833 -0.52334,0.34876 -0.43622,0.8493 0.0833,0.51951 0.83393,1.64583 l 1.32681,1.99098 -4.3574,2.90382 -0.74302,-1.11494 q -0.93255,-1.39938 -1.25092,-2.27157 -0.32974,-0.86461 -0.24988,-2.15005 0.0798,-1.28544 0.79292,-2.38496 0.70928,-1.08057 2.21105,-2.08136 1.45626,-0.97047 2.85173,-1.29253 1.39548,-0.32207 2.50645,-0.0109 1.10717,0.3301 1.92989,1.04691 0.83029,0.72819 1.9524,2.41199 l 2.93414,4.40291 q 1.31923,1.97961 1.54269,3.47365 0.23104,1.50543 -0.58447,2.91966 -0.80792,1.42561 -2.38933,2.47948 -1.9341,1.2889 -3.67839,1.38339 -1.74808,0.11344 -3.05992,-0.7703 -1.31563,-0.86479 -2.77892,-3.06055 l -1.33439,-2.00236 z m 6.24536,-0.61318 0.73543,1.10357 q 0.78093,1.17183 1.13353,1.42975 0.3526,0.25791 0.73942,1.3e-4 0.47783,-0.31844 0.39448,-0.69006 -0.0758,-0.36024 -0.92494,-1.63447 l -0.73543,-1.10357 -1.34249,0.89465 z"
       style="font-style:normal;font-variant:normal;font-weight:normal;font-stretch:condensed;font-size:28px;line-height:100%;font-family:Impact;writing-mode:lr-tb;text-anchor:start;fill:#004b73;fill-opacity:1"
       id="path8162" /><path
       d="m 240.67303,297.17405 -1.35517,-2.51563 -1.31198,0.70676 -1.36164,-2.52766 1.31197,-0.70676 -4.60367,-8.54592 q -0.8494,-1.57678 -1.10314,-1.67303 -0.26577,-0.0898 -1.45739,0.55215 l -1.38758,-2.57582 1.96195,-1.05689 q 1.66104,-0.8948 2.44251,-1.14496 0.78797,-0.23812 1.59546,-0.0364 0.81397,0.21376 1.29002,0.78037 0.48254,0.57864 1.76638,2.96187 l 4.37025,8.1126 1.04717,-0.56411 1.36165,2.52767 -1.04717,0.56411 1.35516,2.51563 -4.87478,2.62603 z"
       style="font-style:normal;font-variant:normal;font-weight:normal;font-stretch:condensed;font-size:28px;line-height:100%;font-family:Impact;writing-mode:lr-tb;text-anchor:start;fill:#004b73;fill-opacity:1"
       id="path8164" /><path
       d="m 220.45055,293.33745 6.58225,-2.79322 -1.5328,-3.61206 q -0.48067,-1.1327 -0.78314,-1.39049 -0.30248,-0.2578 -0.76814,-0.0602 -0.57894,0.24568 -0.58614,0.7537 -0.0144,0.52594 0.5143,1.77191 l 0.93463,2.20248 -4.82027,2.04551 -0.52339,-1.23338 q -0.65692,-1.54803 -0.80804,-2.46413 -0.16371,-0.91076 0.15311,-2.1591 0.31682,-1.24834 1.2214,-2.19658 0.89734,-0.93031 2.55863,-1.63529 1.61095,-0.68362 3.04195,-0.74135 1.43099,-0.0577 2.46501,0.45401 1.02677,0.52966 1.7023,1.38659 0.68088,0.86952 1.47131,2.73218 l 2.06688,4.87061 q 0.92929,2.18989 0.87185,3.69946 -0.0521,1.52216 -1.1157,2.76066 -1.05825,1.25108 -2.80765,1.99345 -2.13954,0.90793 -3.8711,0.67735 -1.73881,-0.21265 -2.86404,-1.32431 -1.13247,-1.09374 -2.16324,-3.52275 l -0.93997,-2.21506 z m 6.25076,0.55547 0.51805,1.2208 q 0.5501,1.29631 0.84876,1.61513 0.29867,0.31882 0.72658,0.13723 0.52859,-0.22431 0.51559,-0.60494 -0.008,-0.36805 -0.60583,-1.77763 l -0.51806,-1.2208 -1.48509,0.63021 z"
       style="font-style:normal;font-variant:normal;font-weight:normal;font-stretch:condensed;font-size:28px;line-height:100%;font-family:Impact;writing-mode:lr-tb;text-anchor:start;fill:#004b73;fill-opacity:1"
       id="path8166" /><path
       d="m 215.01028,304.89057 -0.37665,-1.6277 q -0.29701,1.12683 -0.98542,1.84114 -0.69769,0.73126 -1.78677,1.04999 -1.36464,0.39938 -2.41882,0.01 -1.05419,-0.38951 -1.59151,-1.30065 -0.53348,-0.89803 -1.20167,-3.18117 l -3.57134,-12.20298 5.30108,-1.55142 3.5291,12.05864 q 0.5261,1.79765 0.7594,2.15673 0.2333,0.35908 0.77128,0.20164 0.56422,-0.16513 0.57416,-0.66662 0.0138,-0.48838 -0.56226,-2.4566 l -3.44461,-11.76997 5.30108,-1.55142 5.09588,17.41221 -5.39293,1.5783 z"
       style="font-style:normal;font-variant:normal;font-weight:normal;font-stretch:condensed;font-size:28px;line-height:100%;font-family:Impact;writing-mode:lr-tb;text-anchor:start;fill:#004b73;fill-opacity:1"
       id="path8168" /><path
       d="m 192.45927,313.81136 -3.65357,-21.83115 5.44768,-0.9117 0.21664,1.2945 q 0.64669,-0.93995 1.44199,-1.48891 0.79529,-0.54896 1.7392,-0.70693 1.26753,-0.21212 2.30852,0.2929 1.04326,0.5185 1.45963,1.34985 0.40289,0.83361 0.73462,2.81581 l 1.4014,8.37377 q 0.34527,2.06311 0.2335,2.96898 -0.12526,0.90814 -0.96085,1.71335 -0.83332,0.8187 -2.14131,1.0376 -1.01132,0.16925 -1.90828,-0.0549 -0.91045,-0.22191 -1.72001,-0.83497 l 0.84852,5.07011 -5.44768,0.9117 z m 4.03499,-9.3529 q 0.16474,0.98436 0.39645,1.29213 0.21823,0.31003 0.71715,0.22653 0.48544,-0.0812 0.60883,-0.42071 0.11217,-0.32374 -0.0639,-1.37552 l -1.46685,-8.76482 q -0.18279,-1.09224 -0.40327,-1.41575 -0.21823,-0.31003 -0.6767,-0.2333 -0.52589,0.088 -0.638,0.49491 -0.10985,0.42038 0.14064,1.91714 l 1.3856,8.27939 z"
       style="font-style:normal;font-variant:normal;font-weight:normal;font-stretch:condensed;font-size:28px;line-height:100%;font-family:Impact;writing-mode:lr-tb;text-anchor:start;fill:#004b73;fill-opacity:1"
       id="path8170" /><path
       d="m 176.70627,314.76717 -0.7174,-22.12314 5.75284,-0.18655 0.71739,22.12314 -5.75283,0.18655 z"
       style="font-style:normal;font-variant:normal;font-weight:normal;font-stretch:condensed;font-size:28px;line-height:100%;font-family:Impact;writing-mode:lr-tb;text-anchor:start;fill:#004b73;fill-opacity:1"
       id="path8172" /><path
       d="m 149.01056,308.66611 4.32514,-17.75645 5.96008,0.70773 q 0.097,3.35712 0.0951,8.82276 0.49774,-2.33651 1.17842,-4.70638 l 1.07524,-3.83748 5.96008,0.70773 0.18226,18.29168 -4.72462,-0.56102 q 0.0295,-0.71243 0.0289,-10.44643 -0.19753,0.96784 -2.4455,10.15947 l -4.54813,-0.54007 0.11035,-10.43676 q -0.79319,4.47677 -2.47266,10.15624 l -4.72462,-0.56102 z"
       style="font-style:normal;font-variant:normal;font-weight:normal;font-stretch:condensed;font-size:28px;line-height:100%;font-family:Impact;writing-mode:lr-tb;text-anchor:start;fill:#004b73;fill-opacity:1"
       id="path8174" /><path
       d="m 142.71439,299.7836 5.01747,1.29398 -0.30386,1.17824 q -0.52579,2.03876 -1.27252,3.01808 -0.76339,0.98914 -2.39844,1.4711 -1.63505,0.48196 -3.89887,-0.10187 -2.71393,-0.69991 -3.84152,-2.02141 -1.13101,-1.30826 -1.04711,-2.78326 0.0805,-1.46177 1.20374,-5.8173 l 2.27385,-8.81698 5.20282,1.34177 -0.40288,1.56217 q 0.73224,-0.81362 1.63624,-1.08878 0.88734,-0.26533 1.95967,0.0112 1.40331,0.3619 2.38011,1.44685 0.96016,1.09477 0.27391,3.75575 l -0.37215,1.44302 q -0.50871,1.97257 -1.3153,2.52699 -0.80658,0.55443 -3.51481,0.87258 -2.90081,0.35319 -3.17833,0.66284 -0.27753,0.30964 -0.56091,1.40846 -0.35507,1.37682 -0.24909,1.84185 0.0893,0.47485 0.56592,0.59776 0.54279,0.13998 0.76736,-0.18332 0.22115,-0.31006 0.60013,-1.77956 l 0.47457,-1.84018 z m -1.07317,-2.84646 q 1.52656,-0.60878 1.90226,-1.18961 0.36246,-0.58424 0.66974,-1.77573 0.35166,-1.36358 0.28198,-1.80513 -0.0829,-0.44496 -0.61246,-0.58153 -0.50307,-0.12974 -0.72722,0.1372 -0.24081,0.27676 -0.58223,1.60063 l -0.93207,3.61417 z"
       style="font-style:normal;font-variant:normal;font-weight:normal;font-stretch:condensed;font-size:28px;line-height:100%;font-family:Impact;writing-mode:lr-tb;text-anchor:start;fill:#004b73;fill-opacity:1"
       id="path8176" /><path
       d="m 121.7045,294.12808 4.57508,1.73927 -0.3498,0.92012 q -0.44696,1.17572 -0.42298,1.53587 0.006,0.36808 0.54308,0.57212 0.4345,0.16519 0.7635,-0.0462 0.32413,-0.19856 0.54275,-0.77364 0.29636,-0.77956 0.33501,-1.18903 0.021,-0.40155 -0.35054,-1.04011 -0.38434,-0.64341 -1.75546,-2.11537 -1.83139,-1.9541 -2.16503,-3.19255 -0.33365,-1.23846 0.3708,-3.09149 0.78704,-2.07029 1.72702,-2.92695 0.93512,-0.84388 2.41892,-0.93799 1.46617,-0.0862 3.24252,0.58912 1.96806,0.74817 3.14061,1.896 1.15978,1.14297 1.28536,2.39009 0.12558,1.24711 -0.68089,3.36852 l -0.31093,0.81789 -4.57509,-1.73926 0.4081,-1.07349 q 0.51984,-1.36741 0.50917,-1.83951 -0.0234,-0.47697 -0.53463,-0.6713 -0.54953,-0.2089 -0.8688,-0.0231 -0.32414,0.19856 -0.65936,1.08035 -0.46154,1.21405 -0.29698,1.62765 0.17733,0.41845 2.31332,2.95639 1.78893,2.14273 1.89381,3.36735 0.10003,1.2374 -0.4441,2.66871 -0.77247,2.03195 -1.67358,2.78637 -0.90597,0.7672 -2.38312,0.80533 -1.48992,0.0333 -3.18961,-0.61288 -1.6869,-0.64129 -2.69744,-1.52276 -1.02817,-0.87354 -1.38717,-1.81447 -0.37177,-0.94579 -0.27122,-1.59502 0.0878,-0.65408 0.57359,-1.93203 l 0.37409,-0.98403 z"
       style="font-style:normal;font-variant:normal;font-weight:normal;font-stretch:condensed;font-size:28px;line-height:100%;font-family:Impact;writing-mode:lr-tb;text-anchor:start;fill:#004b73;fill-opacity:1"
       id="path8178" /><path
       d="m 103.2131,283.80961 2.18765,-3.86751 q 1.20489,-2.1301 1.98452,-3.00854 0.77289,-0.86654 1.96637,-1.3381 1.18675,-0.45966 2.52905,-0.25016 1.32366,0.21467 2.75166,1.02242 1.59461,0.90199 2.5061,1.87309 0.90477,0.98301 1.12643,2.03513 0.20303,1.0573 -0.1006,2.20499 -0.31035,1.15959 -1.44793,3.17069 l -2.28862,4.04601 q -1.24528,2.20151 -2.42133,3.16986 -1.17605,0.96835 -2.83772,1.01801 -1.66167,0.0497 -3.58947,-1.04081 -1.61841,-0.91545 -2.49673,-2.05628 -0.89695,-1.13566 -1.09012,-2.26592 -0.19317,-1.13025 0.0452,-2.07925 0.22646,-0.95573 1.17556,-2.63363 z m 4.13449,3.90942 q -0.68659,1.2138 -0.7307,1.59725 -0.0508,0.39534 0.37756,0.63767 0.4284,0.24232 0.75294,0.002 0.31781,-0.22863 1.0044,-1.44243 l 4.03201,-7.12812 q 0.63274,-1.1186 0.68514,-1.54448 0.0457,-0.41397 -0.37083,-0.64957 -0.4284,-0.24232 -0.73431,-0.007 -0.31781,0.22862 -0.8967,1.25203 l -4.11951,7.28281 z"
       style="font-style:normal;font-variant:normal;font-weight:normal;font-stretch:condensed;font-size:28px;line-height:100%;font-family:Impact;writing-mode:lr-tb;text-anchor:start;fill:#004b73;fill-opacity:1"
       id="path8180" /><path
       d="m 92.198936,283.87387 1.063335,-1.28864 q -1.075236,0.44927 -2.060896,0.33698 -1.00477,-0.10935 -1.919963,-0.78025 -1.146748,-0.84065 -1.478415,-1.91444 -0.331667,-1.07379 0.06507,-2.05435 0.388655,-0.96954 1.795132,-2.88813 l 7.517377,-10.25458 4.454673,3.26562 -7.42846,10.13328 q -1.107399,1.51062 -1.250657,1.91416 -0.143258,0.40354 0.308825,0.73495 0.474137,0.34758 0.878339,0.0506 0.39612,-0.28598 1.6086,-1.93995 l 7.250633,-9.8907 4.45467,3.26562 -10.726404,14.63206 -4.53186,-3.3222 z"
       style="font-style:normal;font-variant:normal;font-weight:normal;font-stretch:condensed;font-size:28px;line-height:100%;font-family:Impact;writing-mode:lr-tb;text-anchor:start;fill:#004b73;fill-opacity:1"
       id="path8182" /><path
       d="m 80.587881,261.65291 5.22738,4.87879 2.677271,-2.86856 q 0.839562,-0.89955 0.952167,-1.28069 0.112606,-0.38114 -0.257209,-0.72629 -0.45977,-0.42911 -0.926862,-0.22921 -0.486417,0.20057 -1.409935,1.19007 l -1.632482,1.74913 -3.828081,-3.57281 0.91419,-0.97951 q 1.147401,-1.22938 1.923,-1.73979 0.765604,-0.51975 2.034954,-0.73765 1.269349,-0.2179 2.50339,0.2232 1.214718,0.44176 2.534056,1.67312 1.279359,1.19404 1.913715,2.47805 0.634355,1.284 0.587058,2.43675 -0.06662,1.15341 -0.575019,2.11892 -0.517725,0.97551 -1.898339,2.45476 l -3.610118,3.86807 q -1.623153,1.73912 -3.025765,2.30019 -1.41194,0.57105 -2.975812,0.10264 -1.573202,-0.45842 -2.962505,-1.75507 -1.699149,-1.58584 -2.192247,-3.26165 -0.512422,-1.67514 0.04595,-3.15506 0.539043,-1.47925 2.339438,-3.40828 l 1.64181,-1.75912 z m 2.033022,5.93695 -0.904862,0.96951 q -0.960832,1.02949 -1.130741,1.43195 -0.16991,0.40246 0.16992,0.71963 0.41979,0.3918 0.76228,0.22521 0.333161,-0.15659 1.37795,-1.27603 l 0.904862,-0.96951 -1.179409,-1.10076 z"
       style="font-style:normal;font-variant:normal;font-weight:normal;font-stretch:condensed;font-size:28px;line-height:100%;font-family:Impact;writing-mode:lr-tb;text-anchor:start;fill:#004b73;fill-opacity:1"
       id="path8184" /><path
       d="m 65.037863,247.63848 3.50515,-2.73082 q 1.930528,-1.50405 2.98772,-2.01573 1.046407,-0.50328 2.329466,-0.48034 1.272274,0.0313 2.431185,0.74026 1.139725,0.70654 2.148027,2.00075 1.125937,1.4452 1.594604,2.69188 0.457882,1.25509 0.258494,2.31166 -0.218577,1.05419 -0.939668,1.99728 -0.731876,0.95148 -2.554553,2.37151 l -3.666926,2.85685 q -1.995239,1.55447 -3.452988,1.99693 -1.457748,0.44246 -3.01107,-0.14983 -1.553322,-0.59229 -2.914529,-2.33947 -1.142743,-1.46677 -1.515599,-2.85743 -0.392044,-1.39304 -0.136347,-2.51081 0.255696,-1.11777 0.840219,-1.90246 0.576119,-0.79548 2.096815,-1.98023 z m 2.31611,5.19742 q -1.100078,0.85706 -1.288062,1.19416 -0.19877,0.3455 0.103721,0.73376 0.302491,0.38827 0.694518,0.29082 0.381242,-0.089 1.48132,-0.9461 l 6.46026,-5.03311 q 1.013797,-0.78984 1.225734,-1.16293 0.201152,-0.36469 -0.09294,-0.74217 -0.302491,-0.38826 -0.67533,-0.28843 -0.381242,0.089 -1.308759,0.81166 l -6.600466,5.14234 z"
       style="font-style:normal;font-variant:normal;font-weight:normal;font-stretch:condensed;font-size:28px;line-height:100%;font-family:Impact;writing-mode:lr-tb;text-anchor:start;fill:#004b73;fill-opacity:1"
       id="path8186" /><path
       d="m 50.948141,244.82707 2.360078,-1.51174 q 0.921792,1.43907 1.229552,1.61537 0.288874,0.17216 0.910553,-0.22606 l 0.483528,-0.30972 -1.253636,-1.95714 2.41764,-1.54861 0.707936,1.10521 12.491144,-8.00115 2.97923,4.65108 -12.491143,8.00115 0.612069,0.95555 -2.41764,1.54861 -0.61207,-0.95555 q -1.508147,0.96604 -2.081069,1.1869 -0.572923,0.22085 -1.222452,0.0686 -0.668416,-0.15635 -1.3476,-0.76042 -0.679183,-0.60406 -1.674718,-2.15826 l -1.091402,-1.70386 z"
       style="font-style:normal;font-variant:normal;font-weight:normal;font-stretch:condensed;font-size:28px;line-height:100%;font-family:Impact;writing-mode:lr-tb;text-anchor:start;fill:#004b73;fill-opacity:1"
       id="path8188" /><path
       d="m 45.667885,231.6066 2.558593,-1.27219 -0.663486,-1.33439 2.570835,-1.27827 0.663486,1.33438 8.69187,-4.32178 q 1.603711,-0.7974 1.708211,-1.04786 0.09841,-0.26269 -0.504203,-1.47466 l 2.619803,-1.30262 0.992185,1.99546 q 0.84001,1.6894 1.064481,2.47864 0.21223,0.79533 -0.01578,1.59579 -0.240251,0.80655 -0.822123,1.26383 -0.594115,0.46336 -3.018045,1.66859 l -8.251155,4.10265 0.529571,1.06506 -2.570835,1.27828 -0.529571,-1.06506 -2.558593,1.27219 -2.465245,-4.95804 z"
       style="font-style:normal;font-variant:normal;font-weight:normal;font-stretch:condensed;font-size:28px;line-height:100%;font-family:Impact;writing-mode:lr-tb;text-anchor:start;fill:#004b73;fill-opacity:1"
       id="path8190" /><path
       d="m 40.185643,222.84309 4.643858,-1.78906 q -0.867958,-0.42749 -1.469047,-1.075 -0.606004,-0.66027 -0.94514,-1.54056 -0.520992,-1.35233 -0.195779,-2.56183 0.320298,-1.22225 1.147465,-1.77534 0.809494,-0.56093 3.195213,-1.48004 l 11.673434,-4.49724 1.985666,5.15417 -11.915833,4.59063 q -1.479911,0.57014 -1.84194,0.88543 -0.366944,0.30253 -0.170343,0.81285 0.181855,0.47204 0.679517,0.47078 0.497663,-0.001 1.786206,-0.49768 l 12.081685,-4.65452 1.985667,5.15417 -20.654963,7.95741 -1.985666,-5.15417 z"
       style="font-style:normal;font-variant:normal;font-weight:normal;font-stretch:condensed;font-size:28px;line-height:100%;font-family:Impact;writing-mode:lr-tb;text-anchor:start;fill:#004b73;fill-opacity:1"
       id="path8192" /><path
       d="m 43.162988,197.12782 4.304229,-1.1032 q 2.370637,-0.60761 3.544215,-0.65436 1.160334,-0.0434 2.327404,0.49024 1.153826,0.53698 1.933044,1.64984 0.762581,1.10302 1.169917,2.69227 0.45486,1.77467 0.386476,3.10478 -0.08163,1.3335 -0.686498,2.22245 -0.621508,0.87911 -1.659307,1.4556 -1.051043,0.5799 -3.289242,1.15356 l -4.502885,1.15412 q -2.4501,0.62798 -3.963232,0.45126 -1.513132,-0.17673 -2.700515,-1.34023 -1.187384,-1.1635 -1.737288,-3.30899 -0.461649,-1.80116 -0.247918,-3.22498 0.197093,-1.43367 0.878032,-2.35623 0.680938,-0.92256 1.530264,-1.40841 0.845931,-0.4991 2.713304,-0.97772 z m 0.04699,5.68994 q -1.350866,0.34624 -1.657865,0.58017 -0.320243,0.23734 -0.198042,0.71411 0.122201,0.47678 0.520517,0.54405 0.385072,0.0707 1.735938,-0.27557 l 7.933024,-2.03328 q 1.244915,-0.31909 1.588251,-0.57645 0.330092,-0.25397 0.211286,-0.7175 -0.122201,-0.47678 -0.503879,-0.5342 -0.385072,-0.0707 -1.524037,0.22125 l -8.105193,2.07742 z"
       style="font-style:normal;font-variant:normal;font-weight:normal;font-stretch:condensed;font-size:28px;line-height:100%;font-family:Impact;writing-mode:lr-tb;text-anchor:start;fill:#004b73;fill-opacity:1"
       id="path8194" /><path
       d="m 40.46113,182.92305 0.676014,4.84762 -0.974941,0.13596 q -1.245757,0.17372 -1.549966,0.36799 -0.319638,0.18262 -0.240329,0.75133 0.0642,0.46039 0.407743,0.64716 0.33,0.18865 0.939338,0.10367 0.825991,-0.11518 1.203569,-0.27827 0.362149,-0.17474 0.743229,-0.80766 0.379191,-0.64646 1.01009,-2.55659 0.83217,-2.54558 1.757417,-3.43384 0.925247,-0.88826 2.88867,-1.16206 2.193617,-0.30591 3.396816,0.10608 1.189658,0.41387 1.985938,1.66944 0.780851,1.24392 1.043326,3.1261 0.2908,2.08529 -0.151447,3.66542 -0.444135,1.56659 -1.477064,2.2766 -1.032928,0.71002 -3.280708,1.02348 l -0.866614,0.12085 -0.676015,-4.84762 1.137431,-0.15862 q 1.448871,-0.20205 1.85763,-0.4385 0.40687,-0.25 0.331338,-0.79164 -0.0812,-0.58225 -0.397656,-0.77279 -0.33,-0.18865 -1.264318,-0.0584 -1.28638,0.17939 -1.569818,0.52261 -0.281549,0.35676 -1.479047,3.45023 -1.017966,2.59911 -2.04113,3.28015 -1.036706,0.68294 -2.55328,0.89443 -2.152994,0.30024 -3.247867,-0.12686 -1.108413,-0.4252 -1.852418,-1.70186 -0.745894,-1.29021 -0.997039,-3.09114 -0.249256,-1.78739 0.03741,-3.09735 0.271235,-1.32161 0.923455,-2.08897 0.650331,-0.7809 1.267867,-1.00506 0.615649,-0.2377 1.969733,-0.42653 l 1.042645,-0.1454 z"
       style="font-style:normal;font-variant:normal;font-weight:normal;font-stretch:condensed;font-size:28px;line-height:100%;font-family:Impact;writing-mode:lr-tb;text-anchor:start;fill:#004b73;fill-opacity:1"
       id="path8196" /><path
       d="m 43.436472,167.03242 0.182529,7.14806 3.92255,-0.10017 q 1.230067,-0.0314 1.580883,-0.21816 0.350816,-0.18675 0.337903,-0.69244 -0.01605,-0.6287 -0.485981,-0.82185 -0.483944,-0.20646 -1.837019,-0.17191 l -2.391798,0.0611 -0.133669,-5.23462 1.339408,-0.0342 q 1.681092,-0.0429 2.588726,0.15272 0.907285,0.18197 1.952234,0.93484 1.04495,0.75287 1.595024,1.94234 0.536058,1.17615 0.582127,2.98025 0.04467,1.74943 -0.42682,3.10175 -0.471492,1.35232 -1.327012,2.12637 -0.869536,0.76072 -1.914598,1.07461 -1.05873,0.31424 -3.081508,0.36589 l -5.289291,0.13507 q -2.378131,0.0607 -3.761277,-0.54675 -1.396812,-0.60711 -2.158529,-2.05103 -0.775384,-1.44357 -0.823895,-3.34334 -0.05933,-2.32346 0.790661,-3.84956 0.835975,-1.53942 2.283033,-2.17813 1.433041,-0.65203 4.070853,-0.71939 l 2.405466,-0.0614 z m -2.810816,5.61069 -1.32574,0.0339 q -1.407744,0.0359 -1.813927,0.19676 -0.406184,0.16081 -0.394318,0.6255 0.01466,0.57403 0.373501,0.70163 0.345176,0.12795 1.875927,0.0889 l 1.32574,-0.0339 -0.04118,-1.61275 z"
       style="font-style:normal;font-variant:normal;font-weight:normal;font-stretch:condensed;font-size:28px;line-height:100%;font-family:Impact;writing-mode:lr-tb;text-anchor:start;fill:#004b73;fill-opacity:1"
       id="path8198" /><path
       d="m 32.284945,144.66361 21.938256,2.94293 -0.734368,5.4744 -1.300848,-0.17451 q 0.707601,0.895 0.99778,1.81676 0.290179,0.92177 0.162937,1.8703 -0.170867,1.27375 -0.960266,2.11966 -0.802949,0.8441 -1.720086,0.99696 -0.91532,0.1393 -2.907243,-0.12791 l -8.414859,-1.12881 q -2.073226,-0.27812 -2.90592,-0.65191 -0.830877,-0.38735 -1.354059,-1.42313 -0.536733,-1.03761 -0.360412,-2.35201 0.136331,-1.01628 0.614894,-1.80734 0.480382,-0.8046 1.304813,-1.39752 l -5.094987,-0.68347 0.734368,-5.4744 z m 7.748244,6.61231 q -0.989187,-0.1327 -1.35158,-0.002 -0.360575,0.11716 -0.427831,0.61853 -0.06544,0.48782 0.222592,0.70578 0.276298,0.2026 1.333236,0.34438 l 8.807824,1.18153 q 1.09759,0.14724 1.471716,0.0319 0.360575,-0.11717 0.422378,-0.57788 0.07089,-0.52847 -0.284891,-0.75553 -0.369334,-0.22887 -1.873439,-0.43064 l -8.320005,-1.11609 z"
       style="font-style:normal;font-variant:normal;font-weight:normal;font-stretch:condensed;font-size:28px;line-height:100%;font-family:Impact;writing-mode:lr-tb;text-anchor:start;fill:#004b73;fill-opacity:1"
       id="path8200" /><path
       d="m 49.245305,131.35677 -1.777351,6.92598 3.800677,0.97533 q 1.19185,0.30585 1.580342,0.22205 0.388491,-0.0838 0.514231,-0.57378 0.156325,-0.60916 -0.242954,-0.92335 -0.409123,-0.33083 -1.720158,-0.66727 l -2.317487,-0.59471 1.301579,-5.07199 1.297792,0.33304 q 1.628862,0.418 2.448511,0.85418 0.823048,0.42294 1.622549,1.43265 0.799501,1.00972 1.003669,2.30422 0.194324,1.27786 -0.254261,3.02591 -0.434992,1.69508 -1.258016,2.86713 -0.823024,1.17205 -1.857472,1.68291 -1.044293,0.49421 -2.135353,0.51064 -1.104303,0.013 -3.064234,-0.48994 l -5.124956,-1.31517 q -2.304244,-0.59132 -3.468798,-1.55357 -1.177797,-0.96564 -1.516038,-2.56273 -0.351484,-1.60049 0.120891,-3.44124 0.577724,-2.25127 1.812326,-3.48708 1.224758,-1.25246 2.791263,-1.47151 1.556662,-0.2357 4.112518,0.42019 l 2.33073,0.59811 z m -4.236783,4.62928 -1.28455,-0.32964 q -1.364006,-0.35004 -1.798672,-0.30632 -0.434665,0.0437 -0.55021,0.49398 -0.142732,0.55619 0.167597,0.77698 0.297085,0.21739 1.780277,0.598 l 1.284549,0.32965 0.401009,-1.56265 z"
       style="font-style:normal;font-variant:normal;font-weight:normal;font-stretch:condensed;font-size:28px;line-height:100%;font-family:Impact;writing-mode:lr-tb;text-anchor:start;fill:#004b73;fill-opacity:1"
       id="path8202" /><path
       d="m 49.686286,123.19896 -1.85808,4.83704 -1.135875,-0.43633 q -1.965445,-0.755 -2.853153,-1.60861 -0.895569,-0.87127 -1.187801,-2.55064 -0.292231,-1.67936 0.546111,-3.86177 1.00503,-2.61634 2.446571,-3.58577 1.428778,-0.97433 2.884572,-0.72267 1.443031,0.24676 5.641937,1.85971 l 8.499914,3.26512 -1.926716,5.01572 -1.505991,-0.57851 q 0.724752,0.8203 0.894954,1.74979 0.162342,0.91182 -0.234767,1.9456 -0.519674,1.35284 -1.709,2.19946 -1.197185,0.82896 -3.762475,-0.15646 l -1.391127,-0.53439 q -1.901632,-0.73048 -2.360393,-1.59506 -0.458761,-0.86459 -0.465789,-3.59142 -0.01987,-2.92217 -0.295826,-3.23322 -0.275955,-0.31104 -1.335254,-0.71796 -1.327314,-0.50987 -1.801397,-0.45764 -0.481943,0.0345 -0.658436,0.49401 -0.201006,0.52326 0.09456,0.78326 0.282802,0.25509 1.699454,0.79928 l 1.774007,0.68146 z m 2.95033,-0.74135 q 0.430596,1.58606 0.964761,2.02559 0.539068,0.42676 1.687705,0.868 1.314551,0.50496 1.761164,0.48613 0.451515,-0.0316 0.647618,-0.54211 0.186299,-0.48498 -0.05331,-0.73813 -0.247472,-0.27081 -1.523735,-0.76107 l -3.484199,-1.33841 z"
       style="font-style:normal;font-variant:normal;font-weight:normal;font-stretch:condensed;font-size:28px;line-height:100%;font-family:Impact;writing-mode:lr-tb;text-anchor:start;fill:#004b73;fill-opacity:1"
       id="path8204" /><path
       d="m 46.800702,102.62153 2.515365,1.23623 q -0.753797,1.53376 -0.745254,1.88834 0.0023,0.33627 0.664887,0.66191 l 0.515343,0.25328 1.025163,-2.08592 2.576716,1.26638 -0.578916,1.17793 13.313033,6.54295 -2.436271,4.95712 -13.313033,-6.54296 -0.500521,1.01842 -2.576715,-1.26638 0.500521,-1.01842 q -1.60738,-0.78998 -2.09299,-1.16574 -0.48561,-0.37577 -0.69173,-1.01026 -0.212359,-0.65278 -0.04728,-1.54661 0.165083,-0.89384 0.979183,-2.5503 l 0.892496,-1.81597 z"
       style="font-style:normal;font-variant:normal;font-weight:normal;font-stretch:condensed;font-size:28px;line-height:100%;font-family:Impact;writing-mode:lr-tb;text-anchor:start;fill:#004b73;fill-opacity:1"
       id="path8206" /><path
       d="m 61.057587,100.11941 3.30432,1.90565 -3.626894,6.28887 -3.30432,-1.90566 3.626894,-6.28886 z"
       style="font-style:normal;font-variant:normal;font-weight:normal;font-stretch:condensed;font-size:28px;line-height:100%;font-family:Impact;writing-mode:lr-tb;text-anchor:start;fill:#004b73;fill-opacity:1"
       id="path8208" /><path
       d="m 59.858649,88.878488 1.319528,1.111553 q -0.433571,-1.129756 -0.303982,-2.144073 0.11866,-1.022531 0.80048,-1.929623 1.33078,-1.770468 3.734068,-1.554644 -0.400711,-1.173471 -0.279337,-2.176859 0.110445,-1.011602 0.751191,-1.86405 0.846114,-1.125668 1.942939,-1.447164 1.10504,-0.332424 2.058922,0.0596 0.942954,0.38381 2.724351,1.722805 l 10.305872,7.746455 -3.22016,4.284096 -9.453424,-7.10571 q -1.857899,-1.396497 -2.393628,-1.593939 -0.538443,-0.216586 -0.88346,0.242424 -0.353231,0.469939 -0.02287,0.940602 0.338576,0.459733 2.207404,1.864446 l 9.453424,7.105709 -3.220159,4.284095 -9.212991,-6.924986 q -2.131119,-1.601865 -2.63949,-1.81295 -0.500156,-0.222013 -0.853387,0.247926 -0.221797,0.295078 -0.148371,0.675234 0.0625,0.371941 0.373932,0.640239 0.300506,0.260084 1.349673,1.048695 l 10.054509,7.557517 -3.22016,4.284093 -14.502537,-10.900895 3.277663,-4.360597 z"
       style="font-style:normal;font-variant:normal;font-weight:normal;font-stretch:condensed;font-size:28px;line-height:100%;font-family:Impact;writing-mode:lr-tb;text-anchor:start;fill:#004b73;fill-opacity:1"
       id="path8210" /><path
       d="m 80.659636,65.312169 12.734266,12.922523 -4.00238,3.944072 -0.987424,-1.13837 q 0.233949,1.0555 -0.04354,1.981566 -0.277349,0.906732 -1.056401,1.674435 -0.886172,0.873261 -1.777542,1.137417 -0.89137,0.264157 -1.682379,0.02633 -0.781271,-0.247426 -1.396426,-0.735327 -0.624752,-0.497638 -2.265716,-2.162862 l -8.588672,-8.715643 3.934213,-3.876898 8.665442,8.793549 q 1.487423,1.509413 1.853359,1.705452 0.375674,0.186444 0.784676,-0.2166 0.438217,-0.431833 0.228233,-0.800747 -0.200245,-0.378511 -1.764439,-1.96583 l -8.569479,-8.696167 3.934212,-3.876897 z"
       style="font-style:normal;font-variant:normal;font-weight:normal;font-stretch:condensed;font-size:28px;line-height:100%;font-family:Impact;writing-mode:lr-tb;text-anchor:start;fill:#004b73;fill-opacity:1"
       id="path8212" /><path
       d="m 86.534617,57.369177 1.803058,2.216718 1.156088,-0.94035 1.811685,2.227324 -1.156088,0.940351 6.125221,7.53048 q 1.130146,1.389426 1.397434,1.436369 0.277895,0.03832 1.32792,-0.815764 l 1.846195,2.26975 -1.728831,1.406213 q -1.46367,1.190536 -2.18434,1.582863 -0.729297,0.381722 -1.560291,0.335081 -0.839621,-0.05725 -1.413525,-0.524483 -0.582532,-0.477843 -2.290692,-2.577892 l -5.814646,-7.148653 -0.922749,0.750556 -1.811685,-2.227325 0.922749,-0.750556 -1.803058,-2.216718 4.295555,-3.493964 z"
       style="font-style:normal;font-variant:normal;font-weight:normal;font-stretch:condensed;font-size:28px;line-height:100%;font-family:Impact;writing-mode:lr-tb;text-anchor:start;fill:#004b73;fill-opacity:1"
       id="path8214" /><path
       d="m 107.13333,57.348331 -5.94598,3.971577 2.17944,3.262899 q 0.68344,1.023208 1.02868,1.220082 0.34523,0.196874 0.76589,-0.0841 0.52297,-0.349317 0.43531,-0.84977 -0.0839,-0.519416 -0.83567,-1.644945 l -1.32892,-1.989572 4.35432,-2.90844 0.7442,1.11416 q 0.93404,1.398386 1.25333,2.27024 0.33066,0.86426 0.25217,2.149783 -0.0785,1.285522 -0.7904,2.385802 -0.70813,1.081316 -2.20884,2.083702 -1.45523,0.972011 -2.85036,1.295555 -1.39513,0.323544 -2.50643,0.01359 -1.10753,-0.328917 -1.931003,-1.044858 -0.831068,-0.727311 -1.954956,-2.40992 l -2.938815,-4.399797 q -1.321327,-1.978204 -1.546369,-3.472012 -0.232635,-1.505178 0.581373,-2.920275 0.806414,-1.426466 2.386703,-2.482009 1.932727,-1.290952 3.676915,-1.38729 1.747962,-0.115301 3.060742,0.767051 1.31655,0.86339 2.78216,3.057604 l 1.33651,2.000941 z m -6.2447,0.619804 -0.73661,-1.102792 q -0.782161,-1.171005 -1.135035,-1.428543 -0.352874,-0.257537 -0.73942,6.54e-4 -0.477497,0.318941 -0.393747,0.690473 0.07616,0.360163 0.926666,1.633489 l 0.736602,1.102791 1.341544,-0.896072 z"
       style="font-style:normal;font-variant:normal;font-weight:normal;font-stretch:condensed;font-size:28px;line-height:100%;font-family:Impact;writing-mode:lr-tb;text-anchor:start;fill:#004b73;fill-opacity:1"
       id="path8216" /><path
       d="m 117.95588,47.58888 -4.3499,2.243841 -0.45128,-0.874839 q -0.57663,-1.117851 -0.86071,-1.34052 -0.2782,-0.241086 -0.78852,0.02216 -0.41312,0.213102 -0.47552,0.599116 -0.0687,0.373863 0.21338,0.920638 0.38233,0.741184 0.6613,1.043408 0.28485,0.283806 1.00827,0.433681 0.73558,0.143607 2.74685,0.106055 2.67752,-0.05817 3.82215,0.520547 1.14463,0.578718 2.05344,2.340548 1.01537,1.96839 1.02527,3.24013 0.004,1.259589 -0.91723,2.426868 -0.91497,1.14886 -2.6039,2.020072 -1.87118,0.965228 -3.50859,1.07145 -1.62527,0.09995 -2.63739,-0.639415 -1.01213,-0.739369 -2.05257,-2.756361 l -0.40113,-0.777635 4.3499,-2.243842 0.52649,1.020647 q 0.67064,1.300109 1.02917,1.607446 0.37067,0.30107 0.85669,0.05036 0.52248,-0.269511 0.59741,-0.631224 0.0687,-0.373863 -0.3638,-1.212251 -0.59543,-1.154303 -1.01317,-1.308026 -0.42989,-0.147456 -3.74539,-0.252466 -2.78957,-0.0994 -3.77113,-0.839157 -0.98782,-0.751904 -1.68981,-2.112766 -0.99656,-1.931938 -0.95632,-3.106473 0.034,-1.186686 0.99206,-2.31163 0.97023,-1.131212 2.58625,-1.964818 1.60387,-0.827338 2.93483,-0.990849 1.33683,-0.181929 2.27693,0.179233 0.95225,0.354895 1.36834,0.863294 0.42824,0.502131 1.05501,1.717186 l 0.48262,0.935593 z"
       style="font-style:normal;font-variant:normal;font-weight:normal;font-stretch:condensed;font-size:28px;line-height:100%;font-family:Impact;writing-mode:lr-tb;text-anchor:start;fill:#004b73;fill-opacity:1"
       id="path8218" /></g><rect
     y="154.84717"
     x="261.04538"
     height="31.098473"
     width="74.105408"
     id="rect875"
     style="font-size:12px;fill:#fdfdfd;fill-opacity:0.99610003;fill-rule:evenodd;stroke:none;stroke-width:1;stroke-opacity:1" /><rect
     y="135.96204"
     x="78.768669"
     height="19.136181"
     width="258.58481"
     id="rect671"
     style="font-size:12px;fill:#004b73;fill-opacity:1;fill-rule:evenodd;stroke-width:1" /><rect
     y="155.10596"
     x="58.227318"
     height="8.3341408"
     width="23.227428"
     id="rect703"
     style="font-size:12px;fill:#ffffff;fill-opacity:1;fill-rule:evenodd;stroke-width:1" /><g
     inkscape:label="test"
     id="layer1"
     inkscape:groupmode="layer"
     transform="translate(0,-722.36216)" /></svg>