<?xml version="1.0" encoding="UTF-8"?>

<svg version="1.2" baseProfile="tiny" width="77.96mm" height="80.79mm" viewBox="0 0 7796 8079" preserveAspectRatio="xMidYMid" fill-rule="evenodd" clip-path="url(#presentation_clip_path)" stroke-width="28.222" stroke-linejoin="round" xmlns="http://www.w3.org/2000/svg" xmlns:ooo="http://xml.openoffice.org/svg/export" xmlns:xlink="http://www.w3.org/1999/xlink" xml:space="preserve">
 <defs class="ClipPathGroup">
  <clipPath id="presentation_clip_path" clipPathUnits="userSpaceOnUse">
   <rect x="0" y="0" width="7796" height="8079"/>
  </clipPath>
 </defs>
 <defs class="TextShapeIndex">
  <g ooo:slide="id1" ooo:id-list="id3 id4 id5"/>
 </defs>
 <defs class="EmbeddedBulletChars">
  <g id="bullet-char-template(57356)" transform="scale(0.00048828125,-0.00048828125)">
   <path d="M 580,1141 L 1163,571 580,0 -4,571 580,1141 Z"/>
  </g>
  <g id="bullet-char-template(57354)" transform="scale(0.00048828125,-0.00048828125)">
   <path d="M 8,1128 L 1137,1128 1137,0 8,0 8,1128 Z"/>
  </g>
  <g id="bullet-char-template(10146)" transform="scale(0.00048828125,-0.00048828125)">
   <path d="M 174,0 L 602,739 174,1481 1456,739 174,0 Z M 1358,739 L 309,1346 659,739 1358,739 Z"/>
  </g>
  <g id="bullet-char-template(10132)" transform="scale(0.00048828125,-0.00048828125)">
   <path d="M 2015,739 L 1276,0 717,0 1260,543 174,543 174,936 1260,936 717,1481 1274,1481 2015,739 Z"/>
  </g>
  <g id="bullet-char-template(10007)" transform="scale(0.00048828125,-0.00048828125)">
   <path d="M 0,-2 C -7,14 -16,27 -25,37 L 356,567 C 262,823 215,952 215,954 215,979 228,992 255,992 264,992 276,990 289,987 310,991 331,999 354,1012 L 381,999 492,748 772,1049 836,1024 860,1049 C 881,1039 901,1025 922,1006 886,937 835,863 770,784 769,783 710,716 594,584 L 774,223 C 774,196 753,168 711,139 L 727,119 C 717,90 699,76 672,76 641,76 570,178 457,381 L 164,-76 C 142,-110 111,-127 72,-127 30,-127 9,-110 8,-76 1,-67 -2,-52 -2,-32 -2,-23 -1,-13 0,-2 Z"/>
  </g>
  <g id="bullet-char-template(10004)" transform="scale(0.00048828125,-0.00048828125)">
   <path d="M 285,-33 C 182,-33 111,30 74,156 52,228 41,333 41,471 41,549 55,616 82,672 116,743 169,778 240,778 293,778 328,747 346,684 L 369,508 C 377,444 397,411 428,410 L 1163,1116 C 1174,1127 1196,1133 1229,1133 1271,1133 1292,1118 1292,1087 L 1292,965 C 1292,929 1282,901 1262,881 L 442,47 C 390,-6 338,-33 285,-33 Z"/>
  </g>
  <g id="bullet-char-template(9679)" transform="scale(0.00048828125,-0.00048828125)">
   <path d="M 813,0 C 632,0 489,54 383,161 276,268 223,411 223,592 223,773 276,916 383,1023 489,1130 632,1184 813,1184 992,1184 1136,1130 1245,1023 1353,916 1407,772 1407,592 1407,412 1353,268 1245,161 1136,54 992,0 813,0 Z"/>
  </g>
  <g id="bullet-char-template(8226)" transform="scale(0.00048828125,-0.00048828125)">
   <path d="M 346,457 C 273,457 209,483 155,535 101,586 74,649 74,723 74,796 101,859 155,911 209,963 273,989 346,989 419,989 480,963 531,910 582,859 608,796 608,723 608,648 583,586 532,535 482,483 420,457 346,457 Z"/>
  </g>
  <g id="bullet-char-template(8211)" transform="scale(0.00048828125,-0.00048828125)">
   <path d="M -4,459 L 1135,459 1135,606 -4,606 -4,459 Z"/>
  </g>
 </defs>
 <defs class="TextEmbeddedBitmaps"/>
 <g>
  <g id="id2" class="Master_Slide">
   <g id="bg-id2" class="Background"/>
   <g id="bo-id2" class="BackgroundObjects"/>
  </g>
 </g>
 <g class="SlideGroup">
  <g>
   <g id="id1" class="Slide" clip-path="url(#presentation_clip_path)">
    <g class="Page">
     <g class="com.sun.star.drawing.ClosedBezierShape">
      <g id="id3">
       <path fill="rgb(11,13,9)" stroke="none" d="M 3137,37 C 2835,114 2489,159 2220,328 1118,1020 458,2253 256,3505 L 170,5375 11,6645 C -21,6803 -133,7043 -32,7195 55,7326 249,7308 385,7321 L 1479,7387 C 2031,7412 2458,7749 2961,7925 3545,8129 4241,8117 4831,7966 L 6101,7529 C 6619,7368 7358,7268 7662,6751 7754,6594 7654,6323 7626,6151 7559,5744 7534,5329 7549,4916 L 7651,3893 7452,2623 C 7412,2342 7453,2005 7343,1741 6782,394 5401,12 4090,12 3787,12 3432,-38 3137,37 Z"/>
      </g>
     </g>
     <g class="com.sun.star.drawing.ClosedBezierShape">
      <g id="id4">
       <path fill="rgb(229,231,227)" stroke="none" d="M 1623,1023 C 1623,1917 2352,2638 3282,2646 3248,2431 3077,2300 2929,2152 2572,1796 2076,1234 1623,1023 Z M 6633,1094 L 6598,1058 C 6062,1307 5573,1886 5081,2233 4988,2299 4614,2507 4699,2660 4792,2827 5310,2652 5434,2599 6022,2344 6505,1713 6633,1094 Z M 6880,5222 C 7614,5106 7509,3864 7429,3352 L 7333,2809 C 7251,2712 7099,2832 7022,2877 6675,3083 6801,3223 6808,3563 L 6798,4163 6880,5222 Z M 953,5751 C 1073,5000 897,4157 1165,3422 1061,3349 818,3113 682,3156 534,3204 536,3715 528,3846 497,4400 331,5433 953,5751 Z M 5787,6280 C 6873,5934 6771,4993 6675,4093 6640,3767 6719,3491 6598,3175 6366,3251 5923,3362 5778,3568 5646,3754 5795,3994 5776,4199 L 5785,5186 C 5767,5555 5677,5910 5787,6280 Z M 2364,3987 C 2182,3890 1538,3514 1352,3587 1203,3645 1201,4032 1200,4163 L 1106,5398 C 1093,5597 1060,5855 1185,6027 1358,6265 1658,6492 1906,6647 1969,6688 2115,6801 2185,6716 2289,6589 2119,6195 2131,6033 L 2287,4587 2364,3987 Z M 5432,3697 L 4517,3932 C 4419,3952 4292,3975 4235,4067 4156,4196 4204,4569 4199,4728 L 4177,6098 C 4145,6340 4033,6726 4228,6934 4329,7042 4627,6997 4763,6981 5759,6865 5585,5979 5579,5257 L 5646,4657 C 5646,4475 5726,3657 5432,3697 Z M 2505,4022 L 2566,4478 2371,5045 2344,6139 C 2343,6342 2273,6613 2350,6808 2399,6931 2530,6972 2647,7009 2921,7095 3671,7272 3901,7041 4054,6888 4010,6479 3993,6280 L 4064,4728 C 4068,4556 4176,4219 4037,4079 3946,3988 3750,4021 3634,4022 L 2505,4022 Z"/>
      </g>
     </g>
     <g class="com.sun.star.drawing.OpenBezierShape">
      <g id="id5"/>
     </g>
    </g>
   </g>
  </g>
 </g>
</svg>