<?xml version="1.0" encoding="UTF-8" standalone="no"?>
<!-- Created with Inkscape (http://www.inkscape.org/) -->

<svg
   xmlns:dc="http://purl.org/dc/elements/1.1/"
   xmlns:cc="http://creativecommons.org/ns#"
   xmlns:rdf="http://www.w3.org/1999/02/22-rdf-syntax-ns#"
   xmlns:svg="http://www.w3.org/2000/svg"
   xmlns="http://www.w3.org/2000/svg"
   xmlns:sodipodi="http://sodipodi.sourceforge.net/DTD/sodipodi-0.dtd"
   xmlns:inkscape="http://www.inkscape.org/namespaces/inkscape"
   id="svg2"
   version="1.1"
   inkscape:version="0.91 r"
   xml:space="preserve"
   width="126"
   height="83"
   viewBox="0 0 126 83"
   sodipodi:docname="pig.svg"><metadata
     id="metadata8"><rdf:RDF><cc:Work
         rdf:about=""><dc:format>image/svg+xml</dc:format><dc:type
           rdf:resource="http://purl.org/dc/dcmitype/StillImage" /><dc:title></dc:title></cc:Work></rdf:RDF></metadata><defs
     id="defs6" /><sodipodi:namedview
     pagecolor="#ffffff"
     bordercolor="#666666"
     borderopacity="1"
     objecttolerance="10"
     gridtolerance="10"
     guidetolerance="10"
     inkscape:pageopacity="0"
     inkscape:pageshadow="2"
     inkscape:window-width="1920"
     inkscape:window-height="1056"
     id="namedview4"
     showgrid="false"
     inkscape:zoom="2.7764706"
     inkscape:cx="-9.5444913"
     inkscape:cy="13.686441"
     inkscape:window-x="0"
     inkscape:window-y="24"
     inkscape:window-maximized="1"
     inkscape:current-layer="g10" /><g
     id="g10"
     inkscape:groupmode="layer"
     inkscape:label="ink_ext_XXXXXX"
     transform="matrix(1.25,0,0,-1.25,0,83)"><path
       inkscape:connector-curvature="0"
       id="path14"
       style="fill:#000000;fill-opacity:1;fill-rule:nonzero;stroke:none"
       d="m 82.131726,32.359478 c 0,-17.642512 -14.220327,-31.96089342 -31.746791,-31.96089342 -17.527158,0 -31.75066,14.31838142 -31.75066,31.96089342 0,17.642514 14.223502,31.960896 31.75066,31.960896 17.526464,0 31.746791,-14.318382 31.746791,-31.960896 z" /><path
       inkscape:connector-curvature="0"
       id="path16"
       style="fill:none;stroke:#000000;stroke-width:0.79639012;stroke-linecap:butt;stroke-linejoin:miter;stroke-miterlimit:4;stroke-dasharray:none;stroke-opacity:1"
       d="m 82.131726,32.359078 c 0,-17.642511 -14.220327,-31.96088294 -31.746791,-31.96088294 -17.527158,0 -31.75066,14.31837194 -31.75066,31.96088294 0,17.642515 14.223502,31.960896 31.75066,31.960896 17.526464,0 31.746791,-14.318381 31.746791,-31.960896 z" /><path
       inkscape:connector-curvature="0"
       id="path18"
       style="fill:#ffffff;stroke:#000000;stroke-width:2.38917017;stroke-linecap:square;stroke-linejoin:miter;stroke-miterlimit:4;stroke-dasharray:none;stroke-opacity:1"
       d="M 67.712958,59.072495 C 85.523092,71.456143 85.63938,60.941308 98.014001,62.291655 90.917828,53.716149 93.386343,40.848693 79.759356,45.238222" /><path
       inkscape:connector-curvature="0"
       id="path20"
       style="fill:#ffffff;stroke:#000000;stroke-width:2.38917017;stroke-linecap:square;stroke-linejoin:miter;stroke-miterlimit:4;stroke-dasharray:none;stroke-opacity:1"
       d="M 33.113569,59.103357 C 15.308492,71.4913 15.188337,60.976064 2.8085758,62.326713 9.9059695,53.74701 7.4401736,40.879955 21.06826,45.273378" /><path
       inkscape:connector-curvature="0"
       id="path22"
       style="fill:#ffffff;fill-opacity:1;fill-rule:nonzero;stroke:none"
       d="m 61.578333,16.379032 c 0,-5.450331 -4.87581,-9.8750277 -10.87986,-9.8750277 -6.003554,0 -10.875494,4.4246967 -10.875494,9.8750277 0,5.450331 4.87194,9.873818 10.875494,9.873818 6.00405,0 10.87986,-4.423487 10.87986,-9.873818 z" /><path
       inkscape:connector-curvature="0"
       id="path24"
       style="fill:#ffffff;stroke:#000000;stroke-width:0.79639012;stroke-linecap:butt;stroke-linejoin:miter;stroke-miterlimit:4;stroke-dasharray:none;stroke-opacity:1"
       d="m 61.578333,16.378633 c 0,-5.450331 -4.87581,-9.8746287 -10.87986,-9.8746287 -6.003554,0 -10.875494,4.4242977 -10.875494,9.8746287 0,5.45033 4.87194,9.875016 10.875494,9.875016 6.00405,0 10.87986,-4.424686 10.87986,-9.875016 z" /><path
       inkscape:connector-curvature="0"
       id="path26"
       style="fill:#ffffff;fill-opacity:1;fill-rule:nonzero;stroke:none"
       d="m 38.253306,37.731805 c 0,-2.013536 -1.624345,-3.652531 -3.623544,-3.652531 -2.004163,0 -3.628506,1.638995 -3.628506,3.652531 0,2.012738 1.624343,3.647538 3.628506,3.647538 1.999199,0 3.623544,-1.6348 3.623544,-3.647538 z" /><path
       inkscape:connector-curvature="0"
       id="path28"
       style="fill:#ffffff;stroke:#000000;stroke-width:0.79639012;stroke-linecap:butt;stroke-linejoin:miter;stroke-miterlimit:4;stroke-dasharray:none;stroke-opacity:1"
       d="m 38.253306,37.731805 c 0,-2.013536 -1.624345,-3.651732 -3.623544,-3.651732 -2.004163,0 -3.628506,1.638196 -3.628506,3.651732 0,2.013137 1.624343,3.647538 3.628506,3.647538 1.999199,0 3.623544,-1.634401 3.623544,-3.647538 z" /><path
       inkscape:connector-curvature="0"
       id="path30"
       style="fill:#000000;fill-opacity:1;fill-rule:nonzero;stroke:none"
       d="m 70.30659,37.665086 c 0,-2.016631 -1.628215,-3.65173 -3.628505,-3.65173 -1.999101,0 -3.627316,1.635099 -3.627316,3.65173 0,2.013538 1.628215,3.648237 3.627316,3.648237 2.00029,0 3.628505,-1.634699 3.628505,-3.648237 z" /><path
       inkscape:connector-curvature="0"
       id="path32"
       style="fill:#ffffff;stroke:#000000;stroke-width:0.79639012;stroke-linecap:butt;stroke-linejoin:miter;stroke-miterlimit:4;stroke-dasharray:none;stroke-opacity:1"
       d="m 70.30659,37.665885 c 0,-2.01783 -1.628215,-3.652529 -3.628505,-3.652529 -1.999101,0 -3.627316,1.634699 -3.627316,3.652529 0,2.012339 1.628215,3.647438 3.627316,3.647438 2.00029,0 3.628505,-1.635099 3.628505,-3.647438 z" /><path
       inkscape:connector-curvature="0"
       id="path34"
       style="fill:#000000;fill-opacity:1;fill-rule:nonzero;stroke:none"
       d="m 50.012857,16.382927 c 0,-2.111516 -1.786769,-3.820326 -3.984708,-3.820326 -2.201411,0 -3.984707,1.70881 -3.984707,3.820326 0,2.106422 1.783296,3.819527 3.984707,3.819527 2.197939,0 3.984708,-1.713105 3.984708,-3.819527 z" /><path
       inkscape:connector-curvature="0"
       id="path36"
       style="fill:#000000;stroke:#000000;stroke-width:0.79639012;stroke-linecap:butt;stroke-linejoin:miter;stroke-miterlimit:4;stroke-dasharray:none;stroke-opacity:1"
       d="m 50.012857,16.382927 c 0,-2.110717 -1.786769,-3.819527 -3.984708,-3.819527 -2.201411,0 -3.984707,1.70881 -3.984707,3.819527 0,2.106422 1.783296,3.819127 3.984707,3.819127 2.197939,0 3.984708,-1.712705 3.984708,-3.819127 z" /><path
       inkscape:connector-curvature="0"
       id="path38"
       style="fill:#000000;fill-opacity:1;fill-rule:nonzero;stroke:none"
       d="m 59.454015,16.414189 c 0,-2.106423 -1.783296,-3.819627 -3.984013,-3.819627 -2.197543,0 -3.984708,1.713204 -3.984708,3.819627 0,2.110217 1.787165,3.819127 3.984708,3.819127 2.200717,0 3.984013,-1.70891 3.984013,-3.819127 z" /><path
       inkscape:connector-curvature="0"
       id="path40"
       style="fill:#000000;stroke:#000000;stroke-width:0.79639012;stroke-linecap:butt;stroke-linejoin:miter;stroke-miterlimit:4;stroke-dasharray:none;stroke-opacity:1"
       d="m 59.454015,16.413789 c 0,-2.106423 -1.783296,-3.819626 -3.984013,-3.819626 -2.197543,0 -3.984708,1.713203 -3.984708,3.819626 0,2.110317 1.787165,3.819127 3.984708,3.819127 2.200717,0 3.984013,-1.70881 3.984013,-3.819127 z" /></g></svg>